<svg width="1023" height="279" viewBox="0 0 1023 279" fill="none" xmlns="http://www.w3.org/2000/svg">
<path d="M484.002 74.7595V137.548H540.346C563.892 137.548 573.984 121.851 573.984 106.154C573.984 90.4557 563.612 74.7595 540.346 74.7595H484.002ZM620.796 236.503H576.786L519.602 170.908H484.002V236.503H447V40C478.115 40 509.23 40.2799 540.346 40.2799C586.598 40.5606 610.985 71.3948 610.985 105.315C610.985 132.225 598.651 159.416 561.368 166.984L620.796 233.979V236.503Z" fill="white"/>
<path d="M660.04 167.264C660.04 193.614 678.261 209.311 700.965 209.311C754.787 209.311 754.787 125.496 700.965 125.496C678.26 125.496 660.04 140.915 660.04 167.265V167.264ZM743.014 98.3046H775.811V236.505H743.575L741.892 216.318C734.044 232.578 712.46 240.427 697.042 240.707C656.115 240.987 625.841 215.758 625.841 167.265C625.841 119.611 657.516 94.6576 697.882 94.9425C716.384 94.9425 734.044 103.632 741.892 117.367L743.014 98.3046Z" fill="white"/>
<path d="M922.692 98.0253L952.966 202.025L984.642 98.0253H1022.48L974.274 237.064H934.465L920.169 196.137L907.834 149.885L895.502 196.136L881.205 237.063H841.4L792.904 98.0253H831.028L862.704 202.025L892.699 98.0253H922.692Z" fill="white"/>
<path d="M267.521 40.1018C248.639 40.1208 230.156 45.5418 214.254 55.7251C198.353 65.9083 185.697 80.4286 177.78 97.5717C176.941 99.4154 176.148 101.281 175.401 103.17C174.678 105.036 174 106.93 173.37 108.863C172.786 110.73 172.251 112.644 171.76 114.557C169.788 122.235 168.769 130.127 168.727 138.054C168.82 138.146 168.914 138.221 169.006 138.311C172.821 141.64 176.86 144.704 181.093 147.481C182.284 148.274 183.52 149.044 184.756 149.815C184.28 146.209 184.038 142.577 184.033 138.94C184.026 129.674 185.564 120.471 188.584 111.71C189.67 108.616 190.932 105.585 192.364 102.633C195.866 95.411 200.391 88.7316 205.8 82.8013C210.18 77.9595 215.116 73.652 220.506 69.9685C234.353 60.4959 250.744 55.4362 267.521 55.4546C271.394 55.4536 275.261 55.7267 279.095 56.2717C279.095 56.2475 279.119 56.2717 279.119 56.2717C281.614 56.5984 284.041 57.0646 286.471 57.6244H286.495C295.766 59.7954 304.597 63.5363 312.606 68.6851C316.509 71.2102 320.199 74.0507 323.639 77.1782C332.258 84.9927 339.145 94.5262 343.855 105.165C348.565 115.803 350.994 127.31 350.985 138.944C351.007 158.482 344.141 177.402 331.595 192.38C332.902 192.38 334.209 192.38 335.468 192.355C340.696 192.277 345.913 191.833 351.079 191.026L351.497 190.956C355.598 184.362 358.904 177.305 361.344 169.933C361.974 168.043 362.557 166.153 363.048 164.192C363.561 162.279 364.028 160.319 364.401 158.336C364.797 156.353 365.148 154.346 365.427 152.315C366.025 147.884 366.328 143.418 366.336 138.947C366.312 112.744 355.894 87.6218 337.368 69.0911C318.843 50.5603 293.724 40.1348 267.521 40.1018V40.1018ZM215.674 204.277C215.558 204.184 215.418 204.09 215.301 203.997C204.461 195.288 195.954 184.023 190.545 171.213C189.509 168.78 188.598 166.296 187.814 163.77C187.114 161.436 186.485 159.079 185.948 156.677C183.264 155.089 180.651 153.479 178.201 151.847L173.488 148.58C172.741 148.042 171.994 147.506 171.295 146.97L169.219 145.359C169.102 145.266 169.008 145.192 168.892 145.101C169.032 147.524 169.288 149.908 169.591 152.265C169.942 154.716 170.362 157.165 170.875 159.569C176.091 183.803 190.203 205.2 210.425 219.537C210.544 219.63 210.668 219.716 210.798 219.793C212.315 220.868 213.878 221.87 215.442 222.874L215.559 222.595L221.392 208.454C219.417 207.159 217.509 205.764 215.675 204.277H215.674ZM326.908 197.526C325.193 199.281 323.39 200.958 321.516 202.533C319.503 204.249 317.422 205.859 315.25 207.365C301.27 217.169 284.605 222.422 267.529 222.404C266.777 222.404 266.025 222.387 265.273 222.37C263.452 222.335 261.631 222.212 259.829 222.054L256.38 237.11C257.746 237.267 259.129 237.389 260.511 237.495C262.823 237.653 265.168 237.739 267.53 237.739C280.675 237.746 293.689 235.122 305.805 230.023C317.921 224.924 328.894 217.453 338.079 208.049C339.812 206.263 341.511 204.409 343.103 202.5C344.663 200.662 346.139 198.772 347.531 196.829C343.562 197.289 339.571 197.546 335.575 197.599C332.773 197.651 329.886 197.633 326.909 197.529" fill="white"/>
<path d="M81.8555 116.356H18.7851V53.5645H141.286V40.1251H4.78672V129.815H81.8555C125.303 129.815 137.084 153.359 137.084 176.903C137.084 202.99 118.02 222.613 75.9743 222.613C49.6302 222.613 15.1439 216.43 15.1439 182.246H0C0.279901 225.973 40.3675 237.733 75.9743 237.733C128.124 237.733 152.228 208.869 152.228 176.622C152.228 146.079 135.124 116.352 81.8538 116.352" fill="white"/>
<path d="M378.235 185.78C375.504 195.2 363.127 201.062 343.1 202.498C340.72 202.69 338.254 202.795 335.664 202.848C331.481 202.932 327.087 202.848 322.535 202.603C322.201 202.586 321.867 202.568 321.52 202.533C300.883 201.378 276.914 197.001 252.476 189.912C228.23 182.857 205.805 173.771 187.825 163.775C183.361 161.324 179.178 158.786 175.309 156.229C173.296 154.899 171.388 153.568 169.602 152.255C153.216 140.176 145.759 128.516 148.524 119.011C150.888 110.889 160.114 105.475 175.414 103.168C178.268 102.731 181.346 102.416 184.64 102.205C185.334 102.161 186.017 102.395 186.539 102.855C187.061 103.314 187.379 103.962 187.424 104.656C187.467 105.35 187.233 106.033 186.774 106.555C186.314 107.077 185.666 107.395 184.972 107.44C181.084 107.676 177.213 108.15 173.383 108.86C162.197 110.978 155.159 115.043 153.566 120.466C151.675 126.961 157.189 135.697 168.901 145.097V145.115C171.668 147.321 174.765 149.579 178.214 151.855C180.666 153.484 183.256 155.095 185.952 156.687C204.263 167.453 228.019 177.344 253.946 184.872C280.064 192.451 305.588 196.881 326.911 197.528C329.886 197.634 332.775 197.651 335.576 197.598C339.571 197.545 343.561 197.287 347.529 196.826C362.164 195.128 371.32 190.734 373.193 184.309C374.769 178.9 371.197 171.915 363.058 164.195C361.026 162.287 358.733 160.326 356.141 158.331C355.589 157.908 355.228 157.283 355.136 156.593C355.044 155.904 355.23 155.207 355.652 154.654C356.079 154.101 356.706 153.74 357.398 153.648C358.09 153.556 358.791 153.742 359.346 154.165C361.149 155.565 362.847 156.948 364.404 158.331C375.783 168.362 380.563 177.779 378.235 185.78Z" fill="white"/>
<path d="M268.465 222.425C268.316 222.427 268.149 222.442 267.999 222.443C254.094 222.52 240.388 219.142 228.111 212.612C225.774 211.377 223.5 210.024 221.299 208.558C219.283 207.188 217.309 205.755 215.377 204.23C212.293 204.69 209.25 205.088 206.319 205.366L200.601 205.803C199.683 205.857 198.765 205.912 197.884 205.936L195.256 205.996C195.107 205.997 194.987 205.999 194.84 206.002C196.477 207.794 198.179 209.483 199.901 211.121C201.719 212.801 203.588 214.437 205.503 215.98C224.834 231.498 249.279 239.204 274.014 237.579C274.165 237.576 274.316 237.564 274.465 237.543C276.32 237.42 278.166 237.212 280.013 237.006L279.927 236.715L275.537 222.062C273.187 222.302 270.826 222.423 268.465 222.425Z" fill="white"/>
</svg>
