<svg width="1440" height="891" viewBox="0 0 1440 891" fill="none" xmlns="http://www.w3.org/2000/svg">
<g clip-path="url(#clip0_506_737)">
<rect width="1440" height="891" fill="white"/>
<rect y="-1" width="1440" height="80" fill="white"/>
<circle cx="1346" cy="39" r="25" fill="#F7F7F8"/>
<rect x="1332" y="31" width="27" height="1" fill="black"/>
<rect x="1332" y="47" width="27" height="1" fill="black"/>
<rect x="1332" y="39" width="27" height="1" fill="black"/>
<rect x="791" y="20" width="419" height="39" rx="19.5" fill="#F7F7F8"/>
<path d="M78.528 32.4L72.948 45H71.634L66.054 32.4H67.494L72.318 43.344L77.178 32.4H78.528ZM80.034 35.532H81.312V45H80.034V35.532ZM80.682 33.462C80.418 33.462 80.196 33.372 80.016 33.192C79.836 33.012 79.746 32.796 79.746 32.544C79.746 32.304 79.836 32.094 80.016 31.914C80.196 31.734 80.418 31.644 80.682 31.644C80.946 31.644 81.168 31.734 81.348 31.914C81.528 32.082 81.618 32.286 81.618 32.526C81.618 32.79 81.528 33.012 81.348 33.192C81.168 33.372 80.946 33.462 80.682 33.462ZM93.5079 31.644V45H92.2839V43.128C91.8999 43.764 91.3899 44.25 90.7539 44.586C90.1299 44.922 89.4219 45.09 88.6299 45.09C87.7419 45.09 86.9379 44.886 86.2179 44.478C85.4979 44.07 84.9339 43.5 84.5259 42.768C84.1179 42.036 83.9139 41.202 83.9139 40.266C83.9139 39.33 84.1179 38.496 84.5259 37.764C84.9339 37.032 85.4979 36.468 86.2179 36.072C86.9379 35.664 87.7419 35.46 88.6299 35.46C89.3979 35.46 90.0879 35.622 90.6999 35.946C91.3239 36.258 91.8339 36.72 92.2299 37.332V31.644H93.5079ZM88.7379 43.956C89.3979 43.956 89.9919 43.806 90.5199 43.506C91.0599 43.194 91.4799 42.756 91.7799 42.192C92.0919 41.628 92.2479 40.986 92.2479 40.266C92.2479 39.546 92.0919 38.904 91.7799 38.34C91.4799 37.776 91.0599 37.344 90.5199 37.044C89.9919 36.732 89.3979 36.576 88.7379 36.576C88.0659 36.576 87.4599 36.732 86.9199 37.044C86.3919 37.344 85.9719 37.776 85.6599 38.34C85.3599 38.904 85.2099 39.546 85.2099 40.266C85.2099 40.986 85.3599 41.628 85.6599 42.192C85.9719 42.756 86.3919 43.194 86.9199 43.506C87.4599 43.806 88.0659 43.956 88.7379 43.956ZM105.311 40.662H97.3912C97.4632 41.646 97.8412 42.444 98.5252 43.056C99.2092 43.656 100.073 43.956 101.117 43.956C101.705 43.956 102.245 43.854 102.737 43.65C103.229 43.434 103.655 43.122 104.015 42.714L104.735 43.542C104.315 44.046 103.787 44.43 103.151 44.694C102.527 44.958 101.837 45.09 101.081 45.09C100.109 45.09 99.2452 44.886 98.4892 44.478C97.7452 44.058 97.1632 43.482 96.7432 42.75C96.3232 42.018 96.1132 41.19 96.1132 40.266C96.1132 39.342 96.3112 38.514 96.7072 37.782C97.1152 37.05 97.6672 36.48 98.3632 36.072C99.0712 35.664 99.8632 35.46 100.739 35.46C101.615 35.46 102.401 35.664 103.097 36.072C103.793 36.48 104.339 37.05 104.735 37.782C105.131 38.502 105.329 39.33 105.329 40.266L105.311 40.662ZM100.739 36.558C99.8272 36.558 99.0592 36.852 98.4352 37.44C97.8232 38.016 97.4752 38.772 97.3912 39.708H104.105C104.021 38.772 103.667 38.016 103.043 37.44C102.431 36.852 101.663 36.558 100.739 36.558ZM111.8 45.09C110.888 45.09 110.066 44.886 109.334 44.478C108.602 44.058 108.026 43.482 107.606 42.75C107.186 42.018 106.976 41.19 106.976 40.266C106.976 39.342 107.186 38.514 107.606 37.782C108.026 37.05 108.602 36.48 109.334 36.072C110.066 35.664 110.888 35.46 111.8 35.46C112.712 35.46 113.534 35.664 114.266 36.072C114.998 36.48 115.568 37.05 115.976 37.782C116.396 38.514 116.606 39.342 116.606 40.266C116.606 41.19 116.396 42.018 115.976 42.75C115.568 43.482 114.998 44.058 114.266 44.478C113.534 44.886 112.712 45.09 111.8 45.09ZM111.8 43.956C112.472 43.956 113.072 43.806 113.6 43.506C114.14 43.194 114.56 42.756 114.86 42.192C115.16 41.628 115.31 40.986 115.31 40.266C115.31 39.546 115.16 38.904 114.86 38.34C114.56 37.776 114.14 37.344 113.6 37.044C113.072 36.732 112.472 36.576 111.8 36.576C111.128 36.576 110.522 36.732 109.982 37.044C109.454 37.344 109.034 37.776 108.722 38.34C108.422 38.904 108.272 39.546 108.272 40.266C108.272 40.986 108.422 41.628 108.722 42.192C109.034 42.756 109.454 43.194 109.982 43.506C110.522 43.806 111.128 43.956 111.8 43.956ZM121.754 45.09C120.986 45.09 120.248 44.982 119.54 44.766C118.844 44.538 118.298 44.256 117.902 43.92L118.478 42.912C118.874 43.224 119.372 43.482 119.972 43.686C120.572 43.878 121.196 43.974 121.844 43.974C122.708 43.974 123.344 43.842 123.752 43.578C124.172 43.302 124.382 42.918 124.382 42.426C124.382 42.078 124.268 41.808 124.04 41.616C123.812 41.412 123.524 41.262 123.176 41.166C122.828 41.058 122.366 40.956 121.79 40.86C121.022 40.716 120.404 40.572 119.936 40.428C119.468 40.272 119.066 40.014 118.73 39.654C118.406 39.294 118.244 38.796 118.244 38.16C118.244 37.368 118.574 36.72 119.234 36.216C119.894 35.712 120.812 35.46 121.988 35.46C122.6 35.46 123.212 35.544 123.824 35.712C124.436 35.868 124.94 36.078 125.336 36.342L124.778 37.368C123.998 36.828 123.068 36.558 121.988 36.558C121.172 36.558 120.554 36.702 120.134 36.99C119.726 37.278 119.522 37.656 119.522 38.124C119.522 38.484 119.636 38.772 119.864 38.988C120.104 39.204 120.398 39.366 120.746 39.474C121.094 39.57 121.574 39.672 122.186 39.78C122.942 39.924 123.548 40.068 124.004 40.212C124.46 40.356 124.85 40.602 125.174 40.95C125.498 41.298 125.66 41.778 125.66 42.39C125.66 43.218 125.312 43.878 124.616 44.37C123.932 44.85 122.978 45.09 121.754 45.09Z" fill="black"/>
<path d="M208.742 46.062C208.358 46.53 207.902 46.884 207.374 47.124C206.858 47.376 206.294 47.502 205.682 47.502C204.938 47.502 204.23 47.316 203.558 46.944C202.898 46.584 202.154 45.972 201.326 45.108C200.114 45.072 199.022 44.772 198.05 44.208C197.078 43.644 196.316 42.882 195.764 41.922C195.212 40.962 194.936 39.888 194.936 38.7C194.936 37.488 195.218 36.396 195.782 35.424C196.358 34.452 197.15 33.69 198.158 33.138C199.178 32.574 200.312 32.292 201.56 32.292C202.808 32.292 203.93 32.568 204.926 33.12C205.934 33.672 206.726 34.44 207.302 35.424C207.878 36.396 208.166 37.488 208.166 38.7C208.166 39.756 207.944 40.728 207.5 41.616C207.068 42.492 206.456 43.224 205.664 43.812C204.884 44.4 203.984 44.79 202.964 44.982C203.888 45.954 204.8 46.44 205.7 46.44C206.636 46.44 207.434 46.056 208.094 45.288L208.742 46.062ZM196.25 38.7C196.25 39.684 196.478 40.572 196.934 41.364C197.402 42.156 198.038 42.78 198.842 43.236C199.658 43.692 200.564 43.92 201.56 43.92C202.556 43.92 203.456 43.692 204.26 43.236C205.064 42.78 205.694 42.156 206.15 41.364C206.606 40.572 206.834 39.684 206.834 38.7C206.834 37.716 206.606 36.828 206.15 36.036C205.694 35.244 205.064 34.62 204.26 34.164C203.456 33.708 202.556 33.48 201.56 33.48C200.564 33.48 199.658 33.708 198.842 34.164C198.038 34.62 197.402 35.244 196.934 36.036C196.478 36.828 196.25 37.716 196.25 38.7ZM219.414 35.532V45H218.19V43.272C217.854 43.848 217.392 44.298 216.804 44.622C216.216 44.934 215.544 45.09 214.788 45.09C213.552 45.09 212.574 44.748 211.854 44.064C211.146 43.368 210.792 42.354 210.792 41.022V35.532H212.07V40.896C212.07 41.892 212.316 42.648 212.808 43.164C213.3 43.68 214.002 43.938 214.914 43.938C215.91 43.938 216.696 43.638 217.272 43.038C217.848 42.426 218.136 41.58 218.136 40.5V35.532H219.414ZM231.237 40.662H223.317C223.389 41.646 223.767 42.444 224.451 43.056C225.135 43.656 225.999 43.956 227.043 43.956C227.631 43.956 228.171 43.854 228.663 43.65C229.155 43.434 229.581 43.122 229.941 42.714L230.661 43.542C230.241 44.046 229.713 44.43 229.077 44.694C228.453 44.958 227.763 45.09 227.007 45.09C226.035 45.09 225.171 44.886 224.415 44.478C223.671 44.058 223.089 43.482 222.669 42.75C222.249 42.018 222.039 41.19 222.039 40.266C222.039 39.342 222.237 38.514 222.633 37.782C223.041 37.05 223.593 36.48 224.289 36.072C224.997 35.664 225.789 35.46 226.665 35.46C227.541 35.46 228.327 35.664 229.023 36.072C229.719 36.48 230.265 37.05 230.661 37.782C231.057 38.502 231.255 39.33 231.255 40.266L231.237 40.662ZM226.665 36.558C225.753 36.558 224.985 36.852 224.361 37.44C223.749 38.016 223.401 38.772 223.317 39.708H230.031C229.947 38.772 229.593 38.016 228.969 37.44C228.357 36.852 227.589 36.558 226.665 36.558ZM236.394 45.09C235.626 45.09 234.888 44.982 234.18 44.766C233.484 44.538 232.938 44.256 232.542 43.92L233.118 42.912C233.514 43.224 234.012 43.482 234.612 43.686C235.212 43.878 235.836 43.974 236.484 43.974C237.348 43.974 237.984 43.842 238.392 43.578C238.812 43.302 239.022 42.918 239.022 42.426C239.022 42.078 238.908 41.808 238.68 41.616C238.452 41.412 238.164 41.262 237.816 41.166C237.468 41.058 237.006 40.956 236.43 40.86C235.662 40.716 235.044 40.572 234.576 40.428C234.108 40.272 233.706 40.014 233.37 39.654C233.046 39.294 232.884 38.796 232.884 38.16C232.884 37.368 233.214 36.72 233.874 36.216C234.534 35.712 235.452 35.46 236.628 35.46C237.24 35.46 237.852 35.544 238.464 35.712C239.076 35.868 239.58 36.078 239.976 36.342L239.418 37.368C238.638 36.828 237.708 36.558 236.628 36.558C235.812 36.558 235.194 36.702 234.774 36.99C234.366 37.278 234.162 37.656 234.162 38.124C234.162 38.484 234.276 38.772 234.504 38.988C234.744 39.204 235.038 39.366 235.386 39.474C235.734 39.57 236.214 39.672 236.826 39.78C237.582 39.924 238.188 40.068 238.644 40.212C239.1 40.356 239.49 40.602 239.814 40.95C240.138 41.298 240.3 41.778 240.3 42.39C240.3 43.218 239.952 43.878 239.256 44.37C238.572 44.85 237.618 45.09 236.394 45.09ZM247.649 44.424C247.409 44.64 247.109 44.808 246.749 44.928C246.401 45.036 246.035 45.09 245.651 45.09C244.763 45.09 244.079 44.85 243.599 44.37C243.119 43.89 242.879 43.212 242.879 42.336V36.612H241.187V35.532H242.879V33.462H244.157V35.532H247.037V36.612H244.157V42.264C244.157 42.828 244.295 43.26 244.571 43.56C244.859 43.848 245.267 43.992 245.795 43.992C246.059 43.992 246.311 43.95 246.551 43.866C246.803 43.782 247.019 43.662 247.199 43.506L247.649 44.424ZM249.975 35.532H251.253V45H249.975V35.532ZM250.623 33.462C250.359 33.462 250.137 33.372 249.957 33.192C249.777 33.012 249.687 32.796 249.687 32.544C249.687 32.304 249.777 32.094 249.957 31.914C250.137 31.734 250.359 31.644 250.623 31.644C250.887 31.644 251.109 31.734 251.289 31.914C251.469 32.082 251.559 32.286 251.559 32.526C251.559 32.79 251.469 33.012 251.289 33.192C251.109 33.372 250.887 33.462 250.623 33.462ZM258.679 45.09C257.767 45.09 256.945 44.886 256.213 44.478C255.481 44.058 254.905 43.482 254.485 42.75C254.065 42.018 253.855 41.19 253.855 40.266C253.855 39.342 254.065 38.514 254.485 37.782C254.905 37.05 255.481 36.48 256.213 36.072C256.945 35.664 257.767 35.46 258.679 35.46C259.591 35.46 260.413 35.664 261.145 36.072C261.877 36.48 262.447 37.05 262.855 37.782C263.275 38.514 263.485 39.342 263.485 40.266C263.485 41.19 263.275 42.018 262.855 42.75C262.447 43.482 261.877 44.058 261.145 44.478C260.413 44.886 259.591 45.09 258.679 45.09ZM258.679 43.956C259.351 43.956 259.951 43.806 260.479 43.506C261.019 43.194 261.439 42.756 261.739 42.192C262.039 41.628 262.189 40.986 262.189 40.266C262.189 39.546 262.039 38.904 261.739 38.34C261.439 37.776 261.019 37.344 260.479 37.044C259.951 36.732 259.351 36.576 258.679 36.576C258.007 36.576 257.401 36.732 256.861 37.044C256.333 37.344 255.913 37.776 255.601 38.34C255.301 38.904 255.151 39.546 255.151 40.266C255.151 40.986 255.301 41.628 255.601 42.192C255.913 42.756 256.333 43.194 256.861 43.506C257.401 43.806 258.007 43.956 258.679 43.956ZM270.919 35.46C272.107 35.46 273.049 35.808 273.745 36.504C274.453 37.188 274.807 38.19 274.807 39.51V45H273.529V39.636C273.529 38.652 273.283 37.902 272.791 37.386C272.299 36.87 271.597 36.612 270.685 36.612C269.665 36.612 268.855 36.918 268.255 37.53C267.667 38.13 267.373 38.964 267.373 40.032V45H266.095V35.532H267.319V37.278C267.667 36.702 268.147 36.258 268.759 35.946C269.383 35.622 270.103 35.46 270.919 35.46ZM280.814 45.09C280.046 45.09 279.308 44.982 278.6 44.766C277.904 44.538 277.358 44.256 276.962 43.92L277.538 42.912C277.934 43.224 278.432 43.482 279.032 43.686C279.632 43.878 280.256 43.974 280.904 43.974C281.768 43.974 282.404 43.842 282.812 43.578C283.232 43.302 283.442 42.918 283.442 42.426C283.442 42.078 283.328 41.808 283.1 41.616C282.872 41.412 282.584 41.262 282.236 41.166C281.888 41.058 281.426 40.956 280.85 40.86C280.082 40.716 279.464 40.572 278.996 40.428C278.528 40.272 278.126 40.014 277.79 39.654C277.466 39.294 277.304 38.796 277.304 38.16C277.304 37.368 277.634 36.72 278.294 36.216C278.954 35.712 279.872 35.46 281.048 35.46C281.66 35.46 282.272 35.544 282.884 35.712C283.496 35.868 284 36.078 284.396 36.342L283.838 37.368C283.058 36.828 282.128 36.558 281.048 36.558C280.232 36.558 279.614 36.702 279.194 36.99C278.786 37.278 278.582 37.656 278.582 38.124C278.582 38.484 278.696 38.772 278.924 38.988C279.164 39.204 279.458 39.366 279.806 39.474C280.154 39.57 280.634 39.672 281.246 39.78C282.002 39.924 282.608 40.068 283.064 40.212C283.52 40.356 283.91 40.602 284.234 40.95C284.558 41.298 284.72 41.778 284.72 42.39C284.72 43.218 284.372 43.878 283.676 44.37C282.992 44.85 282.038 45.09 280.814 45.09Z" fill="black"/>
<path d="M365.582 32.4V45H364.484L356.384 34.776V45H355.052V32.4H356.15L364.268 42.624V32.4H365.582ZM373.295 45.09C372.383 45.09 371.561 44.886 370.829 44.478C370.097 44.058 369.521 43.482 369.101 42.75C368.681 42.018 368.471 41.19 368.471 40.266C368.471 39.342 368.681 38.514 369.101 37.782C369.521 37.05 370.097 36.48 370.829 36.072C371.561 35.664 372.383 35.46 373.295 35.46C374.207 35.46 375.029 35.664 375.761 36.072C376.493 36.48 377.063 37.05 377.471 37.782C377.891 38.514 378.101 39.342 378.101 40.266C378.101 41.19 377.891 42.018 377.471 42.75C377.063 43.482 376.493 44.058 375.761 44.478C375.029 44.886 374.207 45.09 373.295 45.09ZM373.295 43.956C373.967 43.956 374.567 43.806 375.095 43.506C375.635 43.194 376.055 42.756 376.355 42.192C376.655 41.628 376.805 40.986 376.805 40.266C376.805 39.546 376.655 38.904 376.355 38.34C376.055 37.776 375.635 37.344 375.095 37.044C374.567 36.732 373.967 36.576 373.295 36.576C372.623 36.576 372.017 36.732 371.477 37.044C370.949 37.344 370.529 37.776 370.217 38.34C369.917 38.904 369.767 39.546 369.767 40.266C369.767 40.986 369.917 41.628 370.217 42.192C370.529 42.756 370.949 43.194 371.477 43.506C372.017 43.806 372.623 43.956 373.295 43.956ZM385.696 44.424C385.456 44.64 385.156 44.808 384.796 44.928C384.448 45.036 384.082 45.09 383.698 45.09C382.81 45.09 382.126 44.85 381.646 44.37C381.166 43.89 380.926 43.212 380.926 42.336V36.612H379.234V35.532H380.926V33.462H382.204V35.532H385.084V36.612H382.204V42.264C382.204 42.828 382.342 43.26 382.618 43.56C382.906 43.848 383.314 43.992 383.842 43.992C384.106 43.992 384.358 43.95 384.598 43.866C384.85 43.782 385.066 43.662 385.246 43.506L385.696 44.424ZM395.932 40.662H388.012C388.084 41.646 388.462 42.444 389.146 43.056C389.83 43.656 390.694 43.956 391.738 43.956C392.326 43.956 392.866 43.854 393.358 43.65C393.85 43.434 394.276 43.122 394.636 42.714L395.356 43.542C394.936 44.046 394.408 44.43 393.772 44.694C393.148 44.958 392.458 45.09 391.702 45.09C390.73 45.09 389.866 44.886 389.11 44.478C388.366 44.058 387.784 43.482 387.364 42.75C386.944 42.018 386.734 41.19 386.734 40.266C386.734 39.342 386.932 38.514 387.328 37.782C387.736 37.05 388.288 36.48 388.984 36.072C389.692 35.664 390.484 35.46 391.36 35.46C392.236 35.46 393.022 35.664 393.718 36.072C394.414 36.48 394.96 37.05 395.356 37.782C395.752 38.502 395.95 39.33 395.95 40.266L395.932 40.662ZM391.36 36.558C390.448 36.558 389.68 36.852 389.056 37.44C388.444 38.016 388.096 38.772 388.012 39.708H394.726C394.642 38.772 394.288 38.016 393.664 37.44C393.052 36.852 392.284 36.558 391.36 36.558ZM401.09 45.09C400.322 45.09 399.584 44.982 398.876 44.766C398.18 44.538 397.634 44.256 397.238 43.92L397.814 42.912C398.21 43.224 398.708 43.482 399.308 43.686C399.908 43.878 400.532 43.974 401.18 43.974C402.044 43.974 402.68 43.842 403.088 43.578C403.508 43.302 403.718 42.918 403.718 42.426C403.718 42.078 403.604 41.808 403.376 41.616C403.148 41.412 402.86 41.262 402.512 41.166C402.164 41.058 401.702 40.956 401.126 40.86C400.358 40.716 399.74 40.572 399.272 40.428C398.804 40.272 398.402 40.014 398.066 39.654C397.742 39.294 397.58 38.796 397.58 38.16C397.58 37.368 397.91 36.72 398.57 36.216C399.23 35.712 400.148 35.46 401.324 35.46C401.936 35.46 402.548 35.544 403.16 35.712C403.772 35.868 404.276 36.078 404.672 36.342L404.114 37.368C403.334 36.828 402.404 36.558 401.324 36.558C400.508 36.558 399.89 36.702 399.47 36.99C399.062 37.278 398.858 37.656 398.858 38.124C398.858 38.484 398.972 38.772 399.2 38.988C399.44 39.204 399.734 39.366 400.082 39.474C400.43 39.57 400.91 39.672 401.522 39.78C402.278 39.924 402.884 40.068 403.34 40.212C403.796 40.356 404.186 40.602 404.51 40.95C404.834 41.298 404.996 41.778 404.996 42.39C404.996 43.218 404.648 43.878 403.952 44.37C403.268 44.85 402.314 45.09 401.09 45.09Z" fill="black"/>
<circle cx="815" cy="37" r="8.25" fill="#F7F7F8" stroke="black" stroke-width="1.5"/>
<line x1="820.53" y1="42.4697" x2="829.53" y2="51.4697" stroke="black" stroke-width="1.5"/>
<rect y="79" width="1440" height="102" fill="url(#paint0_linear_506_737)"/>
<path d="M620.512 117.84V129.8H635.432V131.64H620.512V144H618.472V116H637.192V117.84H620.512ZM657.467 144.2C653.92 144.2 651.16 143.173 649.187 141.12C647.24 139.067 646.267 136.067 646.267 132.12V116H648.307V132.04C648.307 135.48 649.093 138.053 650.667 139.76C652.24 141.467 654.52 142.32 657.507 142.32C660.467 142.32 662.733 141.467 664.307 139.76C665.88 138.053 666.667 135.48 666.667 132.04V116H668.707V132.12C668.707 136.067 667.72 139.067 665.747 141.12C663.773 143.173 661.013 144.2 657.467 144.2ZM700.465 144L693.785 134.64C692.799 134.773 691.892 134.84 691.065 134.84H683.065V144H681.025V116H691.065C694.585 116 697.345 116.84 699.345 118.52C701.345 120.173 702.345 122.48 702.345 125.44C702.345 127.653 701.772 129.52 700.625 131.04C699.505 132.533 697.892 133.587 695.785 134.2L702.785 144H700.465ZM691.065 133.04C694.052 133.04 696.332 132.387 697.905 131.08C699.479 129.747 700.265 127.867 700.265 125.44C700.265 123.013 699.479 121.147 697.905 119.84C696.332 118.507 694.052 117.84 691.065 117.84H683.065V133.04H691.065ZM717.584 117.84H707.504V116H729.704V117.84H719.624V144H717.584V117.84ZM760.363 116V144H758.323V130.68H739.603V144H737.563V116H739.603V128.88H758.323V116H760.363ZM792.261 142.16V144H772.941V116H791.661V117.84H774.981V128.88H789.901V130.68H774.981V142.16H792.261ZM821.939 144L815.259 134.64C814.272 134.773 813.365 134.84 812.539 134.84H804.539V144H802.499V116H812.539C816.059 116 818.819 116.84 820.819 118.52C822.819 120.173 823.819 122.48 823.819 125.44C823.819 127.653 823.245 129.52 822.099 131.04C820.979 132.533 819.365 133.587 817.259 134.2L824.259 144H821.939ZM812.539 133.04C815.525 133.04 817.805 132.387 819.379 131.08C820.952 129.747 821.739 127.867 821.739 125.44C821.739 123.013 820.952 121.147 819.379 119.84C817.805 118.507 815.525 117.84 812.539 117.84H804.539V133.04H812.539Z" fill="white"/>
<rect x="212" y="388" width="1014" height="85" fill="url(#paint1_linear_506_737)"/>
<path d="M267.87 427.59L267.15 433.41H271.32V435.6H266.88L266.22 441H264.09L264.75 435.6H259.08L258.42 441H256.29L256.95 435.6H252.81V433.41H257.22L257.97 427.59H253.77V425.4H258.24L258.9 420H261.03L260.37 425.4H266.01L266.67 420H268.8L268.14 425.4H272.28V427.59H267.87ZM265.74 427.59H260.1L259.35 433.41H265.02L265.74 427.59ZM282.394 420V441H279.424V422.61H274.684V420H282.394Z" fill="white"/>
<path d="M675.023 438.135C673.997 438.135 673.034 437.901 672.134 437.433C671.252 436.947 670.541 436.281 670.001 435.435L670.838 434.517C671.36 435.291 671.972 435.885 672.674 436.299C673.394 436.695 674.177 436.893 675.023 436.893C676.283 436.893 677.219 436.533 677.831 435.813C678.461 435.075 678.776 433.95 678.776 432.438V420.342H671.81V419.1H680.153V432.438C680.153 434.328 679.721 435.75 678.857 436.704C677.993 437.658 676.715 438.135 675.023 438.135ZM692.876 438.108C691.544 438.108 690.338 437.802 689.258 437.19C688.196 436.578 687.359 435.732 686.747 434.652C686.135 433.554 685.829 432.321 685.829 430.953C685.829 429.585 686.135 428.361 686.747 427.281C687.359 426.183 688.196 425.328 689.258 424.716C690.338 424.104 691.544 423.798 692.876 423.798C694.208 423.798 695.405 424.104 696.467 424.716C697.547 425.328 698.393 426.183 699.005 427.281C699.617 428.361 699.923 429.585 699.923 430.953C699.923 432.321 699.617 433.554 699.005 434.652C698.393 435.732 697.547 436.578 696.467 437.19C695.405 437.802 694.208 438.108 692.876 438.108ZM692.876 436.893C693.956 436.893 694.919 436.641 695.765 436.137C696.629 435.633 697.304 434.931 697.79 434.031C698.294 433.131 698.546 432.105 698.546 430.953C698.546 429.801 698.294 428.775 697.79 427.875C697.304 426.975 696.629 426.273 695.765 425.769C694.919 425.265 693.956 425.013 692.876 425.013C691.796 425.013 690.824 425.265 689.96 425.769C689.114 426.273 688.439 426.975 687.935 427.875C687.449 428.775 687.206 429.801 687.206 430.953C687.206 432.105 687.449 433.131 687.935 434.031C688.439 434.931 689.114 435.633 689.96 436.137C690.824 436.641 691.796 436.893 692.876 436.893ZM708.89 438.108C707.756 438.108 706.676 437.937 705.65 437.595C704.624 437.253 703.823 436.821 703.247 436.299L703.868 435.219C704.444 435.705 705.182 436.11 706.082 436.434C707 436.758 707.954 436.92 708.944 436.92C710.366 436.92 711.41 436.686 712.076 436.218C712.76 435.75 713.102 435.102 713.102 434.274C713.102 433.68 712.913 433.212 712.535 432.87C712.175 432.528 711.725 432.276 711.185 432.114C710.645 431.952 709.898 431.781 708.944 431.601C707.828 431.403 706.928 431.187 706.244 430.953C705.56 430.719 704.975 430.341 704.489 429.819C704.003 429.297 703.76 428.577 703.76 427.659C703.76 426.543 704.219 425.625 705.137 424.905C706.073 424.167 707.396 423.798 709.106 423.798C710.006 423.798 710.897 423.924 711.779 424.176C712.661 424.428 713.381 424.761 713.939 425.175L713.318 426.255C712.742 425.841 712.085 425.526 711.347 425.31C710.609 425.094 709.853 424.986 709.079 424.986C707.765 424.986 706.775 425.229 706.109 425.715C705.443 426.201 705.11 426.84 705.11 427.632C705.11 428.262 705.299 428.757 705.677 429.117C706.055 429.459 706.514 429.72 707.054 429.9C707.612 430.062 708.386 430.242 709.376 430.44C710.474 430.638 711.356 430.854 712.022 431.088C712.706 431.304 713.282 431.664 713.75 432.168C714.218 432.672 714.452 433.365 714.452 434.247C714.452 435.417 713.966 436.353 712.994 437.055C712.022 437.757 710.654 438.108 708.89 438.108ZM726.319 423.798C728.083 423.798 729.478 424.311 730.504 425.337C731.53 426.363 732.043 427.839 732.043 429.765V438H730.693V429.873C730.693 428.289 730.288 427.083 729.478 426.255C728.686 425.427 727.57 425.013 726.13 425.013C724.474 425.013 723.169 425.508 722.215 426.498C721.261 427.488 720.784 428.82 720.784 430.494V438H719.434V417.966H720.784V426.849C721.27 425.877 721.99 425.13 722.944 424.608C723.898 424.068 725.023 423.798 726.319 423.798ZM751.155 423.906V438H749.859V434.976C749.391 435.966 748.698 436.74 747.78 437.298C746.862 437.838 745.782 438.108 744.54 438.108C742.704 438.108 741.264 437.595 740.22 436.569C739.176 435.543 738.654 434.067 738.654 432.141V423.906H740.004V432.033C740.004 433.617 740.409 434.823 741.219 435.651C742.029 436.479 743.172 436.893 744.648 436.893C746.232 436.893 747.483 436.398 748.401 435.408C749.337 434.418 749.805 433.086 749.805 431.412V423.906H751.155ZM762.845 423.798C764.591 423.798 765.932 424.248 766.868 425.148C767.804 426.03 768.272 427.335 768.272 429.063V438H766.976V435.489C766.526 436.317 765.869 436.965 765.005 437.433C764.141 437.883 763.106 438.108 761.9 438.108C760.334 438.108 759.092 437.739 758.174 437.001C757.274 436.263 756.824 435.291 756.824 434.085C756.824 432.915 757.238 431.97 758.066 431.25C758.912 430.512 760.253 430.143 762.089 430.143H766.922V429.009C766.922 427.695 766.562 426.696 765.842 426.012C765.14 425.328 764.105 424.986 762.737 424.986C761.801 424.986 760.901 425.148 760.037 425.472C759.191 425.796 758.471 426.228 757.877 426.768L757.202 425.796C757.904 425.166 758.75 424.68 759.74 424.338C760.73 423.978 761.765 423.798 762.845 423.798ZM762.089 437.001C763.259 437.001 764.249 436.731 765.059 436.191C765.887 435.651 766.508 434.868 766.922 433.842V431.196H762.116C760.73 431.196 759.722 431.448 759.092 431.952C758.48 432.456 758.174 433.149 758.174 434.031C758.174 434.949 758.516 435.678 759.2 436.218C759.884 436.74 760.847 437.001 762.089 437.001Z" fill="white"/>
<rect x="212" y="534" width="1014" height="85" fill="url(#paint2_linear_506_737)"/>
<path d="M682.221 574.685L677.982 579.032V584H676.605V565.1H677.982V577.25L689.781 565.1H691.455L683.139 573.686L692.022 584H690.348L682.221 574.685ZM700.755 569.798C702.501 569.798 703.842 570.248 704.778 571.148C705.714 572.03 706.182 573.335 706.182 575.063V584H704.886V581.489C704.436 582.317 703.779 582.965 702.915 583.433C702.051 583.883 701.016 584.108 699.81 584.108C698.244 584.108 697.002 583.739 696.084 583.001C695.184 582.263 694.734 581.291 694.734 580.085C694.734 578.915 695.148 577.97 695.976 577.25C696.822 576.512 698.163 576.143 699.999 576.143H704.832V575.009C704.832 573.695 704.472 572.696 703.752 572.012C703.05 571.328 702.015 570.986 700.647 570.986C699.711 570.986 698.811 571.148 697.947 571.472C697.101 571.796 696.381 572.228 695.787 572.768L695.112 571.796C695.814 571.166 696.66 570.68 697.65 570.338C698.64 569.978 699.675 569.798 700.755 569.798ZM699.999 583.001C701.169 583.001 702.159 582.731 702.969 582.191C703.797 581.651 704.418 580.868 704.832 579.842V577.196H700.026C698.64 577.196 697.632 577.448 697.002 577.952C696.39 578.456 696.084 579.149 696.084 580.031C696.084 580.949 696.426 581.678 697.11 582.218C697.794 582.74 698.757 583.001 699.999 583.001ZM714.255 572.984C714.687 571.958 715.362 571.175 716.28 570.635C717.198 570.077 718.314 569.798 719.628 569.798V571.121L719.304 571.094C717.738 571.094 716.514 571.589 715.632 572.579C714.75 573.551 714.309 574.91 714.309 576.656V584H712.959V569.906H714.255V572.984ZM732.189 583.109C731.847 583.433 731.415 583.685 730.893 583.865C730.389 584.027 729.858 584.108 729.3 584.108C728.076 584.108 727.131 583.775 726.465 583.109C725.799 582.425 725.466 581.48 725.466 580.274V571.067H722.874V569.906H725.466V566.828H726.816V569.906H731.298V571.067H726.816V580.139C726.816 581.057 727.032 581.759 727.464 582.245C727.914 582.713 728.571 582.947 729.435 582.947C730.317 582.947 731.046 582.686 731.622 582.164L732.189 583.109ZM744.053 569.798C745.817 569.798 747.212 570.311 748.238 571.337C749.264 572.363 749.777 573.839 749.777 575.765V584H748.427V575.873C748.427 574.289 748.022 573.083 747.212 572.255C746.42 571.427 745.304 571.013 743.864 571.013C742.208 571.013 740.903 571.508 739.949 572.498C738.995 573.488 738.518 574.82 738.518 576.494V584H737.168V563.966H738.518V572.849C739.004 571.877 739.724 571.13 740.678 570.608C741.632 570.068 742.757 569.798 744.053 569.798ZM767.6 569.906L760.364 585.917C759.824 587.159 759.194 588.041 758.474 588.563C757.772 589.085 756.935 589.346 755.963 589.346C755.315 589.346 754.703 589.238 754.127 589.022C753.569 588.806 753.092 588.491 752.696 588.077L753.371 587.051C754.091 587.789 754.964 588.158 755.99 588.158C756.674 588.158 757.259 587.969 757.745 587.591C758.231 587.213 758.681 586.565 759.095 585.647L759.851 583.946L753.506 569.906H754.937L760.58 582.515L766.223 569.906H767.6Z" fill="white"/>
<path d="M267.87 573.59L267.15 579.41H271.32V581.6H266.88L266.22 587H264.09L264.75 581.6H259.08L258.42 587H256.29L256.95 581.6H252.81V579.41H257.22L257.97 573.59H253.77V571.4H258.24L258.9 566H261.03L260.37 571.4H266.01L266.67 566H268.8L268.14 571.4H272.28V573.59H267.87ZM265.74 573.59H260.1L259.35 579.41H265.02L265.74 573.59ZM290.644 584.39V587H275.554V584.96L284.104 576.71C285.144 575.71 285.844 574.85 286.204 574.13C286.564 573.39 286.744 572.65 286.744 571.91C286.744 570.81 286.354 569.96 285.574 569.36C284.814 568.74 283.714 568.43 282.274 568.43C279.954 568.43 278.164 569.19 276.904 570.71L274.864 568.94C275.684 567.94 276.754 567.16 278.074 566.6C279.414 566.04 280.904 565.76 282.544 565.76C284.744 565.76 286.494 566.29 287.794 567.35C289.094 568.39 289.744 569.81 289.744 571.61C289.744 572.73 289.504 573.79 289.024 574.79C288.544 575.79 287.634 576.93 286.294 578.21L279.874 584.39H290.644Z" fill="white"/>
<rect x="213" y="680" width="1014" height="85" fill="url(#paint3_linear_506_737)"/>
<path d="M654.755 730.135C653.369 730.135 652.046 729.901 650.786 729.433C649.544 728.947 648.572 728.326 647.87 727.57L648.491 726.544C649.157 727.246 650.048 727.822 651.164 728.272C652.298 728.704 653.486 728.92 654.728 728.92C656.528 728.92 657.887 728.578 658.805 727.894C659.723 727.21 660.182 726.319 660.182 725.221C660.182 724.375 659.939 723.7 659.453 723.196C658.967 722.692 658.364 722.305 657.644 722.035C656.924 721.765 655.952 721.486 654.728 721.198C653.342 720.856 652.226 720.523 651.38 720.199C650.552 719.875 649.841 719.38 649.247 718.714C648.671 718.03 648.383 717.121 648.383 715.987C648.383 715.069 648.626 714.232 649.112 713.476C649.598 712.702 650.336 712.09 651.326 711.64C652.334 711.19 653.585 710.965 655.079 710.965C656.123 710.965 657.149 711.118 658.157 711.424C659.165 711.73 660.038 712.144 660.776 712.666L660.263 713.773C659.507 713.251 658.67 712.855 657.752 712.585C656.852 712.315 655.961 712.18 655.079 712.18C653.333 712.18 652.01 712.531 651.11 713.233C650.21 713.935 649.76 714.844 649.76 715.96C649.76 716.806 650.003 717.481 650.489 717.985C650.975 718.489 651.578 718.876 652.298 719.146C653.018 719.416 653.999 719.704 655.241 720.01C656.627 720.352 657.734 720.685 658.562 721.009C659.39 721.333 660.092 721.828 660.668 722.494C661.262 723.142 661.559 724.024 661.559 725.14C661.559 726.058 661.307 726.895 660.803 727.651C660.317 728.407 659.561 729.01 658.535 729.46C657.509 729.91 656.249 730.135 654.755 730.135ZM671.775 715.798C673.521 715.798 674.862 716.248 675.798 717.148C676.734 718.03 677.202 719.335 677.202 721.063V730H675.906V727.489C675.456 728.317 674.799 728.965 673.935 729.433C673.071 729.883 672.036 730.108 670.83 730.108C669.264 730.108 668.022 729.739 667.104 729.001C666.204 728.263 665.754 727.291 665.754 726.085C665.754 724.915 666.168 723.97 666.996 723.25C667.842 722.512 669.183 722.143 671.019 722.143H675.852V721.009C675.852 719.695 675.492 718.696 674.772 718.012C674.07 717.328 673.035 716.986 671.667 716.986C670.731 716.986 669.831 717.148 668.967 717.472C668.121 717.796 667.401 718.228 666.807 718.768L666.132 717.796C666.834 717.166 667.68 716.68 668.67 716.338C669.66 715.978 670.695 715.798 671.775 715.798ZM671.019 729.001C672.189 729.001 673.179 728.731 673.989 728.191C674.817 727.651 675.438 726.868 675.852 725.842V723.196H671.046C669.66 723.196 668.652 723.448 668.022 723.952C667.41 724.456 667.104 725.149 667.104 726.031C667.104 726.949 667.446 727.678 668.13 728.218C668.814 728.74 669.777 729.001 671.019 729.001ZM701.529 715.798C703.275 715.798 704.643 716.311 705.633 717.337C706.641 718.363 707.145 719.839 707.145 721.765V730H705.795V721.873C705.795 720.289 705.408 719.083 704.634 718.255C703.86 717.427 702.78 717.013 701.394 717.013C699.81 717.013 698.55 717.508 697.614 718.498C696.696 719.488 696.237 720.82 696.237 722.494V730H694.887V721.873C694.887 720.289 694.5 719.083 693.726 718.255C692.952 717.427 691.872 717.013 690.486 717.013C688.902 717.013 687.642 717.508 686.706 718.498C685.788 719.488 685.329 720.82 685.329 722.494V730H683.979V715.906H685.275V718.93C685.743 717.94 686.436 717.175 687.354 716.635C688.29 716.077 689.397 715.798 690.675 715.798C691.953 715.798 693.033 716.086 693.915 716.662C694.815 717.238 695.454 718.084 695.832 719.2C696.3 718.156 697.029 717.328 698.019 716.716C699.027 716.104 700.197 715.798 701.529 715.798ZM718.687 715.798C720.433 715.798 721.774 716.248 722.71 717.148C723.646 718.03 724.114 719.335 724.114 721.063V730H722.818V727.489C722.368 728.317 721.711 728.965 720.847 729.433C719.983 729.883 718.948 730.108 717.742 730.108C716.176 730.108 714.934 729.739 714.016 729.001C713.116 728.263 712.666 727.291 712.666 726.085C712.666 724.915 713.08 723.97 713.908 723.25C714.754 722.512 716.095 722.143 717.931 722.143H722.764V721.009C722.764 719.695 722.404 718.696 721.684 718.012C720.982 717.328 719.947 716.986 718.579 716.986C717.643 716.986 716.743 717.148 715.879 717.472C715.033 717.796 714.313 718.228 713.719 718.768L713.044 717.796C713.746 717.166 714.592 716.68 715.582 716.338C716.572 715.978 717.607 715.798 718.687 715.798ZM717.931 729.001C719.101 729.001 720.091 728.731 720.901 728.191C721.729 727.651 722.35 726.868 722.764 725.842V723.196H717.958C716.572 723.196 715.564 723.448 714.934 723.952C714.322 724.456 714.016 725.149 714.016 726.031C714.016 726.949 714.358 727.678 715.042 728.218C715.726 728.74 716.689 729.001 717.931 729.001ZM737.776 715.798C739.54 715.798 740.935 716.311 741.961 717.337C742.987 718.363 743.5 719.839 743.5 721.765V730H742.15V721.873C742.15 720.289 741.745 719.083 740.935 718.255C740.143 717.427 739.027 717.013 737.587 717.013C735.931 717.013 734.626 717.508 733.672 718.498C732.718 719.488 732.241 720.82 732.241 722.494V730H730.891V715.906H732.187V718.957C732.673 717.967 733.393 717.193 734.347 716.635C735.319 716.077 736.462 715.798 737.776 715.798ZM757.266 729.109C756.924 729.433 756.492 729.685 755.97 729.865C755.466 730.027 754.935 730.108 754.377 730.108C753.153 730.108 752.208 729.775 751.542 729.109C750.876 728.425 750.543 727.48 750.543 726.274V717.067H747.951V715.906H750.543V712.828H751.893V715.906H756.375V717.067H751.893V726.139C751.893 727.057 752.109 727.759 752.541 728.245C752.991 728.713 753.648 728.947 754.512 728.947C755.394 728.947 756.123 728.686 756.699 728.164L757.266 729.109ZM769.131 715.798C770.895 715.798 772.29 716.311 773.316 717.337C774.342 718.363 774.855 719.839 774.855 721.765V730H773.505V721.873C773.505 720.289 773.1 719.083 772.29 718.255C771.498 717.427 770.382 717.013 768.942 717.013C767.286 717.013 765.981 717.508 765.027 718.498C764.073 719.488 763.596 720.82 763.596 722.494V730H762.246V709.966H763.596V718.849C764.082 717.877 764.802 717.13 765.756 716.608C766.71 716.068 767.835 715.798 769.131 715.798ZM786.38 715.798C788.126 715.798 789.467 716.248 790.403 717.148C791.339 718.03 791.807 719.335 791.807 721.063V730H790.511V727.489C790.061 728.317 789.404 728.965 788.54 729.433C787.676 729.883 786.641 730.108 785.435 730.108C783.869 730.108 782.627 729.739 781.709 729.001C780.809 728.263 780.359 727.291 780.359 726.085C780.359 724.915 780.773 723.97 781.601 723.25C782.447 722.512 783.788 722.143 785.624 722.143H790.457V721.009C790.457 719.695 790.097 718.696 789.377 718.012C788.675 717.328 787.64 716.986 786.272 716.986C785.336 716.986 784.436 717.148 783.572 717.472C782.726 717.796 782.006 718.228 781.412 718.768L780.737 717.796C781.439 717.166 782.285 716.68 783.275 716.338C784.265 715.978 785.3 715.798 786.38 715.798ZM785.624 729.001C786.794 729.001 787.784 728.731 788.594 728.191C789.422 727.651 790.043 726.868 790.457 725.842V723.196H785.651C784.265 723.196 783.257 723.448 782.627 723.952C782.015 724.456 781.709 725.149 781.709 726.031C781.709 726.949 782.051 727.678 782.735 728.218C783.419 728.74 784.382 729.001 785.624 729.001Z" fill="white"/>
<path d="M267.87 719.59L267.15 725.41H271.32V727.6H266.88L266.22 733H264.09L264.75 727.6H259.08L258.42 733H256.29L256.95 727.6H252.81V725.41H257.22L257.97 719.59H253.77V717.4H258.24L258.9 712H261.03L260.37 717.4H266.01L266.67 712H268.8L268.14 717.4H272.28V719.59H267.87ZM265.74 719.59H260.1L259.35 725.41H265.02L265.74 719.59ZM283.924 720.82C285.984 721.02 287.554 721.66 288.634 722.74C289.714 723.8 290.254 725.16 290.254 726.82C290.254 728.02 289.954 729.11 289.354 730.09C288.754 731.05 287.854 731.82 286.654 732.4C285.474 732.96 284.024 733.24 282.304 733.24C280.804 733.24 279.364 733.02 277.984 732.58C276.604 732.12 275.474 731.49 274.594 730.69L275.974 728.32C276.694 729 277.614 729.55 278.734 729.97C279.854 730.37 281.044 730.57 282.304 730.57C283.864 730.57 285.074 730.24 285.934 729.58C286.814 728.92 287.254 728.01 287.254 726.85C287.254 725.69 286.824 724.79 285.964 724.15C285.104 723.51 283.804 723.19 282.064 723.19H280.384V721.09L285.664 714.61H275.554V712H289.414V714.04L283.924 720.82Z" fill="white"/>
<path d="M572.46 264.16V269H570.48V264.12L564.92 255H567.06L571.54 262.38L576.04 255H578.02L572.46 264.16ZM584.018 269.12C582.964 269.12 582.018 268.887 581.178 268.42C580.338 267.953 579.678 267.313 579.198 266.5C578.731 265.673 578.498 264.74 578.498 263.7C578.498 262.66 578.731 261.733 579.198 260.92C579.678 260.093 580.338 259.453 581.178 259C582.018 258.533 582.964 258.3 584.018 258.3C585.071 258.3 586.011 258.533 586.838 259C587.678 259.453 588.331 260.093 588.798 260.92C589.278 261.733 589.518 262.66 589.518 263.7C589.518 264.74 589.278 265.673 588.798 266.5C588.331 267.313 587.678 267.953 586.838 268.42C586.011 268.887 585.071 269.12 584.018 269.12ZM584.018 267.44C584.698 267.44 585.304 267.287 585.838 266.98C586.384 266.66 586.811 266.22 587.118 265.66C587.424 265.087 587.578 264.433 587.578 263.7C587.578 262.967 587.424 262.32 587.118 261.76C586.811 261.187 586.384 260.747 585.838 260.44C585.304 260.133 584.698 259.98 584.018 259.98C583.338 259.98 582.724 260.133 582.178 260.44C581.644 260.747 581.218 261.187 580.898 261.76C580.591 262.32 580.438 262.967 580.438 263.7C580.438 264.433 580.591 265.087 580.898 265.66C581.218 266.22 581.644 266.66 582.178 266.98C582.724 267.287 583.338 267.44 584.018 267.44ZM602.953 258.4V269H601.133V267.4C600.746 267.947 600.233 268.373 599.593 268.68C598.966 268.973 598.28 269.12 597.533 269.12C596.12 269.12 595.006 268.733 594.193 267.96C593.38 267.173 592.973 266.02 592.973 264.5V258.4H594.893V264.28C594.893 265.307 595.14 266.087 595.633 266.62C596.126 267.14 596.833 267.4 597.753 267.4C598.766 267.4 599.566 267.093 600.153 266.48C600.74 265.867 601.033 265 601.033 263.88V258.4H602.953ZM609.348 260.18C609.682 259.567 610.175 259.1 610.828 258.78C611.482 258.46 612.275 258.3 613.208 258.3V260.16C613.102 260.147 612.955 260.14 612.768 260.14C611.728 260.14 610.908 260.453 610.308 261.08C609.722 261.693 609.428 262.573 609.428 263.72V269H607.508V258.4H609.348V260.18ZM628.503 258.3C629.529 258.3 630.449 258.527 631.263 258.98C632.076 259.433 632.709 260.067 633.163 260.88C633.629 261.693 633.863 262.633 633.863 263.7C633.863 264.767 633.629 265.713 633.163 266.54C632.709 267.353 632.076 267.987 631.263 268.44C630.449 268.893 629.529 269.12 628.503 269.12C627.743 269.12 627.043 268.973 626.403 268.68C625.776 268.387 625.243 267.96 624.803 267.4V272.88H622.883V258.4H624.723V260.08C625.149 259.493 625.689 259.053 626.342 258.76C626.996 258.453 627.716 258.3 628.503 258.3ZM628.343 267.44C629.023 267.44 629.629 267.287 630.163 266.98C630.709 266.66 631.136 266.22 631.443 265.66C631.763 265.087 631.923 264.433 631.923 263.7C631.923 262.967 631.763 262.32 631.443 261.76C631.136 261.187 630.709 260.747 630.163 260.44C629.629 260.133 629.023 259.98 628.343 259.98C627.676 259.98 627.069 260.14 626.523 260.46C625.989 260.767 625.563 261.2 625.243 261.76C624.936 262.32 624.783 262.967 624.783 263.7C624.783 264.433 624.936 265.087 625.243 265.66C625.549 266.22 625.976 266.66 626.523 266.98C627.069 267.287 627.676 267.44 628.343 267.44ZM639.255 260.18C639.589 259.567 640.082 259.1 640.735 258.78C641.389 258.46 642.182 258.3 643.115 258.3V260.16C643.009 260.147 642.862 260.14 642.675 260.14C641.635 260.14 640.815 260.453 640.215 261.08C639.629 261.693 639.335 262.573 639.335 263.72V269H637.415V258.4H639.255V260.18ZM655.864 263.76C655.864 263.907 655.851 264.1 655.824 264.34H647.224C647.344 265.273 647.751 266.027 648.444 266.6C649.151 267.16 650.024 267.44 651.064 267.44C652.331 267.44 653.351 267.013 654.124 266.16L655.184 267.4C654.704 267.96 654.104 268.387 653.384 268.68C652.677 268.973 651.884 269.12 651.004 269.12C649.884 269.12 648.891 268.893 648.024 268.44C647.157 267.973 646.484 267.327 646.004 266.5C645.537 265.673 645.304 264.74 645.304 263.7C645.304 262.673 645.531 261.747 645.984 260.92C646.451 260.093 647.084 259.453 647.884 259C648.697 258.533 649.611 258.3 650.624 258.3C651.637 258.3 652.537 258.533 653.324 259C654.124 259.453 654.744 260.093 655.184 260.92C655.637 261.747 655.864 262.693 655.864 263.76ZM650.624 259.92C649.704 259.92 648.931 260.2 648.304 260.76C647.691 261.32 647.331 262.053 647.224 262.96H654.024C653.917 262.067 653.551 261.34 652.924 260.78C652.311 260.207 651.544 259.92 650.624 259.92ZM669.43 254.16V269H667.59V267.32C667.163 267.907 666.623 268.353 665.97 268.66C665.317 268.967 664.597 269.12 663.81 269.12C662.783 269.12 661.863 268.893 661.05 268.44C660.237 267.987 659.597 267.353 659.13 266.54C658.677 265.713 658.45 264.767 658.45 263.7C658.45 262.633 658.677 261.693 659.13 260.88C659.597 260.067 660.237 259.433 661.05 258.98C661.863 258.527 662.783 258.3 663.81 258.3C664.57 258.3 665.27 258.447 665.91 258.74C666.55 259.02 667.083 259.44 667.51 260V254.16H669.43ZM663.97 267.44C664.637 267.44 665.243 267.287 665.79 266.98C666.337 266.66 666.763 266.22 667.07 265.66C667.377 265.087 667.53 264.433 667.53 263.7C667.53 262.967 667.377 262.32 667.07 261.76C666.763 261.187 666.337 260.747 665.79 260.44C665.243 260.133 664.637 259.98 663.97 259.98C663.29 259.98 662.677 260.133 662.13 260.44C661.597 260.747 661.17 261.187 660.85 261.76C660.543 262.32 660.39 262.967 660.39 263.7C660.39 264.433 660.543 265.087 660.85 265.66C661.17 266.22 661.597 266.66 662.13 266.98C662.677 267.287 663.29 267.44 663.97 267.44ZM673.963 258.4H675.883V269H673.963V258.4ZM674.923 256.36C674.55 256.36 674.236 256.24 673.983 256C673.743 255.76 673.623 255.467 673.623 255.12C673.623 254.773 673.743 254.48 673.983 254.24C674.236 253.987 674.55 253.86 674.923 253.86C675.296 253.86 675.603 253.98 675.843 254.22C676.096 254.447 676.223 254.733 676.223 255.08C676.223 255.44 676.096 255.747 675.843 256C675.603 256.24 675.296 256.36 674.923 256.36ZM685.069 269.12C683.989 269.12 683.022 268.887 682.169 268.42C681.329 267.953 680.669 267.313 680.189 266.5C679.709 265.673 679.469 264.74 679.469 263.7C679.469 262.66 679.709 261.733 680.189 260.92C680.669 260.093 681.329 259.453 682.169 259C683.022 258.533 683.989 258.3 685.069 258.3C686.029 258.3 686.882 258.493 687.629 258.88C688.389 259.267 688.976 259.827 689.389 260.56L687.929 261.5C687.596 260.993 687.182 260.613 686.689 260.36C686.196 260.107 685.649 259.98 685.049 259.98C684.356 259.98 683.729 260.133 683.169 260.44C682.622 260.747 682.189 261.187 681.869 261.76C681.562 262.32 681.409 262.967 681.409 263.7C681.409 264.447 681.562 265.107 681.869 265.68C682.189 266.24 682.622 266.673 683.169 266.98C683.729 267.287 684.356 267.44 685.049 267.44C685.649 267.44 686.196 267.313 686.689 267.06C687.182 266.807 687.596 266.427 687.929 265.92L689.389 266.84C688.976 267.573 688.389 268.14 687.629 268.54C686.882 268.927 686.029 269.12 685.069 269.12ZM698.871 268.38C698.591 268.62 698.245 268.807 697.831 268.94C697.418 269.06 696.991 269.12 696.551 269.12C695.485 269.12 694.658 268.833 694.071 268.26C693.485 267.687 693.191 266.867 693.191 265.8V259.98H691.391V258.4H693.191V256.08H695.111V258.4H698.151V259.98H695.111V265.72C695.111 266.293 695.251 266.733 695.531 267.04C695.825 267.347 696.238 267.5 696.771 267.5C697.358 267.5 697.858 267.333 698.271 267L698.871 268.38ZM711.321 263.76C711.321 263.907 711.308 264.1 711.281 264.34H702.681C702.801 265.273 703.208 266.027 703.901 266.6C704.608 267.16 705.481 267.44 706.521 267.44C707.788 267.44 708.808 267.013 709.581 266.16L710.641 267.4C710.161 267.96 709.561 268.387 708.841 268.68C708.134 268.973 707.341 269.12 706.461 269.12C705.341 269.12 704.348 268.893 703.481 268.44C702.614 267.973 701.941 267.327 701.461 266.5C700.994 265.673 700.761 264.74 700.761 263.7C700.761 262.673 700.988 261.747 701.441 260.92C701.908 260.093 702.541 259.453 703.341 259C704.154 258.533 705.068 258.3 706.081 258.3C707.094 258.3 707.994 258.533 708.781 259C709.581 259.453 710.201 260.093 710.641 260.92C711.094 261.747 711.321 262.693 711.321 263.76ZM706.081 259.92C705.161 259.92 704.388 260.2 703.761 260.76C703.148 261.32 702.788 262.053 702.681 262.96H709.481C709.374 262.067 709.008 261.34 708.381 260.78C707.768 260.207 707.001 259.92 706.081 259.92ZM724.887 254.16V269H723.047V267.32C722.621 267.907 722.081 268.353 721.427 268.66C720.774 268.967 720.054 269.12 719.267 269.12C718.241 269.12 717.321 268.893 716.507 268.44C715.694 267.987 715.054 267.353 714.587 266.54C714.134 265.713 713.907 264.767 713.907 263.7C713.907 262.633 714.134 261.693 714.587 260.88C715.054 260.067 715.694 259.433 716.507 258.98C717.321 258.527 718.241 258.3 719.267 258.3C720.027 258.3 720.727 258.447 721.367 258.74C722.007 259.02 722.541 259.44 722.967 260V254.16H724.887ZM719.427 267.44C720.094 267.44 720.701 267.287 721.247 266.98C721.794 266.66 722.221 266.22 722.527 265.66C722.834 265.087 722.987 264.433 722.987 263.7C722.987 262.967 722.834 262.32 722.527 261.76C722.221 261.187 721.794 260.747 721.247 260.44C720.701 260.133 720.094 259.98 719.427 259.98C718.747 259.98 718.134 260.133 717.587 260.44C717.054 260.747 716.627 261.187 716.307 261.76C716.001 262.32 715.847 262.967 715.847 263.7C715.847 264.433 716.001 265.087 716.307 265.66C716.627 266.22 717.054 266.66 717.587 266.98C718.134 267.287 718.747 267.44 719.427 267.44ZM738.731 269.12C737.864 269.12 737.031 269.007 736.231 268.78C735.431 268.54 734.804 268.24 734.351 267.88L735.151 266.36C735.618 266.693 736.184 266.96 736.851 267.16C737.518 267.36 738.191 267.46 738.871 267.46C740.551 267.46 741.391 266.98 741.391 266.02C741.391 265.7 741.278 265.447 741.051 265.26C740.824 265.073 740.538 264.94 740.191 264.86C739.858 264.767 739.378 264.667 738.751 264.56C737.898 264.427 737.198 264.273 736.651 264.1C736.118 263.927 735.658 263.633 735.271 263.22C734.884 262.807 734.691 262.227 734.691 261.48C734.691 260.52 735.091 259.753 735.891 259.18C736.691 258.593 737.764 258.3 739.111 258.3C739.818 258.3 740.524 258.387 741.231 258.56C741.938 258.733 742.518 258.967 742.971 259.26L742.151 260.78C741.284 260.22 740.264 259.94 739.091 259.94C738.278 259.94 737.658 260.073 737.231 260.34C736.804 260.607 736.591 260.96 736.591 261.4C736.591 261.747 736.711 262.02 736.951 262.22C737.191 262.42 737.484 262.567 737.831 262.66C738.191 262.753 738.691 262.86 739.331 262.98C740.184 263.127 740.871 263.287 741.391 263.46C741.924 263.62 742.378 263.9 742.751 264.3C743.124 264.7 743.311 265.26 743.311 265.98C743.311 266.94 742.898 267.707 742.071 268.28C741.258 268.84 740.144 269.12 738.731 269.12ZM752.571 268.38C752.291 268.62 751.944 268.807 751.531 268.94C751.117 269.06 750.691 269.12 750.251 269.12C749.184 269.12 748.357 268.833 747.771 268.26C747.184 267.687 746.891 266.867 746.891 265.8V259.98H745.091V258.4H746.891V256.08H748.811V258.4H751.851V259.98H748.811V265.72C748.811 266.293 748.951 266.733 749.231 267.04C749.524 267.347 749.937 267.5 750.471 267.5C751.057 267.5 751.557 267.333 751.971 267L752.571 268.38ZM765.672 258.4V269H763.852V267.4C763.465 267.947 762.952 268.373 762.312 268.68C761.685 268.973 760.999 269.12 760.252 269.12C758.839 269.12 757.725 268.733 756.912 267.96C756.099 267.173 755.692 266.02 755.692 264.5V258.4H757.612V264.28C757.612 265.307 757.859 266.087 758.352 266.62C758.845 267.14 759.552 267.4 760.472 267.4C761.485 267.4 762.285 267.093 762.872 266.48C763.459 265.867 763.752 265 763.752 263.88V258.4H765.672ZM780.227 254.16V269H778.387V267.32C777.96 267.907 777.42 268.353 776.767 268.66C776.114 268.967 775.394 269.12 774.607 269.12C773.58 269.12 772.66 268.893 771.847 268.44C771.034 267.987 770.394 267.353 769.927 266.54C769.474 265.713 769.247 264.767 769.247 263.7C769.247 262.633 769.474 261.693 769.927 260.88C770.394 260.067 771.034 259.433 771.847 258.98C772.66 258.527 773.58 258.3 774.607 258.3C775.367 258.3 776.067 258.447 776.707 258.74C777.347 259.02 777.88 259.44 778.307 260V254.16H780.227ZM774.767 267.44C775.434 267.44 776.04 267.287 776.587 266.98C777.134 266.66 777.56 266.22 777.867 265.66C778.174 265.087 778.327 264.433 778.327 263.7C778.327 262.967 778.174 262.32 777.867 261.76C777.56 261.187 777.134 260.747 776.587 260.44C776.04 260.133 775.434 259.98 774.767 259.98C774.087 259.98 773.474 260.133 772.927 260.44C772.394 260.747 771.967 261.187 771.647 261.76C771.34 262.32 771.187 262.967 771.187 263.7C771.187 264.433 771.34 265.087 771.647 265.66C771.967 266.22 772.394 266.66 772.927 266.98C773.474 267.287 774.087 267.44 774.767 267.44ZM794.14 258.4L789 270.06C788.547 271.14 788.013 271.9 787.4 272.34C786.8 272.78 786.073 273 785.22 273C784.7 273 784.193 272.913 783.7 272.74C783.22 272.58 782.82 272.34 782.5 272.02L783.32 270.58C783.867 271.1 784.5 271.36 785.22 271.36C785.687 271.36 786.073 271.233 786.38 270.98C786.7 270.74 786.987 270.32 787.24 269.72L787.58 268.98L782.9 258.4H784.9L788.6 266.88L792.26 258.4H794.14ZM806.143 269.12C805.276 269.12 804.443 269.007 803.643 268.78C802.843 268.54 802.216 268.24 801.763 267.88L802.563 266.36C803.029 266.693 803.596 266.96 804.263 267.16C804.929 267.36 805.603 267.46 806.283 267.46C807.963 267.46 808.803 266.98 808.803 266.02C808.803 265.7 808.689 265.447 808.463 265.26C808.236 265.073 807.949 264.94 807.603 264.86C807.269 264.767 806.789 264.667 806.163 264.56C805.309 264.427 804.609 264.273 804.063 264.1C803.529 263.927 803.069 263.633 802.683 263.22C802.296 262.807 802.103 262.227 802.103 261.48C802.103 260.52 802.503 259.753 803.303 259.18C804.103 258.593 805.176 258.3 806.523 258.3C807.229 258.3 807.936 258.387 808.643 258.56C809.349 258.733 809.929 258.967 810.383 259.26L809.563 260.78C808.696 260.22 807.676 259.94 806.503 259.94C805.689 259.94 805.069 260.073 804.643 260.34C804.216 260.607 804.003 260.96 804.003 261.4C804.003 261.747 804.123 262.02 804.363 262.22C804.603 262.42 804.896 262.567 805.243 262.66C805.603 262.753 806.103 262.86 806.743 262.98C807.596 263.127 808.283 263.287 808.803 263.46C809.336 263.62 809.789 263.9 810.163 264.3C810.536 264.7 810.723 265.26 810.723 265.98C810.723 266.94 810.309 267.707 809.483 268.28C808.669 268.84 807.556 269.12 806.143 269.12ZM818.642 269.12C817.562 269.12 816.596 268.887 815.742 268.42C814.902 267.953 814.242 267.313 813.762 266.5C813.282 265.673 813.042 264.74 813.042 263.7C813.042 262.66 813.282 261.733 813.762 260.92C814.242 260.093 814.902 259.453 815.742 259C816.596 258.533 817.562 258.3 818.642 258.3C819.602 258.3 820.456 258.493 821.202 258.88C821.962 259.267 822.549 259.827 822.962 260.56L821.502 261.5C821.169 260.993 820.756 260.613 820.262 260.36C819.769 260.107 819.222 259.98 818.622 259.98C817.929 259.98 817.302 260.133 816.742 260.44C816.196 260.747 815.762 261.187 815.442 261.76C815.136 262.32 814.982 262.967 814.982 263.7C814.982 264.447 815.136 265.107 815.442 265.68C815.762 266.24 816.196 266.673 816.742 266.98C817.302 267.287 817.929 267.44 818.622 267.44C819.222 267.44 819.769 267.313 820.262 267.06C820.756 266.807 821.169 266.427 821.502 265.92L822.962 266.84C822.549 267.573 821.962 268.14 821.202 268.54C820.456 268.927 819.602 269.12 818.642 269.12ZM830.732 269.12C829.679 269.12 828.732 268.887 827.892 268.42C827.052 267.953 826.392 267.313 825.912 266.5C825.445 265.673 825.212 264.74 825.212 263.7C825.212 262.66 825.445 261.733 825.912 260.92C826.392 260.093 827.052 259.453 827.892 259C828.732 258.533 829.679 258.3 830.732 258.3C831.785 258.3 832.725 258.533 833.552 259C834.392 259.453 835.045 260.093 835.512 260.92C835.992 261.733 836.232 262.66 836.232 263.7C836.232 264.74 835.992 265.673 835.512 266.5C835.045 267.313 834.392 267.953 833.552 268.42C832.725 268.887 831.785 269.12 830.732 269.12ZM830.732 267.44C831.412 267.44 832.019 267.287 832.552 266.98C833.099 266.66 833.525 266.22 833.832 265.66C834.139 265.087 834.292 264.433 834.292 263.7C834.292 262.967 834.139 262.32 833.832 261.76C833.525 261.187 833.099 260.747 832.552 260.44C832.019 260.133 831.412 259.98 830.732 259.98C830.052 259.98 829.439 260.133 828.892 260.44C828.359 260.747 827.932 261.187 827.612 261.76C827.305 262.32 827.152 262.967 827.152 263.7C827.152 264.433 827.305 265.087 827.612 265.66C827.932 266.22 828.359 266.66 828.892 266.98C829.439 267.287 830.052 267.44 830.732 267.44ZM841.627 260.18C841.961 259.567 842.454 259.1 843.107 258.78C843.761 258.46 844.554 258.3 845.487 258.3V260.16C845.381 260.147 845.234 260.14 845.047 260.14C844.007 260.14 843.187 260.453 842.587 261.08C842.001 261.693 841.707 262.573 841.707 263.72V269H839.787V258.4H841.627V260.18ZM858.236 263.76C858.236 263.907 858.223 264.1 858.196 264.34H849.596C849.716 265.273 850.123 266.027 850.816 266.6C851.523 267.16 852.396 267.44 853.436 267.44C854.703 267.44 855.723 267.013 856.496 266.16L857.556 267.4C857.076 267.96 856.476 268.387 855.756 268.68C855.049 268.973 854.256 269.12 853.376 269.12C852.256 269.12 851.263 268.893 850.396 268.44C849.529 267.973 848.856 267.327 848.376 266.5C847.909 265.673 847.676 264.74 847.676 263.7C847.676 262.673 847.903 261.747 848.356 260.92C848.823 260.093 849.456 259.453 850.256 259C851.069 258.533 851.983 258.3 852.996 258.3C854.009 258.3 854.909 258.533 855.696 259C856.496 259.453 857.116 260.093 857.556 260.92C858.009 261.747 858.236 262.693 858.236 263.76ZM852.996 259.92C852.076 259.92 851.303 260.2 850.676 260.76C850.063 261.32 849.703 262.053 849.596 262.96H856.396C856.289 262.067 855.923 261.34 855.296 260.78C854.683 260.207 853.916 259.92 852.996 259.92ZM862.262 261.04C861.889 261.04 861.569 260.913 861.302 260.66C861.035 260.393 860.902 260.06 860.902 259.66C860.902 259.273 861.035 258.953 861.302 258.7C861.569 258.433 861.889 258.3 862.262 258.3C862.635 258.3 862.949 258.427 863.202 258.68C863.455 258.933 863.582 259.26 863.582 259.66C863.582 260.06 863.449 260.393 863.182 260.66C862.929 260.913 862.622 261.04 862.262 261.04ZM862.262 269.12C861.889 269.12 861.569 268.993 861.302 268.74C861.035 268.473 860.902 268.14 860.902 267.74C860.902 267.353 861.035 267.033 861.302 266.78C861.569 266.513 861.889 266.38 862.262 266.38C862.635 266.38 862.949 266.507 863.202 266.76C863.455 267.013 863.582 267.34 863.582 267.74C863.582 268.14 863.449 268.473 863.182 268.74C862.929 268.993 862.622 269.12 862.262 269.12Z" fill="#383838"/>
<path d="M720.71 319.84H716.72V325H713.81V319.84H702.14V317.74L712.88 304H716.12L705.83 317.26H713.9V312.7H716.72V317.26H720.71V319.84ZM729.77 312.37C732.77 312.37 734.97 312.94 736.37 314.08C737.79 315.2 738.5 316.74 738.5 318.7C738.5 319.94 738.2 321.06 737.6 322.06C737.02 323.04 736.13 323.82 734.93 324.4C733.75 324.96 732.29 325.24 730.55 325.24C729.07 325.24 727.64 325.02 726.26 324.58C724.88 324.12 723.74 323.49 722.84 322.69L724.22 320.32C724.94 321 725.86 321.55 726.98 321.97C728.1 322.37 729.28 322.57 730.52 322.57C732.1 322.57 733.32 322.24 734.18 321.58C735.06 320.9 735.5 319.98 735.5 318.82C735.5 317.56 735.02 316.61 734.06 315.97C733.1 315.31 731.46 314.98 729.14 314.98H724.37L725.48 304H737.33V306.61H728L727.43 312.37H729.77Z" fill="#373737"/>
</g>
<rect x="0.5" y="0.5" width="1439" height="890" stroke="black"/>
<defs>
<linearGradient id="paint0_linear_506_737" x1="0" y1="130" x2="1440" y2="130" gradientUnits="userSpaceOnUse">
<stop stop-color="#5FA9ED"/>
<stop offset="0.510417" stop-color="#9DC9E9"/>
<stop offset="1" stop-color="#488DA3"/>
</linearGradient>
<linearGradient id="paint1_linear_506_737" x1="212" y1="430" x2="1226" y2="430" gradientUnits="userSpaceOnUse">
<stop stop-color="#0F0233"/>
<stop offset="1" stop-color="#3E1567"/>
</linearGradient>
<linearGradient id="paint2_linear_506_737" x1="212" y1="576" x2="1226" y2="576" gradientUnits="userSpaceOnUse">
<stop stop-color="#B03621"/>
<stop offset="1" stop-color="#E0943F"/>
</linearGradient>
<linearGradient id="paint3_linear_506_737" x1="213" y1="722" x2="1227" y2="722" gradientUnits="userSpaceOnUse">
<stop stop-color="#211D59"/>
<stop offset="1" stop-color="#526CD9"/>
</linearGradient>
<clipPath id="clip0_506_737">
<rect width="1440" height="891" fill="white"/>
</clipPath>
</defs>
</svg>
