<svg width="541" height="539" viewBox="0 0 541 539" fill="none" xmlns="http://www.w3.org/2000/svg">
<path d="M287.396 54.3896C218.93 -20.3042 87.1942 -11.3256 21.4789 40.6352C-50.0055 97.1427 -6.02975 153.612 -132.875 324.892C-194.006 407.418 -179.373 528.38 -13.6711 534.264C159.022 540.377 450.653 567.847 470.788 341.703C484.542 187.348 371.451 146.085 287.396 54.3896Z" fill="#FC9F5B"/>
<path d="M28.5847 212.22C28.5847 212.22 38.9005 208.782 46.5418 198.275C54.1831 187.768 60.1051 182.878 64.3078 183.374C75.3877 184.673 88.1869 218.295 98.6937 219.289L66.0271 260.59L28.5847 212.22Z" fill="#1A1A1A"/>
<path d="M67.4819 261.048L226.841 57.4457C227.223 56.949 227.147 56.223 226.65 55.841C226.154 55.4589 225.428 55.5353 225.046 56.032L65.9919 259.176L-93.0237 56.032C-93.4058 55.5353 -94.1317 55.4589 -94.6284 55.841C-95.1251 56.223 -95.2015 56.949 -94.8194 57.4457L64.54 261.048L-94.8194 464.651C-95.2015 465.148 -95.1251 465.874 -94.6284 466.256C-94.4373 466.408 -94.1699 466.485 -93.9407 466.485C-93.5968 466.485 -93.2529 466.332 -93.0237 466.026L65.9919 262.882L225.007 466.026C225.237 466.332 225.581 466.485 225.924 466.485C226.154 466.485 226.421 466.408 226.612 466.256C227.109 465.874 227.185 465.148 226.803 464.651L67.4819 261.048Z" fill="white"/>
<path d="M-46.4883 458.003C-46.4883 458.003 -43.6228 451.164 -35.2174 445.28C-26.8119 439.396 -18.4065 430.609 -14.7769 422.05C-11.1472 413.492 -0.640434 391.753 9.67533 382.965C19.9911 374.178 30.6889 365.39 35.4647 353.89C40.2406 342.39 57.6245 309.188 65.8389 309.417C74.0533 309.647 70.6148 322.14 78.4471 326.037C86.2794 329.934 92.3925 340.938 96.5952 350.451C100.798 359.965 109.585 379.297 118.946 382.201C128.307 385.105 136.33 398.324 143.398 413.951C150.466 429.577 164.985 432.519 177.402 458.156L-46.4883 458.003Z" fill="#1A1A1A"/>
<path d="M65.8076 274.613C65.7312 274.613 65.6165 274.613 65.5401 274.575C65.4637 274.537 65.3873 274.537 65.3109 274.46C65.2345 274.422 65.1581 274.384 65.0816 274.307C65.0052 274.231 64.9288 274.193 64.8906 274.116C64.6232 273.811 64.5085 273.352 64.5085 272.894C64.5085 272.435 64.6614 272.015 64.8906 271.671C64.967 271.595 65.0052 271.518 65.0816 271.442C65.1581 271.366 65.2345 271.327 65.3109 271.289C65.3873 271.251 65.4637 271.213 65.5401 271.175C65.7312 271.136 65.884 271.136 66.075 271.175C66.1514 271.213 66.266 271.251 66.3424 271.289C66.4189 271.327 66.4953 271.404 66.5717 271.442C66.6481 271.518 66.7245 271.595 66.7627 271.671C67.0302 271.977 67.1448 272.435 67.1448 272.894C67.1448 273.352 66.992 273.773 66.7627 274.116C66.6863 274.193 66.6481 274.269 66.5717 274.307C66.4953 274.384 66.4189 274.422 66.3424 274.46C66.266 274.499 66.1896 274.537 66.075 274.575C65.9986 274.613 65.9222 274.613 65.8076 274.613Z" fill="#1A1A1A"/>
<path d="M65.7888 289.361C65.1393 289.361 64.6426 288.711 64.6426 287.909V285.807C64.6426 285.005 65.1393 284.356 65.7888 284.356C66.4383 284.356 66.935 285.005 66.935 285.807V287.909C66.935 288.711 66.4383 289.361 65.7888 289.361Z" fill="#1A1A1A"/>
<path d="M65.7888 302.542C65.1393 302.542 64.6426 301.892 64.6426 301.09V296.199C64.6426 295.397 65.1393 294.748 65.7888 294.748C66.4383 294.748 66.935 295.397 66.935 296.199V301.09C66.935 301.892 66.4383 302.542 65.7888 302.542Z" fill="#1A1A1A"/>
<path d="M218.051 456.514H-92.8735C-104.87 456.514 -114.613 466.257 -114.613 478.254V488.569C-114.613 489.295 -114.04 489.868 -113.314 489.868H238.568C239.294 489.868 239.867 489.295 239.867 488.569V478.254C239.829 466.295 230.048 456.514 218.051 456.514Z" fill="#1A1A1A"/>
<path d="M113.974 489.448C99.2649 481.692 74.125 472.829 37.9816 474.586C-4.54226 476.687 -27.6572 484.711 -37.6291 489.295C-38.2022 489.563 -38.4696 490.251 -38.2022 490.824C-37.9348 491.397 -37.247 491.664 -36.6739 491.397C-26.8167 486.85 -4.00734 478.98 38.0963 476.878C73.743 475.121 98.4626 483.832 112.943 491.473C113.096 491.55 113.287 491.588 113.478 491.588C113.898 491.588 114.28 491.359 114.509 490.977C114.739 490.442 114.548 489.716 113.974 489.448Z" fill="#FC9F5B"/>
<path d="M241.438 470.344C241.132 469.77 240.445 469.579 239.872 469.885L238.725 470.496C221.074 479.933 202.849 489.714 177.06 479.284C152.34 469.312 142.789 467.172 113.293 464.956C104.773 464.307 98.6984 461.441 95.0688 456.436H177.901C178.55 456.436 179.047 455.94 179.047 455.29C179.047 454.641 178.55 454.144 177.901 454.144H-43.6209C-44.2704 454.144 -44.7671 454.641 -44.7671 455.29C-44.7671 455.94 -44.2704 456.436 -43.6209 456.436H15.37C11.5111 466.217 -8.16527 472.063 -41.7106 473.438C-61.2724 474.241 -85.4571 473.476 -111.743 471.299C-112.393 471.26 -112.928 471.719 -112.966 472.33C-113.004 472.98 -112.546 473.515 -111.934 473.553C-92.4489 475.196 -74.0715 475.998 -57.872 475.998C-52.1792 475.998 -46.7539 475.883 -41.6342 475.692C-5.75826 474.241 14.262 467.745 17.8152 456.398H36.0779C36.0397 457.43 36.3071 458.347 36.8802 459.149C39.058 462.167 45.171 462.893 54.417 463.925C64.6564 465.109 78.6782 466.714 92.4325 472.559C105.155 477.985 119.024 479.551 131.212 480.965C145.616 482.608 156.963 483.945 160.249 490.669C160.44 491.09 160.86 491.319 161.281 491.319C161.434 491.319 161.625 491.281 161.777 491.204C162.35 490.937 162.58 490.249 162.312 489.676C158.492 481.805 146.571 480.43 131.48 478.673C119.445 477.297 105.767 475.692 93.3495 470.42C79.2895 464.46 65.0767 462.817 54.7227 461.632C46.6993 460.715 40.3952 459.99 38.7906 457.774C38.5995 457.506 38.3703 457.086 38.4085 456.36H92.3943C96.2532 462.779 103.245 466.408 113.179 467.134C142.368 469.312 151.805 471.452 176.258 481.309C183.899 484.404 191.349 485.932 198.799 485.932C203.04 485.932 207.281 485.435 211.56 484.442C221.876 482.035 231.046 477.144 239.872 472.407L241.018 471.795C241.514 471.566 241.744 470.878 241.438 470.344Z" fill="#FC9F5B"/>
<path d="M176.796 468.586C176.796 472.98 187.38 475.272 197.81 475.272C208.24 475.272 218.824 472.98 218.824 468.586C218.824 464.193 208.24 461.9 197.81 461.9C187.341 461.9 176.796 464.193 176.796 468.586ZM197.81 464.193C209.921 464.193 216.531 467.096 216.531 468.586C216.531 470.076 209.921 472.98 197.81 472.98C185.699 472.98 179.089 470.076 179.089 468.586C179.089 467.096 185.699 464.193 197.81 464.193Z" fill="#FECE2F"/>
<path d="M114.745 29.6695H79.5949C78.869 29.6695 78.2959 29.0964 78.2959 28.3705C78.2959 27.6446 78.869 27.0715 79.5949 27.0715H114.745C115.471 27.0715 116.044 27.6446 116.044 28.3705C116.044 29.0964 115.471 29.6695 114.745 29.6695Z" fill="#FECE2F"/>
<path d="M164.516 397.598C170.553 389.307 174.488 375.973 174.488 360.958C174.488 346.134 170.668 332.953 164.746 324.662C164.746 324.662 155.385 342.237 155.767 364.206C156.149 386.174 164.516 397.598 164.516 397.598Z" fill="white"/>
<path d="M340.953 257.535C334.993 258.834 330.408 263.572 329.3 269.57L312.298 360.96L321.086 357.025L336.254 263.801L340.953 257.535Z" fill="white"/>
<path d="M155.575 432.977C167.686 426.749 201.919 413.033 201.919 413.033L190.992 412.154C166.273 407.302 155.346 395.076 154.811 365.542C154.314 336.009 171.354 311.786 171.354 311.786C171.354 311.786 193.399 305.253 217.508 314.957C239.591 323.859 248.264 326.725 254.797 339.524C256.478 338.072 252.581 345.828 242.418 344.758L240.011 350.107C240.011 350.107 267.329 353.125 267.138 352.361C266.947 351.597 275.047 353.316 275.047 353.316L283.338 333.564L290.291 320.459L294.112 276.521C294.112 276.521 277.759 276.139 270.997 265.556C264.234 254.973 262.591 244.428 262.591 244.428C262.591 244.428 240.928 245.765 226.181 252.833C211.395 259.901 202.492 265.441 188.853 274.496C175.213 283.551 162.108 300.477 149.615 316.906C137.121 333.334 124.284 365.542 121.227 376.126C118.171 386.709 109.765 417.121 107.664 444.248C107.664 444.248 106.136 464.879 106.9 468.509C106.862 468.509 124.628 448.833 155.575 432.977Z" fill="white"/>
<path d="M283.455 310.411C283.264 310.411 283.073 310.373 282.881 310.259C278.526 307.737 275.928 302.999 276.042 297.994C276.157 294.326 277.685 290.926 280.36 288.404C283.034 285.883 286.549 284.546 290.179 284.66C290.828 284.66 291.325 285.195 291.287 285.845C291.287 286.456 290.752 286.953 290.141 286.953H290.103C287.046 286.876 284.142 287.984 281.888 290.085C279.672 292.187 278.373 295.014 278.297 298.109C278.182 302.312 280.36 306.209 283.989 308.348C284.524 308.654 284.715 309.38 284.41 309.915C284.257 310.182 283.875 310.411 283.455 310.411Z" fill="#FC9F5B"/>
<path d="M235.927 278.126C224.503 278.126 215.066 269.186 214.455 257.762C214.416 257.112 214.913 256.578 215.525 256.539C216.174 256.501 216.709 256.998 216.747 257.609C217.282 267.81 225.687 275.795 235.927 275.795C246.51 275.795 255.107 267.199 255.107 256.616C255.107 252.719 253.922 248.936 251.744 245.727C251.4 245.192 251.515 244.504 252.05 244.122C252.585 243.778 253.273 243.893 253.655 244.428C256.138 248.019 257.437 252.222 257.437 256.616C257.399 268.46 247.771 278.126 235.927 278.126Z" fill="#FC9F5B"/>
<path d="M225.879 318.244C225.23 318.244 224.733 317.748 224.733 317.098C224.733 305.713 233.979 296.467 245.365 296.467C254.496 296.467 262.443 302.35 265.117 311.061C265.309 311.673 264.965 312.322 264.353 312.475C263.742 312.666 263.093 312.322 262.94 311.711C260.571 303.955 253.503 298.721 245.403 298.721C235.278 298.721 227.064 306.935 227.064 317.06C227.026 317.709 226.529 318.244 225.879 318.244Z" fill="#FC9F5B"/>
<path d="M213.876 314.535C213.761 314.535 213.685 314.535 213.57 314.497C212.959 314.344 212.615 313.695 212.768 313.083C213.112 311.861 213.265 310.6 213.265 309.339C213.265 301.583 206.961 295.317 199.243 295.317C191.487 295.317 185.221 301.622 185.221 309.339C185.221 309.989 184.724 310.485 184.075 310.485C183.425 310.485 182.929 309.989 182.929 309.339C182.929 300.323 190.264 293.025 199.243 293.025C208.26 293.025 215.557 300.361 215.557 309.339C215.557 310.829 215.366 312.281 214.984 313.695C214.831 314.23 214.373 314.535 213.876 314.535Z" fill="#FC9F5B"/>
<path d="M162.489 416.244C152.364 416.244 144.112 407.991 144.112 397.866C144.112 390.454 148.506 383.806 155.345 380.941C155.918 380.712 156.605 380.979 156.835 381.552C157.064 382.125 156.796 382.813 156.223 383.042C150.263 385.564 146.404 391.371 146.404 397.866C146.404 406.73 153.625 413.951 162.489 413.951C167.876 413.951 172.843 411.277 175.861 406.807C176.205 406.272 176.931 406.157 177.466 406.501C178.001 406.845 178.116 407.571 177.772 408.106C174.333 413.187 168.602 416.244 162.489 416.244Z" fill="#FC9F5B"/>
<path d="M138.154 444.325C137.734 444.325 137.314 444.096 137.123 443.676C132.691 434.43 123.215 428.431 112.976 428.431C112.021 428.431 111.028 428.469 110.072 428.584C109.461 428.66 108.888 428.202 108.812 427.552C108.735 426.941 109.194 426.368 109.843 426.292C110.875 426.177 111.944 426.139 113.014 426.139C124.132 426.139 134.448 432.634 139.224 442.682C139.491 443.255 139.262 443.943 138.689 444.211C138.498 444.325 138.345 444.325 138.154 444.325Z" fill="#FC9F5B"/>
<path d="M120.997 390.452C120.004 390.452 119.011 390.414 118.017 390.3C117.406 390.223 116.947 389.688 116.986 389.039C117.062 388.427 117.635 387.969 118.246 388.007C119.163 388.084 120.08 388.16 120.997 388.16C135.516 388.16 147.36 376.316 147.36 361.797C147.36 353.01 143.004 344.872 135.745 339.943C135.21 339.599 135.096 338.874 135.439 338.339C135.783 337.804 136.509 337.689 137.044 338.033C144.953 343.382 149.69 352.246 149.69 361.797C149.652 377.577 136.815 390.452 120.997 390.452Z" fill="#FC9F5B"/>
<path d="M504.977 463.352L495.999 461.594L316.237 436.225C316.237 436.225 319.675 431.678 293.275 456.895C266.874 482.111 247.198 487.689 247.198 487.689L499.819 488.53C506.009 483.104 505.627 468.777 504.977 463.352Z" fill="#FC9F5B"/>
<path d="M305.692 445.852L506.124 467.974L504.978 463.389L316.237 436.262C314.098 438.249 308.061 444.095 305.692 445.852Z" fill="white"/>
<path d="M540.468 435.653C536.686 433.322 529.579 437.143 518.729 447.344C517.009 448.949 515.366 450.592 513.8 452.196C514.067 451.547 514.335 450.897 514.564 450.248C516.245 445.434 516.589 440.849 515.443 438.289C514.679 436.532 513.189 435.653 511.393 435.959C509.1 436.341 507.381 438.671 506.197 443.065C505.318 438.327 503.675 434.621 501.421 433.322C500.504 432.787 498.67 432.214 496.607 434.163C491.182 439.244 499.014 455.597 502.3 461.863L454.351 454.985C454.274 454.985 454.159 454.985 454.083 454.985L316.387 435.118C315.775 435.042 315.164 435.462 315.088 436.073C315.05 436.264 315.088 436.455 315.126 436.608C311.114 441.422 304.39 446.771 300.34 450.859C276.041 475.273 251.894 485.207 245.972 487.423H242.266C241.617 487.423 241.12 487.919 241.12 488.569C241.12 489.219 241.617 489.715 242.266 489.715H499.778L523.084 489.906C523.581 489.906 524.039 489.601 524.192 489.104L540.927 436.952C541.118 436.455 540.927 435.92 540.468 435.653ZM498.212 435.768C498.823 435.194 499.281 435.042 499.625 435.042C499.931 435.042 500.16 435.156 500.313 435.233C503.408 437.028 506.006 448.414 503.904 459.838C499.396 451.165 494.811 438.977 498.212 435.768ZM330.943 475.197C323.302 474.051 308.325 467.25 307.332 455.635C306.415 444.44 313.292 438.748 315.584 437.181C315.737 437.258 315.89 437.334 316.043 437.372L462.527 458.5C462.565 458.5 462.641 458.5 462.68 458.5C462.718 458.5 462.756 458.5 462.794 458.5L494.849 463.085C495.117 465.607 495.881 476.954 490.914 487.423H358.261C359.063 481.539 350.582 478.177 330.943 475.197ZM499.32 487.423H493.512C498.021 477.26 497.562 466.868 497.256 463.391L503.752 464.308C503.866 464.384 503.981 464.461 504.095 464.537C504.898 467.746 507.037 479.323 499.32 487.423ZM506.808 455.024C506.808 454.833 506.846 454.603 506.846 454.412C507.419 446.504 508.948 438.633 511.775 438.175C511.89 438.175 512.004 438.136 512.119 438.136C512.577 438.136 512.998 438.327 513.341 439.13C514.87 442.645 512.615 453.113 506.617 459.226C506.655 457.889 506.693 456.437 506.808 455.024Z" fill="#1A1A1A"/>
<path d="M425.204 461.212L434.794 470.993C435.558 471.451 441.48 474.699 451.07 471.795C459.017 469.388 460.66 466.446 461.004 465.415C459.284 463.581 452.216 455.901 442.588 445.471C435.482 454.335 427.879 459.531 425.204 461.212Z" fill="#FECE2F"/>
<path d="M450.336 452.082L403.456 401.573C403.456 401.573 361.926 350.872 345.879 351.637C329.832 352.401 320.166 358.017 320.166 358.017L270.001 382.469L241.231 400.044C241.231 400.044 223.121 412.041 202.49 412.614C202.49 412.614 177.923 422.433 152.516 435.232C127.108 448.032 119.276 456.628 119.276 456.628C119.276 456.628 122.18 468.128 128.522 478.329C132.839 485.283 139.793 490.135 147.778 491.931C156.413 493.841 169.823 496.095 183.463 495.637C210.972 494.72 229.922 491.893 229.922 491.893L253.457 485.092L278.597 470.841L334.685 418.078L402.921 469.007L424.737 462.053L434.633 472.407L449.457 474.623L462.982 465.874L454.195 456.017" fill="#FC9F5B"/>
<path d="M360.981 358.666C360.981 358.666 360.981 358.628 360.981 358.666C355.135 354.272 349.786 351.483 345.927 351.674C341.801 351.865 338.095 352.4 334.886 353.05C330.606 353.164 328.085 354.693 327.665 354.96C322.851 356.526 320.214 358.055 320.214 358.055L270.049 382.507C275.971 384.914 282.619 384.723 288.388 381.972C299.315 376.814 317.884 368.065 331.027 361.875C340.082 357.596 350.894 359.583 357.848 366.766L438.158 449.712L443.201 444.669C443.163 444.707 376.875 370.93 360.981 358.666Z" fill="white"/>
<path d="M184.964 419.567C184.849 419.262 184.62 419.032 184.353 418.918C184.085 418.803 183.741 418.803 183.474 418.918L181.22 419.873C180.723 420.102 180.456 420.599 180.532 421.134C180.608 421.439 186.339 453.609 171.859 460.907C171.439 461.098 171.21 461.518 171.248 461.977C171.248 462.435 171.553 462.817 171.974 463.008L179.5 466.065C179.653 466.103 179.806 466.141 179.921 466.141C180.226 466.141 180.494 466.026 180.723 465.797C186.034 460.525 188.861 453.151 189.167 443.943C189.549 431.45 185.155 420.064 184.964 419.567Z" fill="#1A1A1A"/>
<path d="M419.245 463.466L344.283 383.347C338.934 377.654 329.994 377.004 323.881 381.856C310.814 392.249 285.14 412.345 260.153 430.188C229.931 451.774 209.644 463.695 199.939 465.682C193.75 466.942 187.637 466.255 181.906 464.574C186.452 459.416 188.897 452.5 189.165 444.019C189.585 431.487 185.191 420.101 185 419.605C184.771 419.031 184.122 418.726 183.51 418.955C182.937 419.184 182.632 419.834 182.861 420.445C182.899 420.56 187.293 431.907 186.872 443.942C186.605 452.309 184.122 458.995 179.499 463.809C173.042 461.517 167.196 458.04 162.573 454.716C152.487 447.495 145.724 439.434 145.648 439.357C145.227 438.861 144.501 438.822 144.043 439.204C143.546 439.625 143.508 440.351 143.89 440.809C144.158 441.153 150.882 449.138 161.198 456.512C172.354 464.497 183.357 468.624 193.444 468.624C195.813 468.624 198.143 468.394 200.398 467.936C223.321 463.275 295.417 407.455 325.333 383.69C330.529 379.564 338.132 380.137 342.64 384.951L417.602 465.07C418.022 465.529 418.748 465.567 419.206 465.108C419.627 464.65 419.665 463.924 419.245 463.466Z" fill="white"/>
<path d="M443.162 444.709C443.162 444.709 437.354 459.419 427.421 464.653L424.784 462.093C424.746 462.131 438.157 453.917 443.162 444.709Z" fill="#1A1A1A"/>
<path d="M520.221 463.886C519.686 462.969 518.502 462.663 517.623 463.198C516.706 463.733 516.4 464.917 516.935 465.796C519.266 469.731 521.94 474.278 524.959 479.359L526.525 474.507C524.195 470.648 522.093 467.057 520.221 463.886Z" fill="#FC9F5B"/>
<path d="M528.053 460.18C526.372 457.467 524.768 454.907 523.316 452.118C522.819 451.201 521.673 450.819 520.718 451.316C519.801 451.813 519.419 452.959 519.915 453.914C521.444 456.818 523.163 459.568 524.806 462.205C526.028 464.191 527.289 466.216 528.474 468.318L530.04 463.427C529.391 462.319 528.741 461.25 528.053 460.18Z" fill="#FC9F5B"/>
<path d="M338.572 217.466C338.748 215.617 335.995 213.844 332.424 213.505C328.853 213.165 325.816 214.389 325.641 216.237C325.465 218.086 328.218 219.859 331.789 220.199C335.36 220.538 338.397 219.314 338.572 217.466Z" fill="white"/>
<path d="M337.516 213.939C336.217 213.099 334.422 212.526 332.511 212.373C328.156 211.953 324.717 213.557 324.488 216.117C324.373 217.454 325.137 218.753 326.666 219.709C327.965 220.549 329.76 221.122 331.671 221.275C332.129 221.313 332.588 221.351 333.008 221.351C336.714 221.351 339.503 219.823 339.694 217.531C339.847 216.232 339.045 214.933 337.516 213.939ZM331.9 219.021C330.372 218.868 328.92 218.409 327.926 217.798C327.162 217.301 326.742 216.767 326.78 216.346C326.857 215.544 328.576 214.627 331.212 214.627C331.556 214.627 331.938 214.627 332.32 214.665C332.435 214.665 332.511 214.703 332.626 214.703C331.862 215.162 331.365 215.773 331.289 216.499C331.212 217.454 331.9 218.371 333.084 219.097C332.702 219.059 332.32 219.059 331.9 219.021Z" fill="#1A1A1A"/>
<path d="M313.141 216.079L312.071 212.03C312.262 211.838 312.415 211.647 312.606 211.495C313.064 211.036 313.064 210.31 312.606 209.89C312.147 209.431 311.421 209.431 311.001 209.89C307.524 213.367 307.448 213.596 307.333 213.902C307.142 214.513 307.448 215.162 308.059 215.353C308.174 215.392 308.288 215.43 308.403 215.43C308.785 215.43 309.167 215.201 309.396 214.857C309.511 214.704 309.817 214.398 310.199 213.978L310.925 216.691C311.077 217.187 311.536 217.531 312.033 217.531C312.147 217.531 312.224 217.531 312.338 217.493C312.95 217.34 313.332 216.691 313.141 216.079Z" fill="#1A1A1A"/>
<path d="M486.522 473.859C479.072 470.229 473.379 467.86 469.406 466.332C472.424 466.218 475.672 465.606 478.843 464.422C483.619 462.664 487.401 460.028 488.7 457.545C489.579 455.825 489.311 454.144 487.974 452.96C486.255 451.432 483.351 451.584 479.187 453.418C482.32 449.75 484.115 446.121 483.733 443.561C483.58 442.529 482.854 440.734 480.065 440.352C472.424 439.32 464.363 456.972 461.879 462.932C451.678 451.89 381.034 375.362 366.401 361.264C354.519 349.802 339.465 347.739 322.922 355.304C322.616 355.457 322.234 355.61 321.852 355.801L337.097 264.602C337.402 264.296 337.746 263.952 338.166 263.57C340.268 261.583 343.439 258.603 345.12 254.362C347.183 249.09 347.069 245.078 344.661 242.06C343.095 240.073 341.338 239.271 340.077 239.003C341.032 236.902 341.796 234.571 342.369 232.088C342.637 231.744 343.821 231.018 344.7 230.521C346.839 229.261 349.514 227.656 350.966 225.363C351.462 224.561 351.424 223.835 351.271 223.377C350.775 221.734 348.559 220.702 346.228 219.632C345.082 219.098 343.21 218.257 342.942 217.76C342.522 208.973 340.497 201.637 339.274 197.855C341.987 193.843 343.668 189.602 344.05 185.59C344.509 180.547 342.828 176.344 339.16 173.403C334.384 169.582 327.774 169.238 320.018 172.333C316.274 173.861 313.103 175.81 311.345 176.994C311.269 177.07 311.231 177.109 311.154 177.185L303.704 182.534C303.513 182.687 303.284 182.763 303.055 182.763C302.711 182.763 302.329 182.61 302.138 182.266C301.756 181.77 301.87 181.044 302.405 180.662L307.563 176.956C303.246 176.115 298.814 176.459 294.687 178.026C292.395 178.904 290.217 180.165 288.154 181.808L285.059 177.491C284.677 176.994 283.989 176.841 283.455 177.223C282.958 177.605 282.805 178.293 283.187 178.828L286.397 183.336C285.976 183.718 285.594 184.1 285.174 184.521L280.933 184.253C280.322 184.215 279.749 184.712 279.71 185.323C279.672 185.973 280.169 186.507 280.78 186.546L283.302 186.698C281.85 188.532 280.513 190.557 279.328 192.811C275.66 199.841 274.323 206.528 275.393 212.717C276.31 218.028 278.793 221.963 280.857 224.829C281.162 225.249 281.468 225.631 281.85 226.051L262.823 242.9C260.645 242.938 250.941 243.359 236.843 247.714C222.362 252.184 200.432 261.889 178.043 282.559C156.303 302.617 138.155 330.202 125.471 362.41C112.327 395.765 105.68 432.787 106.253 469.465C106.253 469.847 106.291 472.369 108.316 474.356C109.921 475.96 112.289 476.724 115.346 476.724C115.69 476.724 116.034 476.724 116.416 476.686C120.771 476.533 123.369 475.349 124.668 474.508C128.642 481.5 133.15 486.429 138.041 489.141C148.165 494.758 164.938 496.592 182.437 496.592C193.86 496.592 205.59 495.828 215.982 494.796C229.316 493.497 242.344 490.135 254.609 484.824C266.911 479.475 278.22 472.292 288.269 463.39C291.44 460.563 294.687 457.621 297.935 454.564C320.668 433.131 332.13 422.242 334.919 419.567L362.848 440.504C362.924 440.581 363.001 440.619 363.115 440.657L402.009 469.732C402.239 469.885 402.506 469.962 402.774 469.962C403.194 469.924 413.013 469.121 424.055 463.161L432.88 472.14L428.716 488.186C428.639 488.53 428.716 488.912 428.907 489.18C429.098 489.447 429.442 489.638 429.824 489.638H499.933C500.238 489.638 500.544 489.524 500.773 489.256C501.003 489.027 501.117 488.721 501.079 488.377C500.964 488.148 500.2 480.507 486.522 473.859ZM342.751 243.512C344.623 245.88 344.661 249.052 342.866 253.56C341.376 257.342 338.434 260.131 336.485 261.965C335.95 262.5 335.454 262.92 335.072 263.341C334.919 263.494 334.804 263.723 334.766 263.914L319.216 357.023C316.121 358.513 311.88 360.576 307.143 362.869C307.104 362.792 307.028 362.754 306.952 362.716C306.57 362.449 297.4 355.839 284.677 353.737C282.614 353.394 280.054 353.012 277.227 352.668C278.793 350.146 282.079 343.04 291.02 322.79C291.86 320.88 292.662 319.008 293.426 317.288C294.878 314.003 296.712 309.8 298.814 304.986C306.264 287.908 320.133 256.082 322.081 254.171C323.648 252.872 324.641 251.764 324.947 251.038C325.062 251.038 325.176 251.038 325.291 251.038C325.367 251.879 325.482 252.375 325.482 252.375C325.52 252.528 325.596 252.681 325.673 252.834C326.169 253.483 326.743 253.636 327.125 253.636C327.201 253.636 327.316 253.636 327.354 253.636C328.003 253.522 328.577 253.101 329.111 252.184C329.188 253.292 329.341 253.98 329.341 254.018C329.379 254.171 329.455 254.324 329.532 254.477C330.028 255.126 330.601 255.279 330.984 255.279C331.098 255.279 331.213 255.279 331.289 255.241C332.168 255.05 333.008 254.286 334.04 251.611C334.307 252.643 334.69 253.216 334.766 253.331C335.301 254.057 335.912 254.209 336.371 254.209C336.485 254.209 336.6 254.209 336.715 254.171C338.357 253.827 339.274 251.344 340.612 246.262C340.688 245.919 340.764 245.613 340.841 245.384C340.994 244.772 340.65 244.161 340.038 243.97C339.427 243.817 338.816 244.161 338.625 244.772C338.548 245.04 338.472 245.345 338.396 245.689C338.09 246.912 337.211 250.274 336.485 251.535C336.18 250.694 335.645 248.44 336.906 244.429C336.944 244.314 336.944 244.199 336.944 244.046C337.593 243.168 338.205 242.213 338.778 241.181C339.656 241.257 341.261 241.601 342.751 243.512ZM232.181 366.002C232.181 366.04 232.181 366.078 232.181 366.116C232.181 366.155 232.181 366.155 232.22 366.193C232.22 366.231 232.258 366.269 232.258 366.307C232.258 366.346 232.296 366.346 232.296 366.384C232.296 366.422 232.334 366.46 232.334 366.498C232.334 366.537 232.372 366.537 232.372 366.575C232.411 366.613 232.411 366.651 232.449 366.689C232.487 366.728 232.487 366.728 232.525 366.766C232.564 366.804 232.602 366.804 232.602 366.842C232.64 366.881 232.64 366.88 232.678 366.88L232.716 366.919C232.716 366.919 232.755 366.919 232.755 366.957C232.793 366.957 232.793 366.995 232.831 366.995C232.869 366.995 232.907 367.033 232.946 367.033C232.984 367.033 232.984 367.033 233.022 367.072C233.098 367.11 233.213 367.11 233.289 367.11C233.366 367.11 233.442 367.11 233.519 367.072H233.557C233.633 367.072 233.71 367.033 233.786 366.995C233.786 366.995 233.786 366.995 233.824 366.995C233.901 366.957 233.939 366.919 234.015 366.88C234.015 366.88 234.054 366.881 234.054 366.842C234.13 366.804 234.168 366.728 234.206 366.689C234.321 366.575 244.751 353.623 261.562 353.126C269.968 354.043 278.908 355.151 284.333 356.03C294.42 357.711 302.367 362.449 304.812 364.091C289.186 371.733 269.777 381.399 269.471 381.514C269.471 381.514 269.471 381.514 269.433 381.514C269.395 381.514 269.395 381.514 269.356 381.552L244.064 397.025C240.243 399.28 236.499 401.381 233.251 403.062C228.093 405.354 218.427 409.175 208.455 410.933C200.737 411.964 191.874 411.888 183.162 408.946C173.725 405.431 168.109 399.891 168.033 399.815C167.918 399.7 167.803 399.623 167.651 399.585C161.232 392.937 157.449 383.348 156.685 371.389C155.654 355.915 159.78 337.844 168.568 319.122C169.523 317.097 170.478 315.149 171.433 313.238C171.586 313.162 183.736 306.438 210.48 314.155C210.939 314.308 211.397 314.461 211.856 314.614C227.52 320.077 237.225 327.451 244.293 337.767L239.288 349.267C239.135 349.382 238.982 349.535 238.906 349.764L232.22 365.543C232.181 365.62 232.181 365.696 232.143 365.734C232.143 365.773 232.143 365.772 232.143 365.811C232.143 365.849 232.143 365.925 232.143 365.964C232.181 365.925 232.181 365.964 232.181 366.002ZM292.395 314.003L295.795 276.446L301.908 263.646C301.947 263.57 301.985 263.532 302.023 263.455L310.008 246.683C313.638 248.517 318.108 250.274 322.311 250.809C321.967 251.191 321.47 251.688 320.668 252.337C318.872 253.866 311.193 270.944 296.75 303.993C295.108 307.775 293.656 311.137 292.395 314.003ZM331.442 249.166C331.939 248.899 332.397 248.593 332.856 248.249C332.283 250.121 331.824 251.267 331.48 251.955C331.442 251.229 331.404 250.274 331.442 249.166ZM283.34 227.694C286.32 230.292 290.332 232.05 294.649 232.05C296.942 232.05 299.349 231.553 301.717 230.445C303.704 229.49 305.385 228.42 306.722 227.236C309.168 225.058 309.511 221.314 307.525 218.716C305.882 216.614 305.347 213.978 306.073 211.533C306.608 209.622 307.869 208.094 309.282 207.559C310.581 207.063 311.842 207.063 312.797 207.521C313.6 207.903 314.211 208.629 314.555 209.622C315.09 211.265 316.236 212.526 317.802 213.137C319.178 213.672 320.706 213.672 321.814 213.061C328.156 209.699 333.582 205.114 337.479 200.109C338.663 204.082 340.191 210.463 340.573 217.875C340.65 219.556 342.751 220.549 345.196 221.657C346.304 222.154 348.902 223.377 349.017 223.988C349.017 223.988 349.017 224.026 348.979 224.103C347.833 225.937 345.426 227.388 343.477 228.535C341.605 229.643 340.344 230.407 340.115 231.515C339.771 233.043 339.351 234.495 338.854 235.87L329.684 237.36C329.073 237.475 328.653 238.048 328.729 238.659C328.806 239.232 329.302 239.615 329.876 239.615C329.952 239.615 329.99 239.615 330.067 239.615L337.823 238.354C335.033 244.39 330.64 248.211 325.787 248.593C318.948 249.128 309.779 244.085 305.729 241.563L303.589 240.188C303.551 240.149 303.475 240.111 303.437 240.111H303.398C303.36 240.073 303.284 240.073 303.246 240.073C303.207 240.073 303.207 240.073 303.169 240.073C303.131 240.073 303.093 240.073 303.016 240.073C302.978 240.073 302.978 240.073 302.94 240.073C302.902 240.073 302.825 240.073 302.787 240.073H302.749C302.672 240.073 302.634 240.111 302.558 240.111C302.558 240.111 302.52 240.111 302.52 240.149C302.481 240.188 302.443 240.188 302.367 240.226C302.329 240.226 302.329 240.264 302.29 240.264L302.252 240.302C302.214 240.302 302.214 240.34 302.214 240.34L302.176 240.379C302.138 240.417 302.099 240.493 302.061 240.531C302.023 240.57 301.985 240.646 301.947 240.722C301.947 240.761 301.947 240.761 301.908 240.799C301.908 240.837 301.87 240.875 301.87 240.914C301.87 240.952 301.87 240.952 301.87 240.99C301.87 241.028 301.87 241.105 301.87 241.143V241.181C301.87 241.257 301.87 241.334 301.87 241.372V241.41C301.87 241.448 301.87 241.487 301.908 241.525C301.947 241.601 304.736 250.618 300.189 262.156L294 275.07C293.235 275.147 291.631 275.185 289.415 274.765C286.473 274.191 281.812 272.663 276.348 268.499C266.911 261.354 264.81 247.409 264.428 244.467L283.34 227.694ZM212.505 260.552C212.581 260.513 212.658 260.437 212.734 260.399C222.095 255.356 230.539 252.07 237.339 249.968C249.986 246.033 259.193 245.345 262.174 245.231C262.67 249.204 265.077 262.921 274.935 270.371C283.034 276.522 289.568 277.439 292.815 277.439C292.93 277.439 293.044 277.439 293.121 277.439L269.395 351.636C266.873 351.33 264.313 351.063 261.792 350.757C253.233 349.802 245.248 349 242.153 348.694L243.682 345.179C244.064 345.217 244.675 345.217 245.439 345.217C246.089 345.217 246.815 345.179 247.617 345.141C250.903 344.874 253.195 343.957 254.456 342.428C254.838 341.97 255.067 341.435 255.22 340.824C255.258 340.747 255.335 340.671 255.335 340.556L271.458 296.198C271.687 295.587 271.381 294.938 270.77 294.747C270.159 294.517 269.509 294.823 269.318 295.434L254.456 336.392C252.431 332.342 245.745 324.815 223.967 316.18C195.503 304.91 179.342 307.928 173.267 309.991C183.048 291.155 192.447 279.235 198.942 272.243C206.927 263.608 212.429 260.552 212.505 260.552ZM117.753 456.475C117.485 456.704 111.984 461.136 108.392 465.759C108.316 430.571 114.926 395.192 127.496 363.251C140.065 331.387 158.023 304.069 179.495 284.24C186.181 278.088 192.79 272.931 199.209 268.575C198.598 269.225 197.948 269.874 197.299 270.562C189.658 278.7 178.157 293.562 166.619 318.053C150.076 353.241 150.419 385.716 166.772 401.725C167.803 403.1 170.86 406.768 176.056 410.474C179.113 412.652 183.201 415.021 188.359 416.778C186.907 417.351 185.34 417.963 183.697 418.65C172.541 423.312 154.928 431.602 134.182 444.669C127.152 449.101 121.841 453.074 117.829 456.437C117.791 456.475 117.753 456.475 117.753 456.475ZM423.634 460.83C414.006 466.218 404.951 467.478 402.926 467.708L365.217 439.511L366.898 437.868C367.662 437.142 368.082 436.111 368.044 435.041C368.006 433.971 367.547 432.978 366.745 432.29L359.218 425.871C358.913 425.604 358.721 425.222 358.721 424.802C358.721 424.381 358.874 423.999 359.142 423.694C359.868 422.968 360.288 421.936 360.25 420.866C360.212 419.835 359.715 418.841 358.913 418.154L347.603 408.678C346.113 407.456 343.974 407.532 342.598 408.869L333.925 417.237C333.696 417.428 322.54 428.087 296.254 452.883C293.044 455.902 289.797 458.882 286.664 461.671C276.807 470.382 265.689 477.45 253.615 482.685C241.542 487.919 228.781 491.205 215.676 492.504C168.568 497.05 148.012 492.083 139.072 487.116C132.653 483.525 127.801 476.113 124.554 469.541C123.255 466.561 121.268 461.747 119.854 457.697C123.637 454.564 128.718 450.782 135.404 446.541C159.704 431.22 179.953 422.356 191.95 417.772C195.694 418.727 199.859 419.338 204.482 419.338C204.749 419.338 205.017 419.338 205.284 419.338C216.135 419.185 230.462 413.034 247.884 401.114C260.072 392.785 269.547 384.379 270.655 383.386C273.444 382.01 315.357 361.226 323.762 357.367C339.389 350.222 353.564 352.133 364.72 362.869C375.494 373.261 416.757 417.619 441.744 444.593C439.949 447 433.033 455.558 423.634 460.83ZM457.256 469.198C455.804 470.076 453.818 470.955 451.028 471.796C450.035 472.101 449.08 472.331 448.163 472.522C448.125 472.522 448.125 472.522 448.087 472.522C440.483 473.171 436.701 471.91 435.364 471.299C435.096 471.146 434.867 471.032 434.791 470.993L428.983 465.071C432.919 462.702 436.625 458.767 439.987 453.304C441.706 450.553 442.89 448.108 443.578 446.618C452.442 456.169 458.937 463.237 460.809 465.262C460.313 466.141 459.205 467.708 457.256 469.198ZM479.301 442.606C479.416 442.606 479.569 442.606 479.683 442.644C481.25 442.873 481.364 443.637 481.403 443.943C481.976 447.496 474.755 456.666 464.592 462.282C468.412 453.533 474.717 442.606 479.301 442.606ZM466.808 464.002C467.916 463.123 469.062 462.282 470.246 461.442C470.399 461.327 470.514 461.251 470.667 461.136C477.162 456.551 484.268 452.807 486.408 454.679C486.828 455.061 487.134 455.52 486.637 456.513C484.879 459.875 475.366 464.766 466.808 464.002Z" fill="#1A1A1A"/>
<path d="M451.523 487.423C454.808 484.137 457.789 481.157 460.425 478.521C461.189 477.795 461.189 476.572 460.425 475.808C459.699 475.044 458.476 475.044 457.712 475.808C454.35 479.17 450.415 483.067 446.097 487.423H451.523Z" fill="#FC9F5B"/>
<path d="M458.44 487.422H463.827C464.553 486.658 465.279 485.932 466.005 485.167C468.221 482.837 470.322 480.659 472.653 478.558C473.417 477.832 473.493 476.647 472.806 475.845C472.08 475.081 470.895 475.005 470.093 475.692C467.686 477.87 465.432 480.239 463.254 482.493C461.687 484.174 460.121 485.817 458.44 487.422Z" fill="#FC9F5B"/>
<path d="M201.666 67.9913C201.437 67.5328 200.978 67.2653 200.52 67.2653H180.843C180.385 67.2653 180.003 67.4946 179.735 67.8766L97.4004 198.658C97.0183 199.231 97.1712 199.995 97.7443 200.415C97.9735 200.568 98.241 200.644 98.4702 200.644C98.8523 200.644 99.2343 200.453 99.5018 200.148L201.513 69.3667C201.857 68.9464 201.895 68.4497 201.666 67.9913Z" fill="white"/>
<path d="M155.354 89.4256C155.125 89.0054 154.704 88.7761 154.208 88.7761H145.153C144.656 88.7761 144.236 89.0436 144.006 89.4638L128.113 119.762C127.921 120.144 127.921 120.602 128.113 120.984C128.304 121.366 128.724 121.634 129.144 121.634L135.716 122.169C135.754 122.169 135.792 122.169 135.83 122.169C136.289 122.169 136.709 121.939 136.938 121.519L155.354 90.6864C155.583 90.3044 155.583 89.8077 155.354 89.4256Z" fill="white"/>
<path d="M240.672 24.6662H-111.21C-111.936 24.6662 -112.509 25.2393 -112.509 25.9652V36.281C-112.509 48.2778 -102.767 58.0205 -90.7698 58.0205H220.155C232.152 58.0205 241.895 48.2778 241.895 36.281V25.9652C241.971 25.2393 241.36 24.6662 240.672 24.6662Z" fill="#1A1A1A"/>
<path d="M37.1511 60.8065C36.6162 60.8065 36.1577 60.4244 36.0431 59.8895C35.7375 58.4377 35.9667 57.1769 36.7308 56.1071C38.9468 52.9742 45.2509 52.1336 54.7643 50.8728C64.889 49.5356 78.7198 47.7017 92.2831 41.9707C105.006 36.5454 118.875 34.9789 131.063 33.5653C145.467 31.9224 156.814 30.5851 160.1 23.8608C160.367 23.2877 161.055 23.0585 161.628 23.3259C162.201 23.5933 162.43 24.2811 162.163 24.8542C158.342 32.7247 146.422 34.1001 131.33 35.8576C119.295 37.2331 105.617 38.8378 93.2001 44.1103C79.3693 49.9941 65.3475 51.828 55.1082 53.2034C46.8174 54.3114 40.284 55.1519 38.6411 57.4825C38.2591 58.0174 38.1445 58.6669 38.3355 59.4693C38.4501 60.0806 38.0681 60.6919 37.4568 60.8447C37.3039 60.7683 37.2275 60.8065 37.1511 60.8065Z" fill="#FC9F5B"/>
<path d="M16.5907 60.5403C16.094 60.5403 15.6355 60.2347 15.4827 59.6998C9.82812 40.4055 -53.3655 38.4951 -110.599 43.1181C-111.248 43.1563 -111.783 42.6978 -111.822 42.0865C-111.86 41.437 -111.401 40.9021 -110.79 40.8639C-98.9459 39.9088 -68.3425 37.8456 -40.2607 39.2975C-5.11065 41.1314 14.3747 47.7793 17.6987 59.0885C17.8897 59.6998 17.5458 60.3493 16.9345 60.5021C16.8199 60.5403 16.7053 60.5403 16.5907 60.5403Z" fill="#FC9F5B"/>
<path d="M47.0899 40.1738C44.0716 40.1738 41.015 40.0974 37.8057 39.9446C20.2307 39.0658 -12.7416 36.1239 -36.124 25.961C-36.6971 25.6936 -36.9645 25.044 -36.7353 24.4709C-36.4678 23.8978 -35.8183 23.6304 -35.2452 23.8596C-12.1685 33.8698 20.4981 36.7734 37.9203 37.6522C73.567 39.4097 98.2866 30.6986 112.767 23.0573C113.34 22.7517 114.028 22.9809 114.333 23.554C114.639 24.1271 114.41 24.8148 113.837 25.1205C100.388 32.1887 78.3046 40.1738 47.0899 40.1738Z" fill="#FC9F5B"/>
<path d="M92.6189 60.7679C92.4279 60.7679 92.2369 60.7297 92.084 60.6151C91.5109 60.3094 91.3199 59.6217 91.6256 59.0486C95.3698 52.0186 102.553 48.0833 112.983 47.281C142.173 45.1414 151.61 43.0019 176.062 33.1446C188.021 28.2923 199.559 27.299 211.327 30.0116C221.642 32.4186 230.812 37.3091 239.638 42.0467L240.784 42.658C241.357 42.9637 241.548 43.6514 241.242 44.2245C240.937 44.7976 240.249 44.9886 239.676 44.683L238.53 44.0716C220.878 34.6346 202.654 24.8538 176.864 35.2841C152.145 45.256 142.593 47.3956 113.098 49.6116C103.47 50.3375 96.9363 53.8907 93.5741 60.1566C93.4213 60.5387 93.0392 60.7679 92.6189 60.7679Z" fill="#FC9F5B"/>
<path d="M197.647 52.6301C187.216 52.6301 176.633 50.3377 176.633 45.944C176.633 41.5502 187.216 39.2578 197.647 39.2578C208.077 39.2578 218.66 41.5502 218.66 45.944C218.66 50.3377 208.077 52.6301 197.647 52.6301ZM197.647 41.5502C185.535 41.5502 178.925 44.4539 178.925 45.944C178.925 47.434 185.535 50.3377 197.647 50.3377C209.758 50.3377 216.368 47.434 216.368 45.944C216.368 44.4539 209.758 41.5502 197.647 41.5502Z" fill="#FC9F5B"/>
</svg>
