<svg width="1544" height="891" viewBox="0 0 1544 891" fill="none" xmlns="http://www.w3.org/2000/svg">
<g clip-path="url(#clip0_0_1)">
<rect x="104" width="1440" height="891" fill="white"/>
<rect x="104" y="79" width="1440" height="102" fill="url(#paint0_linear_0_1)"/>
<path d="M702.512 116.84V128.8H717.432V130.64H702.512V143H700.472V115H719.192V116.84H702.512ZM739.467 143.2C735.92 143.2 733.16 142.173 731.187 140.12C729.24 138.067 728.267 135.067 728.267 131.12V115H730.307V131.04C730.307 134.48 731.093 137.053 732.667 138.76C734.24 140.467 736.52 141.32 739.507 141.32C742.467 141.32 744.733 140.467 746.307 138.76C747.88 137.053 748.667 134.48 748.667 131.04V115H750.707V131.12C750.707 135.067 749.72 138.067 747.747 140.12C745.773 142.173 743.013 143.2 739.467 143.2ZM782.465 143L775.785 133.64C774.799 133.773 773.892 133.84 773.065 133.84H765.065V143H763.025V115H773.065C776.585 115 779.345 115.84 781.345 117.52C783.345 119.173 784.345 121.48 784.345 124.44C784.345 126.653 783.772 128.52 782.625 130.04C781.505 131.533 779.892 132.587 777.785 133.2L784.785 143H782.465ZM773.065 132.04C776.052 132.04 778.332 131.387 779.905 130.08C781.479 128.747 782.265 126.867 782.265 124.44C782.265 122.013 781.479 120.147 779.905 118.84C778.332 117.507 776.052 116.84 773.065 116.84H765.065V132.04H773.065ZM799.584 116.84H789.504V115H811.704V116.84H801.624V143H799.584V116.84ZM842.363 115V143H840.323V129.68H821.603V143H819.563V115H821.603V127.88H840.323V115H842.363ZM874.261 141.16V143H854.941V115H873.661V116.84H856.981V127.88H871.901V129.68H856.981V141.16H874.261ZM903.939 143L897.259 133.64C896.272 133.773 895.365 133.84 894.539 133.84H886.539V143H884.499V115H894.539C898.059 115 900.819 115.84 902.819 117.52C904.819 119.173 905.819 121.48 905.819 124.44C905.819 126.653 905.245 128.52 904.099 130.04C902.979 131.533 901.365 132.587 899.259 133.2L906.259 143H903.939ZM894.539 132.04C897.525 132.04 899.805 131.387 901.379 130.08C902.952 128.747 903.739 126.867 903.739 124.44C903.739 122.013 902.952 120.147 901.379 118.84C899.805 117.507 897.525 116.84 894.539 116.84H886.539V132.04H894.539Z" fill="white"/>
<rect x="104" y="-1" width="1440" height="80" fill="white"/>
<circle cx="1450" cy="39" r="25" fill="#F7F7F8"/>
<rect x="1436" y="31" width="27" height="1" fill="black"/>
<rect x="1436" y="47" width="27" height="1" fill="black"/>
<rect x="1436" y="39" width="27" height="1" fill="black"/>
<rect x="895" y="20" width="419" height="39" rx="19.5" fill="#F7F7F8"/>
<path d="M182.528 32.4L176.948 45H175.634L170.054 32.4H171.494L176.318 43.344L181.178 32.4H182.528ZM184.034 35.532H185.312V45H184.034V35.532ZM184.682 33.462C184.418 33.462 184.196 33.372 184.016 33.192C183.836 33.012 183.746 32.796 183.746 32.544C183.746 32.304 183.836 32.094 184.016 31.914C184.196 31.734 184.418 31.644 184.682 31.644C184.946 31.644 185.168 31.734 185.348 31.914C185.528 32.082 185.618 32.286 185.618 32.526C185.618 32.79 185.528 33.012 185.348 33.192C185.168 33.372 184.946 33.462 184.682 33.462ZM197.508 31.644V45H196.284V43.128C195.9 43.764 195.39 44.25 194.754 44.586C194.13 44.922 193.422 45.09 192.63 45.09C191.742 45.09 190.938 44.886 190.218 44.478C189.498 44.07 188.934 43.5 188.526 42.768C188.118 42.036 187.914 41.202 187.914 40.266C187.914 39.33 188.118 38.496 188.526 37.764C188.934 37.032 189.498 36.468 190.218 36.072C190.938 35.664 191.742 35.46 192.63 35.46C193.398 35.46 194.088 35.622 194.7 35.946C195.324 36.258 195.834 36.72 196.23 37.332V31.644H197.508ZM192.738 43.956C193.398 43.956 193.992 43.806 194.52 43.506C195.06 43.194 195.48 42.756 195.78 42.192C196.092 41.628 196.248 40.986 196.248 40.266C196.248 39.546 196.092 38.904 195.78 38.34C195.48 37.776 195.06 37.344 194.52 37.044C193.992 36.732 193.398 36.576 192.738 36.576C192.066 36.576 191.46 36.732 190.92 37.044C190.392 37.344 189.972 37.776 189.66 38.34C189.36 38.904 189.21 39.546 189.21 40.266C189.21 40.986 189.36 41.628 189.66 42.192C189.972 42.756 190.392 43.194 190.92 43.506C191.46 43.806 192.066 43.956 192.738 43.956ZM209.311 40.662H201.391C201.463 41.646 201.841 42.444 202.525 43.056C203.209 43.656 204.073 43.956 205.117 43.956C205.705 43.956 206.245 43.854 206.737 43.65C207.229 43.434 207.655 43.122 208.015 42.714L208.735 43.542C208.315 44.046 207.787 44.43 207.151 44.694C206.527 44.958 205.837 45.09 205.081 45.09C204.109 45.09 203.245 44.886 202.489 44.478C201.745 44.058 201.163 43.482 200.743 42.75C200.323 42.018 200.113 41.19 200.113 40.266C200.113 39.342 200.311 38.514 200.707 37.782C201.115 37.05 201.667 36.48 202.363 36.072C203.071 35.664 203.863 35.46 204.739 35.46C205.615 35.46 206.401 35.664 207.097 36.072C207.793 36.48 208.339 37.05 208.735 37.782C209.131 38.502 209.329 39.33 209.329 40.266L209.311 40.662ZM204.739 36.558C203.827 36.558 203.059 36.852 202.435 37.44C201.823 38.016 201.475 38.772 201.391 39.708H208.105C208.021 38.772 207.667 38.016 207.043 37.44C206.431 36.852 205.663 36.558 204.739 36.558ZM215.8 45.09C214.888 45.09 214.066 44.886 213.334 44.478C212.602 44.058 212.026 43.482 211.606 42.75C211.186 42.018 210.976 41.19 210.976 40.266C210.976 39.342 211.186 38.514 211.606 37.782C212.026 37.05 212.602 36.48 213.334 36.072C214.066 35.664 214.888 35.46 215.8 35.46C216.712 35.46 217.534 35.664 218.266 36.072C218.998 36.48 219.568 37.05 219.976 37.782C220.396 38.514 220.606 39.342 220.606 40.266C220.606 41.19 220.396 42.018 219.976 42.75C219.568 43.482 218.998 44.058 218.266 44.478C217.534 44.886 216.712 45.09 215.8 45.09ZM215.8 43.956C216.472 43.956 217.072 43.806 217.6 43.506C218.14 43.194 218.56 42.756 218.86 42.192C219.16 41.628 219.31 40.986 219.31 40.266C219.31 39.546 219.16 38.904 218.86 38.34C218.56 37.776 218.14 37.344 217.6 37.044C217.072 36.732 216.472 36.576 215.8 36.576C215.128 36.576 214.522 36.732 213.982 37.044C213.454 37.344 213.034 37.776 212.722 38.34C212.422 38.904 212.272 39.546 212.272 40.266C212.272 40.986 212.422 41.628 212.722 42.192C213.034 42.756 213.454 43.194 213.982 43.506C214.522 43.806 215.128 43.956 215.8 43.956ZM225.754 45.09C224.986 45.09 224.248 44.982 223.54 44.766C222.844 44.538 222.298 44.256 221.902 43.92L222.478 42.912C222.874 43.224 223.372 43.482 223.972 43.686C224.572 43.878 225.196 43.974 225.844 43.974C226.708 43.974 227.344 43.842 227.752 43.578C228.172 43.302 228.382 42.918 228.382 42.426C228.382 42.078 228.268 41.808 228.04 41.616C227.812 41.412 227.524 41.262 227.176 41.166C226.828 41.058 226.366 40.956 225.79 40.86C225.022 40.716 224.404 40.572 223.936 40.428C223.468 40.272 223.066 40.014 222.73 39.654C222.406 39.294 222.244 38.796 222.244 38.16C222.244 37.368 222.574 36.72 223.234 36.216C223.894 35.712 224.812 35.46 225.988 35.46C226.6 35.46 227.212 35.544 227.824 35.712C228.436 35.868 228.94 36.078 229.336 36.342L228.778 37.368C227.998 36.828 227.068 36.558 225.988 36.558C225.172 36.558 224.554 36.702 224.134 36.99C223.726 37.278 223.522 37.656 223.522 38.124C223.522 38.484 223.636 38.772 223.864 38.988C224.104 39.204 224.398 39.366 224.746 39.474C225.094 39.57 225.574 39.672 226.186 39.78C226.942 39.924 227.548 40.068 228.004 40.212C228.46 40.356 228.85 40.602 229.174 40.95C229.498 41.298 229.66 41.778 229.66 42.39C229.66 43.218 229.312 43.878 228.616 44.37C227.932 44.85 226.978 45.09 225.754 45.09Z" fill="black"/>
<path d="M312.742 46.062C312.358 46.53 311.902 46.884 311.374 47.124C310.858 47.376 310.294 47.502 309.682 47.502C308.938 47.502 308.23 47.316 307.558 46.944C306.898 46.584 306.154 45.972 305.326 45.108C304.114 45.072 303.022 44.772 302.05 44.208C301.078 43.644 300.316 42.882 299.764 41.922C299.212 40.962 298.936 39.888 298.936 38.7C298.936 37.488 299.218 36.396 299.782 35.424C300.358 34.452 301.15 33.69 302.158 33.138C303.178 32.574 304.312 32.292 305.56 32.292C306.808 32.292 307.93 32.568 308.926 33.12C309.934 33.672 310.726 34.44 311.302 35.424C311.878 36.396 312.166 37.488 312.166 38.7C312.166 39.756 311.944 40.728 311.5 41.616C311.068 42.492 310.456 43.224 309.664 43.812C308.884 44.4 307.984 44.79 306.964 44.982C307.888 45.954 308.8 46.44 309.7 46.44C310.636 46.44 311.434 46.056 312.094 45.288L312.742 46.062ZM300.25 38.7C300.25 39.684 300.478 40.572 300.934 41.364C301.402 42.156 302.038 42.78 302.842 43.236C303.658 43.692 304.564 43.92 305.56 43.92C306.556 43.92 307.456 43.692 308.26 43.236C309.064 42.78 309.694 42.156 310.15 41.364C310.606 40.572 310.834 39.684 310.834 38.7C310.834 37.716 310.606 36.828 310.15 36.036C309.694 35.244 309.064 34.62 308.26 34.164C307.456 33.708 306.556 33.48 305.56 33.48C304.564 33.48 303.658 33.708 302.842 34.164C302.038 34.62 301.402 35.244 300.934 36.036C300.478 36.828 300.25 37.716 300.25 38.7ZM323.414 35.532V45H322.19V43.272C321.854 43.848 321.392 44.298 320.804 44.622C320.216 44.934 319.544 45.09 318.788 45.09C317.552 45.09 316.574 44.748 315.854 44.064C315.146 43.368 314.792 42.354 314.792 41.022V35.532H316.07V40.896C316.07 41.892 316.316 42.648 316.808 43.164C317.3 43.68 318.002 43.938 318.914 43.938C319.91 43.938 320.696 43.638 321.272 43.038C321.848 42.426 322.136 41.58 322.136 40.5V35.532H323.414ZM335.237 40.662H327.317C327.389 41.646 327.767 42.444 328.451 43.056C329.135 43.656 329.999 43.956 331.043 43.956C331.631 43.956 332.171 43.854 332.663 43.65C333.155 43.434 333.581 43.122 333.941 42.714L334.661 43.542C334.241 44.046 333.713 44.43 333.077 44.694C332.453 44.958 331.763 45.09 331.007 45.09C330.035 45.09 329.171 44.886 328.415 44.478C327.671 44.058 327.089 43.482 326.669 42.75C326.249 42.018 326.039 41.19 326.039 40.266C326.039 39.342 326.237 38.514 326.633 37.782C327.041 37.05 327.593 36.48 328.289 36.072C328.997 35.664 329.789 35.46 330.665 35.46C331.541 35.46 332.327 35.664 333.023 36.072C333.719 36.48 334.265 37.05 334.661 37.782C335.057 38.502 335.255 39.33 335.255 40.266L335.237 40.662ZM330.665 36.558C329.753 36.558 328.985 36.852 328.361 37.44C327.749 38.016 327.401 38.772 327.317 39.708H334.031C333.947 38.772 333.593 38.016 332.969 37.44C332.357 36.852 331.589 36.558 330.665 36.558ZM340.394 45.09C339.626 45.09 338.888 44.982 338.18 44.766C337.484 44.538 336.938 44.256 336.542 43.92L337.118 42.912C337.514 43.224 338.012 43.482 338.612 43.686C339.212 43.878 339.836 43.974 340.484 43.974C341.348 43.974 341.984 43.842 342.392 43.578C342.812 43.302 343.022 42.918 343.022 42.426C343.022 42.078 342.908 41.808 342.68 41.616C342.452 41.412 342.164 41.262 341.816 41.166C341.468 41.058 341.006 40.956 340.43 40.86C339.662 40.716 339.044 40.572 338.576 40.428C338.108 40.272 337.706 40.014 337.37 39.654C337.046 39.294 336.884 38.796 336.884 38.16C336.884 37.368 337.214 36.72 337.874 36.216C338.534 35.712 339.452 35.46 340.628 35.46C341.24 35.46 341.852 35.544 342.464 35.712C343.076 35.868 343.58 36.078 343.976 36.342L343.418 37.368C342.638 36.828 341.708 36.558 340.628 36.558C339.812 36.558 339.194 36.702 338.774 36.99C338.366 37.278 338.162 37.656 338.162 38.124C338.162 38.484 338.276 38.772 338.504 38.988C338.744 39.204 339.038 39.366 339.386 39.474C339.734 39.57 340.214 39.672 340.826 39.78C341.582 39.924 342.188 40.068 342.644 40.212C343.1 40.356 343.49 40.602 343.814 40.95C344.138 41.298 344.3 41.778 344.3 42.39C344.3 43.218 343.952 43.878 343.256 44.37C342.572 44.85 341.618 45.09 340.394 45.09ZM351.649 44.424C351.409 44.64 351.109 44.808 350.749 44.928C350.401 45.036 350.035 45.09 349.651 45.09C348.763 45.09 348.079 44.85 347.599 44.37C347.119 43.89 346.879 43.212 346.879 42.336V36.612H345.187V35.532H346.879V33.462H348.157V35.532H351.037V36.612H348.157V42.264C348.157 42.828 348.295 43.26 348.571 43.56C348.859 43.848 349.267 43.992 349.795 43.992C350.059 43.992 350.311 43.95 350.551 43.866C350.803 43.782 351.019 43.662 351.199 43.506L351.649 44.424ZM353.975 35.532H355.253V45H353.975V35.532ZM354.623 33.462C354.359 33.462 354.137 33.372 353.957 33.192C353.777 33.012 353.687 32.796 353.687 32.544C353.687 32.304 353.777 32.094 353.957 31.914C354.137 31.734 354.359 31.644 354.623 31.644C354.887 31.644 355.109 31.734 355.289 31.914C355.469 32.082 355.559 32.286 355.559 32.526C355.559 32.79 355.469 33.012 355.289 33.192C355.109 33.372 354.887 33.462 354.623 33.462ZM362.679 45.09C361.767 45.09 360.945 44.886 360.213 44.478C359.481 44.058 358.905 43.482 358.485 42.75C358.065 42.018 357.855 41.19 357.855 40.266C357.855 39.342 358.065 38.514 358.485 37.782C358.905 37.05 359.481 36.48 360.213 36.072C360.945 35.664 361.767 35.46 362.679 35.46C363.591 35.46 364.413 35.664 365.145 36.072C365.877 36.48 366.447 37.05 366.855 37.782C367.275 38.514 367.485 39.342 367.485 40.266C367.485 41.19 367.275 42.018 366.855 42.75C366.447 43.482 365.877 44.058 365.145 44.478C364.413 44.886 363.591 45.09 362.679 45.09ZM362.679 43.956C363.351 43.956 363.951 43.806 364.479 43.506C365.019 43.194 365.439 42.756 365.739 42.192C366.039 41.628 366.189 40.986 366.189 40.266C366.189 39.546 366.039 38.904 365.739 38.34C365.439 37.776 365.019 37.344 364.479 37.044C363.951 36.732 363.351 36.576 362.679 36.576C362.007 36.576 361.401 36.732 360.861 37.044C360.333 37.344 359.913 37.776 359.601 38.34C359.301 38.904 359.151 39.546 359.151 40.266C359.151 40.986 359.301 41.628 359.601 42.192C359.913 42.756 360.333 43.194 360.861 43.506C361.401 43.806 362.007 43.956 362.679 43.956ZM374.919 35.46C376.107 35.46 377.049 35.808 377.745 36.504C378.453 37.188 378.807 38.19 378.807 39.51V45H377.529V39.636C377.529 38.652 377.283 37.902 376.791 37.386C376.299 36.87 375.597 36.612 374.685 36.612C373.665 36.612 372.855 36.918 372.255 37.53C371.667 38.13 371.373 38.964 371.373 40.032V45H370.095V35.532H371.319V37.278C371.667 36.702 372.147 36.258 372.759 35.946C373.383 35.622 374.103 35.46 374.919 35.46ZM384.814 45.09C384.046 45.09 383.308 44.982 382.6 44.766C381.904 44.538 381.358 44.256 380.962 43.92L381.538 42.912C381.934 43.224 382.432 43.482 383.032 43.686C383.632 43.878 384.256 43.974 384.904 43.974C385.768 43.974 386.404 43.842 386.812 43.578C387.232 43.302 387.442 42.918 387.442 42.426C387.442 42.078 387.328 41.808 387.1 41.616C386.872 41.412 386.584 41.262 386.236 41.166C385.888 41.058 385.426 40.956 384.85 40.86C384.082 40.716 383.464 40.572 382.996 40.428C382.528 40.272 382.126 40.014 381.79 39.654C381.466 39.294 381.304 38.796 381.304 38.16C381.304 37.368 381.634 36.72 382.294 36.216C382.954 35.712 383.872 35.46 385.048 35.46C385.66 35.46 386.272 35.544 386.884 35.712C387.496 35.868 388 36.078 388.396 36.342L387.838 37.368C387.058 36.828 386.128 36.558 385.048 36.558C384.232 36.558 383.614 36.702 383.194 36.99C382.786 37.278 382.582 37.656 382.582 38.124C382.582 38.484 382.696 38.772 382.924 38.988C383.164 39.204 383.458 39.366 383.806 39.474C384.154 39.57 384.634 39.672 385.246 39.78C386.002 39.924 386.608 40.068 387.064 40.212C387.52 40.356 387.91 40.602 388.234 40.95C388.558 41.298 388.72 41.778 388.72 42.39C388.72 43.218 388.372 43.878 387.676 44.37C386.992 44.85 386.038 45.09 384.814 45.09Z" fill="black"/>
<path d="M469.582 32.4V45H468.484L460.384 34.776V45H459.052V32.4H460.15L468.268 42.624V32.4H469.582ZM477.295 45.09C476.383 45.09 475.561 44.886 474.829 44.478C474.097 44.058 473.521 43.482 473.101 42.75C472.681 42.018 472.471 41.19 472.471 40.266C472.471 39.342 472.681 38.514 473.101 37.782C473.521 37.05 474.097 36.48 474.829 36.072C475.561 35.664 476.383 35.46 477.295 35.46C478.207 35.46 479.029 35.664 479.761 36.072C480.493 36.48 481.063 37.05 481.471 37.782C481.891 38.514 482.101 39.342 482.101 40.266C482.101 41.19 481.891 42.018 481.471 42.75C481.063 43.482 480.493 44.058 479.761 44.478C479.029 44.886 478.207 45.09 477.295 45.09ZM477.295 43.956C477.967 43.956 478.567 43.806 479.095 43.506C479.635 43.194 480.055 42.756 480.355 42.192C480.655 41.628 480.805 40.986 480.805 40.266C480.805 39.546 480.655 38.904 480.355 38.34C480.055 37.776 479.635 37.344 479.095 37.044C478.567 36.732 477.967 36.576 477.295 36.576C476.623 36.576 476.017 36.732 475.477 37.044C474.949 37.344 474.529 37.776 474.217 38.34C473.917 38.904 473.767 39.546 473.767 40.266C473.767 40.986 473.917 41.628 474.217 42.192C474.529 42.756 474.949 43.194 475.477 43.506C476.017 43.806 476.623 43.956 477.295 43.956ZM489.696 44.424C489.456 44.64 489.156 44.808 488.796 44.928C488.448 45.036 488.082 45.09 487.698 45.09C486.81 45.09 486.126 44.85 485.646 44.37C485.166 43.89 484.926 43.212 484.926 42.336V36.612H483.234V35.532H484.926V33.462H486.204V35.532H489.084V36.612H486.204V42.264C486.204 42.828 486.342 43.26 486.618 43.56C486.906 43.848 487.314 43.992 487.842 43.992C488.106 43.992 488.358 43.95 488.598 43.866C488.85 43.782 489.066 43.662 489.246 43.506L489.696 44.424ZM499.932 40.662H492.012C492.084 41.646 492.462 42.444 493.146 43.056C493.83 43.656 494.694 43.956 495.738 43.956C496.326 43.956 496.866 43.854 497.358 43.65C497.85 43.434 498.276 43.122 498.636 42.714L499.356 43.542C498.936 44.046 498.408 44.43 497.772 44.694C497.148 44.958 496.458 45.09 495.702 45.09C494.73 45.09 493.866 44.886 493.11 44.478C492.366 44.058 491.784 43.482 491.364 42.75C490.944 42.018 490.734 41.19 490.734 40.266C490.734 39.342 490.932 38.514 491.328 37.782C491.736 37.05 492.288 36.48 492.984 36.072C493.692 35.664 494.484 35.46 495.36 35.46C496.236 35.46 497.022 35.664 497.718 36.072C498.414 36.48 498.96 37.05 499.356 37.782C499.752 38.502 499.95 39.33 499.95 40.266L499.932 40.662ZM495.36 36.558C494.448 36.558 493.68 36.852 493.056 37.44C492.444 38.016 492.096 38.772 492.012 39.708H498.726C498.642 38.772 498.288 38.016 497.664 37.44C497.052 36.852 496.284 36.558 495.36 36.558ZM505.09 45.09C504.322 45.09 503.584 44.982 502.876 44.766C502.18 44.538 501.634 44.256 501.238 43.92L501.814 42.912C502.21 43.224 502.708 43.482 503.308 43.686C503.908 43.878 504.532 43.974 505.18 43.974C506.044 43.974 506.68 43.842 507.088 43.578C507.508 43.302 507.718 42.918 507.718 42.426C507.718 42.078 507.604 41.808 507.376 41.616C507.148 41.412 506.86 41.262 506.512 41.166C506.164 41.058 505.702 40.956 505.126 40.86C504.358 40.716 503.74 40.572 503.272 40.428C502.804 40.272 502.402 40.014 502.066 39.654C501.742 39.294 501.58 38.796 501.58 38.16C501.58 37.368 501.91 36.72 502.57 36.216C503.23 35.712 504.148 35.46 505.324 35.46C505.936 35.46 506.548 35.544 507.16 35.712C507.772 35.868 508.276 36.078 508.672 36.342L508.114 37.368C507.334 36.828 506.404 36.558 505.324 36.558C504.508 36.558 503.89 36.702 503.47 36.99C503.062 37.278 502.858 37.656 502.858 38.124C502.858 38.484 502.972 38.772 503.2 38.988C503.44 39.204 503.734 39.366 504.082 39.474C504.43 39.57 504.91 39.672 505.522 39.78C506.278 39.924 506.884 40.068 507.34 40.212C507.796 40.356 508.186 40.602 508.51 40.95C508.834 41.298 508.996 41.778 508.996 42.39C508.996 43.218 508.648 43.878 507.952 44.37C507.268 44.85 506.314 45.09 505.09 45.09Z" fill="black"/>
<circle cx="919" cy="37" r="8.25" fill="#F7F7F8" stroke="black" stroke-width="1.5"/>
<line x1="924.53" y1="42.4697" x2="933.53" y2="51.4697" stroke="black" stroke-width="1.5"/>
<rect x="102" y="219.419" width="1442" height="2.163" fill="#E2E2E2"/>
<path d="M473.299 282.912V284H464.884V272.1H473.044V273.188H466.142V277.421H472.296V278.492H466.142V282.912H473.299ZM484.569 280.821H477.939L476.511 284H475.202L480.642 272.1H481.883L487.323 284H485.997L484.569 280.821ZM484.11 279.801L481.254 273.409L478.398 279.801H484.11ZM493.422 284.102C492.538 284.102 491.688 283.96 490.872 283.677C490.068 283.394 489.444 283.02 489.002 282.555L489.495 281.586C489.926 282.017 490.498 282.368 491.212 282.64C491.926 282.901 492.663 283.031 493.422 283.031C494.488 283.031 495.287 282.838 495.819 282.453C496.352 282.056 496.618 281.546 496.618 280.923C496.618 280.447 496.471 280.067 496.176 279.784C495.893 279.501 495.542 279.285 495.122 279.138C494.703 278.979 494.119 278.809 493.371 278.628C492.476 278.401 491.762 278.186 491.229 277.982C490.697 277.767 490.238 277.444 489.852 277.013C489.478 276.582 489.291 275.999 489.291 275.262C489.291 274.661 489.45 274.117 489.767 273.63C490.085 273.131 490.572 272.735 491.229 272.44C491.887 272.145 492.703 271.998 493.677 271.998C494.357 271.998 495.02 272.094 495.666 272.287C496.324 272.468 496.89 272.723 497.366 273.052L496.941 274.055C496.443 273.726 495.91 273.483 495.343 273.324C494.777 273.154 494.221 273.069 493.677 273.069C492.635 273.069 491.847 273.273 491.314 273.681C490.793 274.078 490.532 274.593 490.532 275.228C490.532 275.704 490.674 276.089 490.957 276.384C491.252 276.667 491.615 276.888 492.045 277.047C492.487 277.194 493.077 277.359 493.813 277.54C494.686 277.755 495.389 277.971 495.921 278.186C496.465 278.39 496.924 278.707 497.298 279.138C497.672 279.557 497.859 280.13 497.859 280.855C497.859 281.456 497.695 282.005 497.366 282.504C497.049 282.991 496.556 283.382 495.887 283.677C495.219 283.96 494.397 284.102 493.422 284.102ZM505.281 279.886V284H504.04V279.886L499.28 272.1H500.623L504.703 278.781L508.783 272.1H510.041L505.281 279.886Z" fill="black"/>
<path d="M122.646 202.646C122.451 202.842 122.451 203.158 122.646 203.354L125.828 206.536C126.024 206.731 126.34 206.731 126.536 206.536C126.731 206.34 126.731 206.024 126.536 205.828L123.707 203L126.536 200.172C126.731 199.976 126.731 199.66 126.536 199.464C126.34 199.269 126.024 199.269 125.828 199.464L122.646 202.646ZM135 202.5H123V203.5H135V202.5Z" fill="black"/>
<path d="M663.331 325.4H671.591C673.663 325.4 675.502 325.811 677.107 326.632C678.713 327.453 679.954 328.611 680.831 330.104C681.727 331.579 682.175 333.277 682.175 335.2C682.175 337.123 681.727 338.831 680.831 340.324C679.954 341.799 678.713 342.947 677.107 343.768C675.502 344.589 673.663 345 671.591 345H663.331V325.4ZM671.423 342.564C673.01 342.564 674.401 342.256 675.595 341.64C676.809 341.024 677.742 340.165 678.395 339.064C679.049 337.944 679.375 336.656 679.375 335.2C679.375 333.744 679.049 332.465 678.395 331.364C677.742 330.244 676.809 329.376 675.595 328.76C674.401 328.144 673.01 327.836 671.423 327.836H666.131V342.564H671.423ZM699.519 340.1H689.103L686.947 345H684.063L692.939 325.4H695.711L704.615 345H701.675L699.519 340.1ZM698.539 337.86L694.311 328.256L690.083 337.86H698.539ZM711.286 327.836H704.566V325.4H720.778V327.836H714.058V345H711.286V327.836ZM736.171 340.1H725.755L723.599 345H720.715L729.591 325.4H732.363L741.267 345H738.327L736.171 340.1ZM735.191 337.86L730.963 328.256L726.735 337.86H735.191ZM753.391 325.4H761.651C763.723 325.4 765.561 325.811 767.167 326.632C768.772 327.453 770.013 328.611 770.891 330.104C771.787 331.579 772.235 333.277 772.235 335.2C772.235 337.123 771.787 338.831 770.891 340.324C770.013 341.799 768.772 342.947 767.167 343.768C765.561 344.589 763.723 345 761.651 345H753.391V325.4ZM761.483 342.564C763.069 342.564 764.46 342.256 765.655 341.64C766.868 341.024 767.801 340.165 768.455 339.064C769.108 337.944 769.435 336.656 769.435 335.2C769.435 333.744 769.108 332.465 768.455 331.364C767.801 330.244 766.868 329.376 765.655 328.76C764.46 328.144 763.069 327.836 761.483 327.836H756.191V342.564H761.483ZM777.363 325.4H780.163V345H777.363V325.4ZM792.583 345.224C791.109 345.224 789.681 345 788.299 344.552C786.937 344.085 785.863 343.488 785.079 342.76L786.115 340.576C786.862 341.248 787.814 341.799 788.971 342.228C790.147 342.639 791.351 342.844 792.583 342.844C794.207 342.844 795.421 342.573 796.223 342.032C797.026 341.472 797.427 340.735 797.427 339.82C797.427 339.148 797.203 338.607 796.755 338.196C796.326 337.767 795.785 337.44 795.131 337.216C794.497 336.992 793.591 336.74 792.415 336.46C790.941 336.105 789.746 335.751 788.831 335.396C787.935 335.041 787.161 334.5 786.507 333.772C785.873 333.025 785.555 332.027 785.555 330.776C785.555 329.731 785.826 328.788 786.367 327.948C786.927 327.108 787.767 326.436 788.887 325.932C790.007 325.428 791.398 325.176 793.059 325.176C794.217 325.176 795.355 325.325 796.475 325.624C797.595 325.923 798.557 326.352 799.359 326.912L798.435 329.152C797.614 328.629 796.737 328.237 795.803 327.976C794.87 327.696 793.955 327.556 793.059 327.556C791.473 327.556 790.278 327.845 789.475 328.424C788.691 329.003 788.299 329.749 788.299 330.664C788.299 331.336 788.523 331.887 788.971 332.316C789.419 332.727 789.97 333.053 790.623 333.296C791.295 333.52 792.201 333.763 793.339 334.024C794.814 334.379 795.999 334.733 796.895 335.088C797.791 335.443 798.557 335.984 799.191 336.712C799.845 337.44 800.171 338.42 800.171 339.652C800.171 340.679 799.891 341.621 799.331 342.48C798.771 343.32 797.922 343.992 796.783 344.496C795.645 344.981 794.245 345.224 792.583 345.224ZM808.721 327.836H802.001V325.4H818.213V327.836H811.493V345H808.721V327.836ZM835.206 345L830.978 338.98C830.456 339.017 830.045 339.036 829.746 339.036H824.902V345H822.102V325.4H829.746C832.285 325.4 834.282 326.007 835.738 327.22C837.194 328.433 837.922 330.104 837.922 332.232C837.922 333.744 837.549 335.032 836.802 336.096C836.056 337.16 834.992 337.935 833.61 338.42L838.258 345H835.206ZM829.662 336.656C831.436 336.656 832.789 336.273 833.722 335.508C834.656 334.743 835.122 333.651 835.122 332.232C835.122 330.813 834.656 329.731 833.722 328.984C832.789 328.219 831.436 327.836 829.662 327.836H824.902V336.656H829.662ZM843.286 325.4H846.086V345H843.286V325.4ZM865.982 334.836C867.121 335.153 868.017 335.732 868.67 336.572C869.323 337.393 869.65 338.439 869.65 339.708C869.65 341.407 869.006 342.713 867.718 343.628C866.449 344.543 864.591 345 862.146 345H852.794V325.4H861.586C863.826 325.4 865.553 325.848 866.766 326.744C867.998 327.64 868.614 328.881 868.614 330.468C868.614 331.495 868.371 332.381 867.886 333.128C867.419 333.875 866.785 334.444 865.982 334.836ZM855.594 327.668V333.94H861.334C862.771 333.94 863.873 333.679 864.638 333.156C865.422 332.615 865.814 331.831 865.814 330.804C865.814 329.777 865.422 329.003 864.638 328.48C863.873 327.939 862.771 327.668 861.334 327.668H855.594ZM862.034 342.732C863.621 342.732 864.815 342.471 865.618 341.948C866.421 341.425 866.822 340.604 866.822 339.484C866.822 337.3 865.226 336.208 862.034 336.208H855.594V342.732H862.034ZM882.945 345.224C880.332 345.224 878.297 344.477 876.841 342.984C875.385 341.491 874.657 339.344 874.657 336.544V325.4H877.457V336.432C877.457 340.632 879.296 342.732 882.973 342.732C884.765 342.732 886.137 342.219 887.089 341.192C888.041 340.147 888.517 338.56 888.517 336.432V325.4H891.233V336.544C891.233 339.363 890.505 341.519 889.049 343.012C887.593 344.487 885.559 345.224 882.945 345.224ZM901.35 327.836H894.63V325.4H910.842V327.836H904.122V345H901.35V327.836ZM914.732 325.4H917.532V345H914.732V325.4ZM933.088 345.224C931.109 345.224 929.326 344.795 927.74 343.936C926.153 343.059 924.902 341.855 923.988 340.324C923.092 338.793 922.644 337.085 922.644 335.2C922.644 333.315 923.092 331.607 923.988 330.076C924.902 328.545 926.153 327.351 927.74 326.492C929.326 325.615 931.109 325.176 933.088 325.176C935.048 325.176 936.821 325.615 938.408 326.492C939.994 327.351 941.236 328.545 942.132 330.076C943.028 331.588 943.476 333.296 943.476 335.2C943.476 337.104 943.028 338.821 942.132 340.352C941.236 341.864 939.994 343.059 938.408 343.936C936.821 344.795 935.048 345.224 933.088 345.224ZM933.088 342.732C934.525 342.732 935.813 342.405 936.952 341.752C938.109 341.099 939.014 340.203 939.668 339.064C940.34 337.907 940.676 336.619 940.676 335.2C940.676 333.781 940.34 332.503 939.668 331.364C939.014 330.207 938.109 329.301 936.952 328.648C935.813 327.995 934.525 327.668 933.088 327.668C931.65 327.668 930.344 327.995 929.168 328.648C928.01 329.301 927.096 330.207 926.424 331.364C925.77 332.503 925.444 333.781 925.444 335.2C925.444 336.619 925.77 337.907 926.424 339.064C927.096 340.203 928.01 341.099 929.168 341.752C930.344 342.405 931.65 342.732 933.088 342.732ZM965.451 325.4V345H963.155L951.395 330.384V345H948.595V325.4H950.891L962.651 340.016V325.4H965.451ZM977.87 345.224C976.395 345.224 974.967 345 973.586 344.552C972.223 344.085 971.15 343.488 970.366 342.76L971.402 340.576C972.149 341.248 973.101 341.799 974.258 342.228C975.434 342.639 976.638 342.844 977.87 342.844C979.494 342.844 980.707 342.573 981.51 342.032C982.313 341.472 982.714 340.735 982.714 339.82C982.714 339.148 982.49 338.607 982.042 338.196C981.613 337.767 981.071 337.44 980.418 337.216C979.783 336.992 978.878 336.74 977.702 336.46C976.227 336.105 975.033 335.751 974.118 335.396C973.222 335.041 972.447 334.5 971.794 333.772C971.159 333.025 970.842 332.027 970.842 330.776C970.842 329.731 971.113 328.788 971.654 327.948C972.214 327.108 973.054 326.436 974.174 325.932C975.294 325.428 976.685 325.176 978.346 325.176C979.503 325.176 980.642 325.325 981.762 325.624C982.882 325.923 983.843 326.352 984.646 326.912L983.722 329.152C982.901 328.629 982.023 328.237 981.09 327.976C980.157 327.696 979.242 327.556 978.346 327.556C976.759 327.556 975.565 327.845 974.762 328.424C973.978 329.003 973.586 329.749 973.586 330.664C973.586 331.336 973.81 331.887 974.258 332.316C974.706 332.727 975.257 333.053 975.91 333.296C976.582 333.52 977.487 333.763 978.626 334.024C980.101 334.379 981.286 334.733 982.182 335.088C983.078 335.443 983.843 335.984 984.478 336.712C985.131 337.44 985.458 338.42 985.458 339.652C985.458 340.679 985.178 341.621 984.618 342.48C984.058 343.32 983.209 343.992 982.07 344.496C980.931 344.981 979.531 345.224 977.87 345.224Z" fill="black"/>
<path d="M488 219H758V222H488V219Z" fill="#787ECA"/>
<circle cx="426.5" cy="200.5" r="11.875" stroke="#9482C6" stroke-width="1.25"/>
<path d="M426 202C428.209 202 430 200.209 430 198C430 195.791 428.209 194 426 194C424.667 194 422 194.8 422 198" stroke="#9482C6" stroke-width="1.25"/>
<line x1="426.625" y1="205" x2="426.625" y2="202" stroke="#9482C6" stroke-width="1.25"/>
<circle cx="426.7" cy="207" r="1" fill="#787ECA"/>
<circle cx="510.5" cy="200.5" r="11.875" stroke="#9482C6" stroke-width="1.25"/>
<path d="M508 196.67L515.5 201L508 205.33V196.67Z" fill="white" stroke="#9482C6"/>
<circle cx="815.5" cy="200.5" r="11.875" stroke="#9482C6" stroke-width="1.25"/>
<path d="M813 196.67L820.5 201L813 205.33V196.67Z" fill="white" stroke="#9482C6"/>
<circle cx="896.5" cy="200.5" r="11.875" stroke="#9482C6" stroke-width="1.25"/>
<line x1="890" y1="196.5" x2="903" y2="196.5" stroke="#9482C6"/>
<line x1="890" y1="205" x2="903" y2="205" stroke="#9482C6"/>
<line x1="890" y1="200.75" x2="903" y2="200.75" stroke="#9482C6"/>
<circle cx="977.5" cy="200.5" r="11.875" stroke="#9482C6" stroke-width="1.25"/>
<path d="M975 196.67L982.5 201L975 205.33V196.67Z" fill="white" stroke="#9482C6"/>
<circle cx="1058.5" cy="200.5" r="11.875" stroke="#9482C6" stroke-width="1.25"/>
<path d="M1056 196.67L1063.5 201L1056 205.33V196.67Z" fill="white" stroke="#9482C6"/>
<circle cx="1139.5" cy="200.5" r="11.875" stroke="#9482C6" stroke-width="1.25"/>
<line x1="1133" y1="196.5" x2="1146" y2="196.5" stroke="#9482C6"/>
<line x1="1133" y1="205" x2="1146" y2="205" stroke="#9482C6"/>
<line x1="1133" y1="200.75" x2="1146" y2="200.75" stroke="#9482C6"/>
<circle cx="1220.5" cy="200.5" r="11.875" stroke="#9482C6" stroke-width="1.25"/>
<line x1="1214" y1="196.5" x2="1227" y2="196.5" stroke="#9482C6"/>
<line x1="1214" y1="205" x2="1227" y2="205" stroke="#9482C6"/>
<line x1="1214" y1="200.75" x2="1227" y2="200.75" stroke="#9482C6"/>
<rect x="466" y="632" width="358" height="54" rx="11" fill="#DEDEDE"/>
<rect x="852" y="632" width="358" height="54" rx="11" fill="#DEDEDE"/>
<rect x="466" y="717" width="358" height="54" rx="11" fill="#DEDEDE"/>
<rect x="852" y="717" width="358" height="54" rx="11" fill="#DEDEDE"/>
<rect x="548" y="198" width="172" height="3" rx="1.5" fill="#E2E2E2"/>
<rect x="466" y="417" width="751" height="8" rx="4" fill="#DEDEDE"/>
<rect x="466" y="439" width="751" height="8" rx="4" fill="#DEDEDE"/>
<rect x="466" y="461" width="751" height="8" rx="4" fill="#DEDEDE"/>
<rect x="466" y="483" width="751" height="8" rx="4" fill="#DEDEDE"/>
<rect x="466" y="505" width="751" height="8" rx="4" fill="#DEDEDE"/>
<rect x="466" y="527" width="455" height="8" rx="4" fill="#DEDEDE"/>
</g>
<rect x="104.5" y="0.5" width="1439" height="890" stroke="black"/>
<rect x="0.5" y="532.5" width="538" height="324" fill="white"/>
<circle cx="79" cy="788" r="9" fill="#9DBA99"/>
<line x1="86.381" y1="783.215" x2="171.381" y2="716.215" stroke="#B7B7B7" stroke-width="2"/>
<line x1="180.188" y1="709.416" x2="244.188" y2="620.416" stroke="#B7B7B7" stroke-width="2"/>
<line x1="247.66" y1="616.249" x2="355.66" y2="711.249" stroke="#B7B7B7" stroke-width="2"/>
<line x1="357.397" y1="711.202" x2="459.397" y2="634.202" stroke="#B7B7B7" stroke-width="2"/>
<circle cx="177" cy="712" r="9" fill="#9DBA99"/>
<circle cx="247" cy="617" r="9" fill="#9DBA99"/>
<circle cx="355" cy="712" r="9" fill="#BAA799"/>
<circle cx="460" cy="635" r="9" fill="#9DBA99"/>
<rect x="0.5" y="532.5" width="538" height="324" stroke="black"/>
<defs>
<linearGradient id="paint0_linear_0_1" x1="104" y1="130" x2="1544" y2="130" gradientUnits="userSpaceOnUse">
<stop stop-color="#5577CE"/>
<stop offset="0.489583" stop-color="#9B82C4"/>
<stop offset="1" stop-color="#687BCC"/>
</linearGradient>
<clipPath id="clip0_0_1">
<rect x="104" width="1440" height="891" fill="white"/>
</clipPath>
</defs>
</svg>
