<svg id="ufo" xmlns="http://www.w3.org/2000/svg" width="180" height="180" viewBox="0 0 180 180">
  <path id="Path_102" data-name="Path 102"
        d="M180,90a89.618,89.618,0,0,1-11.535,44.113c-.129.23-.258.461-.39.687s-.265.461-.4.687a90.5,90.5,0,0,1-21.586,24.9q-3.22,2.576-6.679,4.848c-.488.32-.976.636-1.472.949q-3.127,1.979-6.425,3.693a90.168,90.168,0,0,1-83.03,0q-3.5-1.821-6.8-3.931c-.367-.234-.734-.468-1.1-.707A90.546,90.546,0,0,1,25.2,152.453q-2.295-2.383-4.415-4.93a89.447,89.447,0,0,1-6.515-8.884c-.086-.137-.176-.273-.262-.41-.148-.223-.289-.445-.429-.671s-.281-.453-.418-.679l-.375-.621A89.327,89.327,0,0,1,2.74,112.115c-.265-1.038-.507-2.081-.734-3.131A90.078,90.078,0,0,1,108.984,2.006c1.05.226,2.092.468,3.131.734a89.965,89.965,0,0,1,46.428,28.933q.89,1.042,1.749,2.116A89.62,89.62,0,0,1,180,90Z"
        fill="#27536b"/>
  <g id="Group_25" data-name="Group 25" transform="translate(10.085 26.395)">
    <path id="Path_103" data-name="Path 103"
          d="M367.879,127.766l11-1.216-11-1.216-1.216-11-1.216,11-11,1.216,11,1.216,1.216,11Z"
          transform="translate(-239.919 -100.531)" fill="#fff"/>
    <path id="Path_104" data-name="Path 104"
          d="M391.372,333.33l15.1-1.67-15.1-1.67-1.669-15.1-1.67,15.1-15.1,1.67,15.1,1.67,1.67,15.1Z"
          transform="translate(-251.908 -230.581)" fill="#fff"/>
    <path id="Path_105" data-name="Path 105"
          d="M47.128,181.2l15.1-1.67-15.1-1.67-1.67-15.1-1.67,15.1-15.1,1.67,15.1,1.67,1.67,15.1Z"
          transform="translate(-28.687 -131.934)" fill="#fff"/>
    <rect id="Rectangle_28" data-name="Rectangle 28" width="3.643" height="3.643"
          transform="translate(36.978 32.09) rotate(-135)" fill="#fff"/>
    <rect id="Rectangle_29" data-name="Rectangle 29" width="3.643" height="3.643"
          transform="translate(47.127 68.999) rotate(-135)" fill="#fff"/>
    <rect id="Rectangle_30" data-name="Rectangle 30" width="3.643" height="3.643"
          transform="translate(52.202 80.178) rotate(-135)" fill="#fff"/>
    <rect id="Rectangle_31" data-name="Rectangle 31" width="3.643" height="3.643"
          transform="translate(149.787 86.192) rotate(-135)" fill="#fff"/>
    <rect id="Rectangle_32" data-name="Rectangle 32" width="3.643" height="3.643"
          transform="translate(120.174 63.847) rotate(-135)" fill="#fff"/>
    <rect id="Rectangle_33" data-name="Rectangle 33" width="3.643" height="3.643"
          transform="translate(19.607 103.117) rotate(-135)" fill="#fff"/>
    <rect id="Rectangle_34" data-name="Rectangle 34" width="3.643" height="3.643"
          transform="translate(133.402 5.152) rotate(-135)" fill="#fff"/>
  </g>
  <path id="Path_106" data-name="Path 106"
        d="M214.275,285.663c-.488.32-.976.636-1.472.948q-3.127,1.979-6.425,3.693a89.965,89.965,0,0,1-83.03,0q-3.5-1.821-6.8-3.931c-.367-.234-.734-.468-1.1-.707L160.3,185.723h9.126Z"
        transform="translate(-74.863 -120.43)" fill="#e8c172"/>
  <path id="Path_107" data-name="Path 107" d="M233.146,296.288a90.506,90.506,0,0,1-54.129,0l24.244-110.565H208.9Z"
        transform="translate(-116.081 -120.43)" fill="#fcd57e"/>
  <g id="Group_26" data-name="Group 26" transform="translate(80.354 142.911)">
    <path id="Path_108" data-name="Path 108"
          d="M230.951,433.294l1,1.195a19.9,19.9,0,0,1,3.23,5.312,16.606,16.606,0,0,1,1.341,6.374l-.059,1.561-3.12-.122.059-1.556a14.531,14.531,0,0,0-1.624-6.19,16.554,16.554,0,0,0-2.214-3.369l-1.007-1.192Z"
          transform="translate(-228.562 -423.875)" fill="#fff"/>
    <path id="Path_109" data-name="Path 109"
          d="M254.241,437.03a38.78,38.78,0,0,1,1.928,5.259l.417,1.506-3,.836-.42-1.5a35.506,35.506,0,0,0-2.028-5.353,11.765,11.765,0,0,0-2.246-3.4l-1.145-1.06,2.123-2.293,1.145,1.06A15.974,15.974,0,0,1,254.241,437.03Z"
          transform="translate(-240.999 -422.404)" fill="#fff"/>
    <path id="Path_110" data-name="Path 110"
          d="M285.905,419.09l.771,1.358a10.393,10.393,0,0,1,1.2,4.65,18.512,18.512,0,0,1-.461,4.862l-.387,1.512L284,430.7l.384-1.51a14.4,14.4,0,0,0,.361-2.609,8.744,8.744,0,0,0-.779-4.591l-.771-1.358Z"
          transform="translate(-263.987 -414.665)" fill="#fff"/>
    <path id="Path_111" data-name="Path 111"
          d="M299.512,406.5l.934,1.251a21.782,21.782,0,0,1,1.221,1.818,20.274,20.274,0,0,1,2.927,8.875l.062,1.559-3.12.121-.062-1.553a15.652,15.652,0,0,0-.891-3.972,18.608,18.608,0,0,0-2.639-4.981l-.934-1.251Z"
          transform="translate(-272.946 -406.503)" fill="#fff"/>
  </g>
  <path id="Path_112" data-name="Path 112"
        d="M294.443,362.488a5.256,5.256,0,0,1-1.878,1.13,3.1,3.1,0,0,1-3.323-.45c-.981-1.029-1.447-3.506-1.665-5.867a16.825,16.825,0,0,0-6.73,2.977l-.721-.923a18.88,18.88,0,0,1,4.273-2.382,13.738,13.738,0,0,1,3.088-.846c-.123-1.971-.093-3.658-.084-4.047l1.171.028c-.021.887-.011,2.352.085,3.913a8.2,8.2,0,0,1,4.462,1.066c2.112,1.228,2.452,2.545,2.366,3.433A3.185,3.185,0,0,1,294.443,362.488Zm-5.695-5.3c.2,2.217.6,4.386,1.342,5.168a2.075,2.075,0,0,0,2.094.151,2.96,2.96,0,0,0,2.138-2.1c.1-.991-.919-1.8-1.788-2.307A6.991,6.991,0,0,0,288.748,357.191Z"
        transform="translate(-181.645 -228.301)" fill="#a3682e"/>
  <path id="Path_113" data-name="Path 113"
        d="M248.537,421.992a8.741,8.741,0,0,1,.779,4.591q1.516-.668,3.131-1.485a10.393,10.393,0,0,0-1.2-4.65l-.771-1.358-2.713,1.545Zm-18.97,5.3a16.549,16.549,0,0,1,2.214,3.369,1.593,1.593,0,0,0,.393.073,20.684,20.684,0,0,0,3.01-.141,19.889,19.889,0,0,0-3.23-5.312l-1-1.195-2.389,2.013Z"
        transform="translate(-148.208 -271.753)" fill="#e6e6e6"/>
  <path id="Path_114" data-name="Path 114"
        d="M176.113,394.032l-8.3-3.907,9.13.9a1.584,1.584,0,1,1-.31,3.154A1.612,1.612,0,0,1,176.113,394.032Z"
        transform="translate(-108.816 -252.972)" fill="#a3682e"/>
  <path id="Path_115" data-name="Path 115"
        d="M217.481,366.178a5.853,5.853,0,0,0-4.579.876c-.915.624-2.483,1.65-4.415,2.746a43.974,43.974,0,0,1-8.225,3.7,14.553,14.553,0,0,1-7.9.617,6.649,6.649,0,0,0-3.2-.093,6.519,6.519,0,0,0-5.078,5.687c-.165,1.581-.391,3.29-.671,5.084a1.559,1.559,0,0,0,.481,1.387,1.579,1.579,0,0,0,1.424.374c3.7-.881,6.094-.39,8.359.979a33.086,33.086,0,0,1,4.52,3.576c.457.406.925.817,1.414,1.241.282.238.566.48.861.728a1.556,1.556,0,0,0,.919.364c.389.018,9.656.416,22.83-7a4.587,4.587,0,0,0,2.209-2.882,10.237,10.237,0,0,0-.663-5.85,38.523,38.523,0,0,0-2.813-5.909c-.411-.725-.832-1.445-1.257-2.151-.162-.266-.3-.5-.417-.7A5.9,5.9,0,0,0,217.481,366.178Z"
        transform="translate(-118.919 -237.352)" fill="#fff"/>
  <g id="Group_27" data-name="Group 27" transform="translate(62.915 132.449)">
    <path id="Path_116" data-name="Path 116"
          d="M187.259,385.5l-8.3-3.907,9.13.9a1.584,1.584,0,0,1-.309,3.154A1.624,1.624,0,0,1,187.259,385.5Z"
          transform="translate(-178.958 -379.891)" fill="#a3682e"/>
    <path id="Path_117" data-name="Path 117"
          d="M239.6,376.744a4.564,4.564,0,1,1-8.225,3.7A43.97,43.97,0,0,0,239.6,376.744Z"
          transform="translate(-212.948 -376.744)" fill="#a3682e"/>
  </g>
  <circle id="Ellipse_14" data-name="Ellipse 14" cx="22.12" cy="22.12" r="22.12" transform="translate(67.878 13.335)"
          fill="#51bee5"/>
  <path id="Path_118" data-name="Path 118"
        d="M204.27,60.056a22.127,22.127,0,0,1,16.524-21.4,22.12,22.12,0,1,0,0,42.808A22.127,22.127,0,0,1,204.27,60.056Z"
        transform="translate(-125.2 -24.599)" fill="#46b5d3"/>
  <g id="Group_28" data-name="Group 28" transform="translate(74.757 134.446)">
    <path id="Path_119" data-name="Path 119"
          d="M283.964,382.425a38.574,38.574,0,0,1,2.813,5.909,13.554,13.554,0,0,1-1.416.659c-3.6,1.449-7.07,1.233-7.758-.473s1.676-4.267,5.277-5.71C283.243,382.664,283.605,382.535,283.964,382.425Z"
          transform="translate(-254.688 -382.425)" fill="#a3682e"/>
    <path id="Path_120" data-name="Path 120"
          d="M222,421.832c1.325,1.39.849,4-1.059,5.814a6.285,6.285,0,0,1-1.427,1.032l-.94-.646c-.489-.423-.958-.835-1.414-1.241a33.069,33.069,0,0,0-4.52-3.576,2.655,2.655,0,0,1,.321-.365C214.875,421.026,220.679,420.444,222,421.832Z"
          transform="translate(-212.641 -407.479)" fill="#a3682e"/>
    <ellipse id="Ellipse_15" data-name="Ellipse 15" cx="1.887" cy="3.318" rx="1.887" ry="3.318"
             transform="translate(15.003 13.299) rotate(-116.852)" fill="#a3682e"/>
  </g>
  <circle id="Ellipse_16" data-name="Ellipse 16" cx="0.853" cy="0.853" r="0.853" transform="translate(68.562 139.394)"
          fill="#333"/>
  <path id="Path_121" data-name="Path 121"
        d="M228.2,113.607a12.736,12.736,0,0,1-12.753,12.749H175.112a12.736,12.736,0,0,1-12.753-12.749,12.962,12.962,0,0,1,.265-2.6,12.762,12.762,0,0,1,12.487-10.149h40.334A12.763,12.763,0,0,1,227.933,111,12.961,12.961,0,0,1,228.2,113.607Z"
        transform="translate(-105.28 -65.398)" fill="#e6e6e6"/>
  <path id="Path_122" data-name="Path 122"
        d="M175.507,116.206a12.676,12.676,0,0,1-.265-2.6,12.961,12.961,0,0,1,.265-2.6,12.762,12.762,0,0,1,12.487-10.149H175.113A12.762,12.762,0,0,0,162.625,111a12.962,12.962,0,0,0-.265,2.6,12.755,12.755,0,0,0,12.753,12.749h12.881a12.763,12.763,0,0,1-12.487-10.149Z"
        transform="translate(-105.28 -65.398)" fill="#ccc"/>
  <g id="Group_29" data-name="Group 29" transform="translate(57.079 45.605)">
    <path id="Path_123" data-name="Path 123" d="M246.773,177.729H224.914l1.678-4.334h18.5Z"
          transform="translate(-202.922 -158.041)" fill="#f77759"/>
    <path id="Path_124" data-name="Path 124"
          d="M228.2,132.326a12.676,12.676,0,0,1-.265,2.6H162.624a12.676,12.676,0,0,1-.265-2.6,12.962,12.962,0,0,1,.265-2.6h65.309A12.966,12.966,0,0,1,228.2,132.326Z"
          transform="translate(-162.359 -129.722)" fill="#f77759"/>
  </g>
  <ellipse id="Ellipse_17" data-name="Ellipse 17" cx="2.927" cy="4.489" rx="2.927" ry="4.489"
           transform="translate(98.199 21.793)" fill="#73d5ef"/>
  <path id="Path_125" data-name="Path 125"
        d="M175.241,132.326a12.676,12.676,0,0,0,.265,2.6H162.625a12.676,12.676,0,0,1-.265-2.6,12.962,12.962,0,0,1,.265-2.6h12.881A12.966,12.966,0,0,0,175.241,132.326Z"
        transform="translate(-105.28 -84.117)" fill="#c1533e"/>
</svg>
