<svg width="1440" height="1017" viewBox="0 0 1440 1017" fill="none" xmlns="http://www.w3.org/2000/svg">
<g clip-path="url(#clip0_501_627)">
<rect width="1440" height="1017" fill="white"/>
<rect y="79" width="1440" height="102" fill="url(#paint0_linear_501_627)"/>
<path d="M562.32 148L555.64 138.64C554.653 138.773 553.747 138.84 552.92 138.84H544.92V148H542.88V120H552.92C556.44 120 559.2 120.84 561.2 122.52C563.2 124.173 564.2 126.48 564.2 129.44C564.2 131.653 563.627 133.52 562.48 135.04C561.36 136.533 559.747 137.587 557.64 138.2L564.64 148H562.32ZM552.92 137.04C555.907 137.04 558.187 136.387 559.76 135.08C561.333 133.747 562.12 131.867 562.12 129.44C562.12 127.013 561.333 125.147 559.76 123.84C558.187 122.507 555.907 121.84 552.92 121.84H544.92V137.04H552.92ZM593.789 146.16V148H574.469V120H593.189V121.84H576.509V132.88H591.429V134.68H576.509V146.16H593.789ZM621.347 140.12H605.107L601.547 148H599.347L612.227 120H614.267L627.147 148H624.947L621.347 140.12ZM620.587 138.4L613.227 122.24L605.907 138.4H620.587ZM654.47 148L647.79 138.64C646.803 138.773 645.897 138.84 645.07 138.84H637.07V148H635.03V120H645.07C648.59 120 651.35 120.84 653.35 122.52C655.35 124.173 656.35 126.48 656.35 129.44C656.35 131.653 655.777 133.52 654.63 135.04C653.51 136.533 651.897 137.587 649.79 138.2L656.79 148H654.47ZM645.07 137.04C648.057 137.04 650.337 136.387 651.91 135.08C653.483 133.747 654.27 131.867 654.27 129.44C654.27 127.013 653.483 125.147 651.91 123.84C650.337 122.507 648.057 121.84 645.07 121.84H637.07V137.04H645.07ZM717.133 120L707.653 148H705.493L696.813 122.88L688.093 148H685.933L676.413 120H678.573L687.093 145.2L695.853 120H697.813L706.533 145.24L715.133 120H717.133ZM725.813 120H727.853V148H725.813V120ZM763.21 120V148H761.53L742.45 123.68V148H740.41V120H742.13L761.17 144.32V120H763.21ZM775.788 120H786.868C789.774 120 792.348 120.6 794.588 121.8C796.854 123 798.614 124.667 799.868 126.8C801.121 128.907 801.748 131.307 801.748 134C801.748 136.693 801.121 139.107 799.868 141.24C798.614 143.347 796.854 145 794.588 146.2C792.348 147.4 789.774 148 786.868 148H775.788V120ZM786.708 146.16C789.294 146.16 791.574 145.653 793.548 144.64C795.521 143.6 797.041 142.16 798.108 140.32C799.174 138.48 799.708 136.373 799.708 134C799.708 131.627 799.174 129.52 798.108 127.68C797.041 125.84 795.521 124.413 793.548 123.4C791.574 122.36 789.294 121.84 786.708 121.84H777.828V146.16H786.708ZM823.515 148.2C820.768 148.2 818.288 147.587 816.075 146.36C813.861 145.107 812.115 143.4 810.835 141.24C809.581 139.08 808.955 136.667 808.955 134C808.955 131.333 809.581 128.92 810.835 126.76C812.115 124.6 813.861 122.907 816.075 121.68C818.288 120.427 820.768 119.8 823.515 119.8C826.261 119.8 828.741 120.413 830.955 121.64C833.168 122.867 834.901 124.56 836.155 126.72C837.435 128.88 838.075 131.307 838.075 134C838.075 136.693 837.435 139.12 836.155 141.28C834.901 143.44 833.168 145.133 830.955 146.36C828.741 147.587 826.261 148.2 823.515 148.2ZM823.515 146.32C825.861 146.32 827.981 145.787 829.875 144.72C831.768 143.653 833.261 142.187 834.355 140.32C835.448 138.427 835.995 136.32 835.995 134C835.995 131.68 835.448 129.587 834.355 127.72C833.261 125.827 831.768 124.347 829.875 123.28C827.981 122.213 825.861 121.68 823.515 121.68C821.168 121.68 819.035 122.213 817.115 123.28C815.221 124.347 813.728 125.827 812.635 127.72C811.541 129.587 810.995 131.68 810.995 134C810.995 136.32 811.541 138.427 812.635 140.32C813.728 142.187 815.221 143.653 817.115 144.72C819.035 145.787 821.168 146.32 823.515 146.32ZM884.531 120L875.051 148H872.891L864.211 122.88L855.491 148H853.331L843.811 120H845.971L854.491 145.2L863.251 120H865.211L873.931 145.24L882.531 120H884.531Z" fill="white"/>
<rect y="-1" width="1440" height="80" fill="white"/>
<circle cx="1346" cy="39" r="25" fill="#F7F7F8"/>
<rect x="1332" y="31" width="27" height="1" fill="black"/>
<rect x="1332" y="47" width="27" height="1" fill="black"/>
<rect x="1332" y="39" width="27" height="1" fill="black"/>
<rect x="791" y="20" width="419" height="39" rx="19.5" fill="#F7F7F8"/>
<path d="M78.528 32.4L72.948 45H71.634L66.054 32.4H67.494L72.318 43.344L77.178 32.4H78.528ZM80.034 35.532H81.312V45H80.034V35.532ZM80.682 33.462C80.418 33.462 80.196 33.372 80.016 33.192C79.836 33.012 79.746 32.796 79.746 32.544C79.746 32.304 79.836 32.094 80.016 31.914C80.196 31.734 80.418 31.644 80.682 31.644C80.946 31.644 81.168 31.734 81.348 31.914C81.528 32.082 81.618 32.286 81.618 32.526C81.618 32.79 81.528 33.012 81.348 33.192C81.168 33.372 80.946 33.462 80.682 33.462ZM93.5079 31.644V45H92.2839V43.128C91.8999 43.764 91.3899 44.25 90.7539 44.586C90.1299 44.922 89.4219 45.09 88.6299 45.09C87.7419 45.09 86.9379 44.886 86.2179 44.478C85.4979 44.07 84.9339 43.5 84.5259 42.768C84.1179 42.036 83.9139 41.202 83.9139 40.266C83.9139 39.33 84.1179 38.496 84.5259 37.764C84.9339 37.032 85.4979 36.468 86.2179 36.072C86.9379 35.664 87.7419 35.46 88.6299 35.46C89.3979 35.46 90.0879 35.622 90.6999 35.946C91.3239 36.258 91.8339 36.72 92.2299 37.332V31.644H93.5079ZM88.7379 43.956C89.3979 43.956 89.9919 43.806 90.5199 43.506C91.0599 43.194 91.4799 42.756 91.7799 42.192C92.0919 41.628 92.2479 40.986 92.2479 40.266C92.2479 39.546 92.0919 38.904 91.7799 38.34C91.4799 37.776 91.0599 37.344 90.5199 37.044C89.9919 36.732 89.3979 36.576 88.7379 36.576C88.0659 36.576 87.4599 36.732 86.9199 37.044C86.3919 37.344 85.9719 37.776 85.6599 38.34C85.3599 38.904 85.2099 39.546 85.2099 40.266C85.2099 40.986 85.3599 41.628 85.6599 42.192C85.9719 42.756 86.3919 43.194 86.9199 43.506C87.4599 43.806 88.0659 43.956 88.7379 43.956ZM105.311 40.662H97.3912C97.4632 41.646 97.8412 42.444 98.5252 43.056C99.2092 43.656 100.073 43.956 101.117 43.956C101.705 43.956 102.245 43.854 102.737 43.65C103.229 43.434 103.655 43.122 104.015 42.714L104.735 43.542C104.315 44.046 103.787 44.43 103.151 44.694C102.527 44.958 101.837 45.09 101.081 45.09C100.109 45.09 99.2452 44.886 98.4892 44.478C97.7452 44.058 97.1632 43.482 96.7432 42.75C96.3232 42.018 96.1132 41.19 96.1132 40.266C96.1132 39.342 96.3112 38.514 96.7072 37.782C97.1152 37.05 97.6672 36.48 98.3632 36.072C99.0712 35.664 99.8632 35.46 100.739 35.46C101.615 35.46 102.401 35.664 103.097 36.072C103.793 36.48 104.339 37.05 104.735 37.782C105.131 38.502 105.329 39.33 105.329 40.266L105.311 40.662ZM100.739 36.558C99.8272 36.558 99.0592 36.852 98.4352 37.44C97.8232 38.016 97.4752 38.772 97.3912 39.708H104.105C104.021 38.772 103.667 38.016 103.043 37.44C102.431 36.852 101.663 36.558 100.739 36.558ZM111.8 45.09C110.888 45.09 110.066 44.886 109.334 44.478C108.602 44.058 108.026 43.482 107.606 42.75C107.186 42.018 106.976 41.19 106.976 40.266C106.976 39.342 107.186 38.514 107.606 37.782C108.026 37.05 108.602 36.48 109.334 36.072C110.066 35.664 110.888 35.46 111.8 35.46C112.712 35.46 113.534 35.664 114.266 36.072C114.998 36.48 115.568 37.05 115.976 37.782C116.396 38.514 116.606 39.342 116.606 40.266C116.606 41.19 116.396 42.018 115.976 42.75C115.568 43.482 114.998 44.058 114.266 44.478C113.534 44.886 112.712 45.09 111.8 45.09ZM111.8 43.956C112.472 43.956 113.072 43.806 113.6 43.506C114.14 43.194 114.56 42.756 114.86 42.192C115.16 41.628 115.31 40.986 115.31 40.266C115.31 39.546 115.16 38.904 114.86 38.34C114.56 37.776 114.14 37.344 113.6 37.044C113.072 36.732 112.472 36.576 111.8 36.576C111.128 36.576 110.522 36.732 109.982 37.044C109.454 37.344 109.034 37.776 108.722 38.34C108.422 38.904 108.272 39.546 108.272 40.266C108.272 40.986 108.422 41.628 108.722 42.192C109.034 42.756 109.454 43.194 109.982 43.506C110.522 43.806 111.128 43.956 111.8 43.956ZM121.754 45.09C120.986 45.09 120.248 44.982 119.54 44.766C118.844 44.538 118.298 44.256 117.902 43.92L118.478 42.912C118.874 43.224 119.372 43.482 119.972 43.686C120.572 43.878 121.196 43.974 121.844 43.974C122.708 43.974 123.344 43.842 123.752 43.578C124.172 43.302 124.382 42.918 124.382 42.426C124.382 42.078 124.268 41.808 124.04 41.616C123.812 41.412 123.524 41.262 123.176 41.166C122.828 41.058 122.366 40.956 121.79 40.86C121.022 40.716 120.404 40.572 119.936 40.428C119.468 40.272 119.066 40.014 118.73 39.654C118.406 39.294 118.244 38.796 118.244 38.16C118.244 37.368 118.574 36.72 119.234 36.216C119.894 35.712 120.812 35.46 121.988 35.46C122.6 35.46 123.212 35.544 123.824 35.712C124.436 35.868 124.94 36.078 125.336 36.342L124.778 37.368C123.998 36.828 123.068 36.558 121.988 36.558C121.172 36.558 120.554 36.702 120.134 36.99C119.726 37.278 119.522 37.656 119.522 38.124C119.522 38.484 119.636 38.772 119.864 38.988C120.104 39.204 120.398 39.366 120.746 39.474C121.094 39.57 121.574 39.672 122.186 39.78C122.942 39.924 123.548 40.068 124.004 40.212C124.46 40.356 124.85 40.602 125.174 40.95C125.498 41.298 125.66 41.778 125.66 42.39C125.66 43.218 125.312 43.878 124.616 44.37C123.932 44.85 122.978 45.09 121.754 45.09Z" fill="black"/>
<path d="M208.742 46.062C208.358 46.53 207.902 46.884 207.374 47.124C206.858 47.376 206.294 47.502 205.682 47.502C204.938 47.502 204.23 47.316 203.558 46.944C202.898 46.584 202.154 45.972 201.326 45.108C200.114 45.072 199.022 44.772 198.05 44.208C197.078 43.644 196.316 42.882 195.764 41.922C195.212 40.962 194.936 39.888 194.936 38.7C194.936 37.488 195.218 36.396 195.782 35.424C196.358 34.452 197.15 33.69 198.158 33.138C199.178 32.574 200.312 32.292 201.56 32.292C202.808 32.292 203.93 32.568 204.926 33.12C205.934 33.672 206.726 34.44 207.302 35.424C207.878 36.396 208.166 37.488 208.166 38.7C208.166 39.756 207.944 40.728 207.5 41.616C207.068 42.492 206.456 43.224 205.664 43.812C204.884 44.4 203.984 44.79 202.964 44.982C203.888 45.954 204.8 46.44 205.7 46.44C206.636 46.44 207.434 46.056 208.094 45.288L208.742 46.062ZM196.25 38.7C196.25 39.684 196.478 40.572 196.934 41.364C197.402 42.156 198.038 42.78 198.842 43.236C199.658 43.692 200.564 43.92 201.56 43.92C202.556 43.92 203.456 43.692 204.26 43.236C205.064 42.78 205.694 42.156 206.15 41.364C206.606 40.572 206.834 39.684 206.834 38.7C206.834 37.716 206.606 36.828 206.15 36.036C205.694 35.244 205.064 34.62 204.26 34.164C203.456 33.708 202.556 33.48 201.56 33.48C200.564 33.48 199.658 33.708 198.842 34.164C198.038 34.62 197.402 35.244 196.934 36.036C196.478 36.828 196.25 37.716 196.25 38.7ZM219.414 35.532V45H218.19V43.272C217.854 43.848 217.392 44.298 216.804 44.622C216.216 44.934 215.544 45.09 214.788 45.09C213.552 45.09 212.574 44.748 211.854 44.064C211.146 43.368 210.792 42.354 210.792 41.022V35.532H212.07V40.896C212.07 41.892 212.316 42.648 212.808 43.164C213.3 43.68 214.002 43.938 214.914 43.938C215.91 43.938 216.696 43.638 217.272 43.038C217.848 42.426 218.136 41.58 218.136 40.5V35.532H219.414ZM231.237 40.662H223.317C223.389 41.646 223.767 42.444 224.451 43.056C225.135 43.656 225.999 43.956 227.043 43.956C227.631 43.956 228.171 43.854 228.663 43.65C229.155 43.434 229.581 43.122 229.941 42.714L230.661 43.542C230.241 44.046 229.713 44.43 229.077 44.694C228.453 44.958 227.763 45.09 227.007 45.09C226.035 45.09 225.171 44.886 224.415 44.478C223.671 44.058 223.089 43.482 222.669 42.75C222.249 42.018 222.039 41.19 222.039 40.266C222.039 39.342 222.237 38.514 222.633 37.782C223.041 37.05 223.593 36.48 224.289 36.072C224.997 35.664 225.789 35.46 226.665 35.46C227.541 35.46 228.327 35.664 229.023 36.072C229.719 36.48 230.265 37.05 230.661 37.782C231.057 38.502 231.255 39.33 231.255 40.266L231.237 40.662ZM226.665 36.558C225.753 36.558 224.985 36.852 224.361 37.44C223.749 38.016 223.401 38.772 223.317 39.708H230.031C229.947 38.772 229.593 38.016 228.969 37.44C228.357 36.852 227.589 36.558 226.665 36.558ZM236.394 45.09C235.626 45.09 234.888 44.982 234.18 44.766C233.484 44.538 232.938 44.256 232.542 43.92L233.118 42.912C233.514 43.224 234.012 43.482 234.612 43.686C235.212 43.878 235.836 43.974 236.484 43.974C237.348 43.974 237.984 43.842 238.392 43.578C238.812 43.302 239.022 42.918 239.022 42.426C239.022 42.078 238.908 41.808 238.68 41.616C238.452 41.412 238.164 41.262 237.816 41.166C237.468 41.058 237.006 40.956 236.43 40.86C235.662 40.716 235.044 40.572 234.576 40.428C234.108 40.272 233.706 40.014 233.37 39.654C233.046 39.294 232.884 38.796 232.884 38.16C232.884 37.368 233.214 36.72 233.874 36.216C234.534 35.712 235.452 35.46 236.628 35.46C237.24 35.46 237.852 35.544 238.464 35.712C239.076 35.868 239.58 36.078 239.976 36.342L239.418 37.368C238.638 36.828 237.708 36.558 236.628 36.558C235.812 36.558 235.194 36.702 234.774 36.99C234.366 37.278 234.162 37.656 234.162 38.124C234.162 38.484 234.276 38.772 234.504 38.988C234.744 39.204 235.038 39.366 235.386 39.474C235.734 39.57 236.214 39.672 236.826 39.78C237.582 39.924 238.188 40.068 238.644 40.212C239.1 40.356 239.49 40.602 239.814 40.95C240.138 41.298 240.3 41.778 240.3 42.39C240.3 43.218 239.952 43.878 239.256 44.37C238.572 44.85 237.618 45.09 236.394 45.09ZM247.649 44.424C247.409 44.64 247.109 44.808 246.749 44.928C246.401 45.036 246.035 45.09 245.651 45.09C244.763 45.09 244.079 44.85 243.599 44.37C243.119 43.89 242.879 43.212 242.879 42.336V36.612H241.187V35.532H242.879V33.462H244.157V35.532H247.037V36.612H244.157V42.264C244.157 42.828 244.295 43.26 244.571 43.56C244.859 43.848 245.267 43.992 245.795 43.992C246.059 43.992 246.311 43.95 246.551 43.866C246.803 43.782 247.019 43.662 247.199 43.506L247.649 44.424ZM249.975 35.532H251.253V45H249.975V35.532ZM250.623 33.462C250.359 33.462 250.137 33.372 249.957 33.192C249.777 33.012 249.687 32.796 249.687 32.544C249.687 32.304 249.777 32.094 249.957 31.914C250.137 31.734 250.359 31.644 250.623 31.644C250.887 31.644 251.109 31.734 251.289 31.914C251.469 32.082 251.559 32.286 251.559 32.526C251.559 32.79 251.469 33.012 251.289 33.192C251.109 33.372 250.887 33.462 250.623 33.462ZM258.679 45.09C257.767 45.09 256.945 44.886 256.213 44.478C255.481 44.058 254.905 43.482 254.485 42.75C254.065 42.018 253.855 41.19 253.855 40.266C253.855 39.342 254.065 38.514 254.485 37.782C254.905 37.05 255.481 36.48 256.213 36.072C256.945 35.664 257.767 35.46 258.679 35.46C259.591 35.46 260.413 35.664 261.145 36.072C261.877 36.48 262.447 37.05 262.855 37.782C263.275 38.514 263.485 39.342 263.485 40.266C263.485 41.19 263.275 42.018 262.855 42.75C262.447 43.482 261.877 44.058 261.145 44.478C260.413 44.886 259.591 45.09 258.679 45.09ZM258.679 43.956C259.351 43.956 259.951 43.806 260.479 43.506C261.019 43.194 261.439 42.756 261.739 42.192C262.039 41.628 262.189 40.986 262.189 40.266C262.189 39.546 262.039 38.904 261.739 38.34C261.439 37.776 261.019 37.344 260.479 37.044C259.951 36.732 259.351 36.576 258.679 36.576C258.007 36.576 257.401 36.732 256.861 37.044C256.333 37.344 255.913 37.776 255.601 38.34C255.301 38.904 255.151 39.546 255.151 40.266C255.151 40.986 255.301 41.628 255.601 42.192C255.913 42.756 256.333 43.194 256.861 43.506C257.401 43.806 258.007 43.956 258.679 43.956ZM270.919 35.46C272.107 35.46 273.049 35.808 273.745 36.504C274.453 37.188 274.807 38.19 274.807 39.51V45H273.529V39.636C273.529 38.652 273.283 37.902 272.791 37.386C272.299 36.87 271.597 36.612 270.685 36.612C269.665 36.612 268.855 36.918 268.255 37.53C267.667 38.13 267.373 38.964 267.373 40.032V45H266.095V35.532H267.319V37.278C267.667 36.702 268.147 36.258 268.759 35.946C269.383 35.622 270.103 35.46 270.919 35.46ZM280.814 45.09C280.046 45.09 279.308 44.982 278.6 44.766C277.904 44.538 277.358 44.256 276.962 43.92L277.538 42.912C277.934 43.224 278.432 43.482 279.032 43.686C279.632 43.878 280.256 43.974 280.904 43.974C281.768 43.974 282.404 43.842 282.812 43.578C283.232 43.302 283.442 42.918 283.442 42.426C283.442 42.078 283.328 41.808 283.1 41.616C282.872 41.412 282.584 41.262 282.236 41.166C281.888 41.058 281.426 40.956 280.85 40.86C280.082 40.716 279.464 40.572 278.996 40.428C278.528 40.272 278.126 40.014 277.79 39.654C277.466 39.294 277.304 38.796 277.304 38.16C277.304 37.368 277.634 36.72 278.294 36.216C278.954 35.712 279.872 35.46 281.048 35.46C281.66 35.46 282.272 35.544 282.884 35.712C283.496 35.868 284 36.078 284.396 36.342L283.838 37.368C283.058 36.828 282.128 36.558 281.048 36.558C280.232 36.558 279.614 36.702 279.194 36.99C278.786 37.278 278.582 37.656 278.582 38.124C278.582 38.484 278.696 38.772 278.924 38.988C279.164 39.204 279.458 39.366 279.806 39.474C280.154 39.57 280.634 39.672 281.246 39.78C282.002 39.924 282.608 40.068 283.064 40.212C283.52 40.356 283.91 40.602 284.234 40.95C284.558 41.298 284.72 41.778 284.72 42.39C284.72 43.218 284.372 43.878 283.676 44.37C282.992 44.85 282.038 45.09 280.814 45.09Z" fill="black"/>
<path d="M365.582 32.4V45H364.484L356.384 34.776V45H355.052V32.4H356.15L364.268 42.624V32.4H365.582ZM373.295 45.09C372.383 45.09 371.561 44.886 370.829 44.478C370.097 44.058 369.521 43.482 369.101 42.75C368.681 42.018 368.471 41.19 368.471 40.266C368.471 39.342 368.681 38.514 369.101 37.782C369.521 37.05 370.097 36.48 370.829 36.072C371.561 35.664 372.383 35.46 373.295 35.46C374.207 35.46 375.029 35.664 375.761 36.072C376.493 36.48 377.063 37.05 377.471 37.782C377.891 38.514 378.101 39.342 378.101 40.266C378.101 41.19 377.891 42.018 377.471 42.75C377.063 43.482 376.493 44.058 375.761 44.478C375.029 44.886 374.207 45.09 373.295 45.09ZM373.295 43.956C373.967 43.956 374.567 43.806 375.095 43.506C375.635 43.194 376.055 42.756 376.355 42.192C376.655 41.628 376.805 40.986 376.805 40.266C376.805 39.546 376.655 38.904 376.355 38.34C376.055 37.776 375.635 37.344 375.095 37.044C374.567 36.732 373.967 36.576 373.295 36.576C372.623 36.576 372.017 36.732 371.477 37.044C370.949 37.344 370.529 37.776 370.217 38.34C369.917 38.904 369.767 39.546 369.767 40.266C369.767 40.986 369.917 41.628 370.217 42.192C370.529 42.756 370.949 43.194 371.477 43.506C372.017 43.806 372.623 43.956 373.295 43.956ZM385.696 44.424C385.456 44.64 385.156 44.808 384.796 44.928C384.448 45.036 384.082 45.09 383.698 45.09C382.81 45.09 382.126 44.85 381.646 44.37C381.166 43.89 380.926 43.212 380.926 42.336V36.612H379.234V35.532H380.926V33.462H382.204V35.532H385.084V36.612H382.204V42.264C382.204 42.828 382.342 43.26 382.618 43.56C382.906 43.848 383.314 43.992 383.842 43.992C384.106 43.992 384.358 43.95 384.598 43.866C384.85 43.782 385.066 43.662 385.246 43.506L385.696 44.424ZM395.932 40.662H388.012C388.084 41.646 388.462 42.444 389.146 43.056C389.83 43.656 390.694 43.956 391.738 43.956C392.326 43.956 392.866 43.854 393.358 43.65C393.85 43.434 394.276 43.122 394.636 42.714L395.356 43.542C394.936 44.046 394.408 44.43 393.772 44.694C393.148 44.958 392.458 45.09 391.702 45.09C390.73 45.09 389.866 44.886 389.11 44.478C388.366 44.058 387.784 43.482 387.364 42.75C386.944 42.018 386.734 41.19 386.734 40.266C386.734 39.342 386.932 38.514 387.328 37.782C387.736 37.05 388.288 36.48 388.984 36.072C389.692 35.664 390.484 35.46 391.36 35.46C392.236 35.46 393.022 35.664 393.718 36.072C394.414 36.48 394.96 37.05 395.356 37.782C395.752 38.502 395.95 39.33 395.95 40.266L395.932 40.662ZM391.36 36.558C390.448 36.558 389.68 36.852 389.056 37.44C388.444 38.016 388.096 38.772 388.012 39.708H394.726C394.642 38.772 394.288 38.016 393.664 37.44C393.052 36.852 392.284 36.558 391.36 36.558ZM401.09 45.09C400.322 45.09 399.584 44.982 398.876 44.766C398.18 44.538 397.634 44.256 397.238 43.92L397.814 42.912C398.21 43.224 398.708 43.482 399.308 43.686C399.908 43.878 400.532 43.974 401.18 43.974C402.044 43.974 402.68 43.842 403.088 43.578C403.508 43.302 403.718 42.918 403.718 42.426C403.718 42.078 403.604 41.808 403.376 41.616C403.148 41.412 402.86 41.262 402.512 41.166C402.164 41.058 401.702 40.956 401.126 40.86C400.358 40.716 399.74 40.572 399.272 40.428C398.804 40.272 398.402 40.014 398.066 39.654C397.742 39.294 397.58 38.796 397.58 38.16C397.58 37.368 397.91 36.72 398.57 36.216C399.23 35.712 400.148 35.46 401.324 35.46C401.936 35.46 402.548 35.544 403.16 35.712C403.772 35.868 404.276 36.078 404.672 36.342L404.114 37.368C403.334 36.828 402.404 36.558 401.324 36.558C400.508 36.558 399.89 36.702 399.47 36.99C399.062 37.278 398.858 37.656 398.858 38.124C398.858 38.484 398.972 38.772 399.2 38.988C399.44 39.204 399.734 39.366 400.082 39.474C400.43 39.57 400.91 39.672 401.522 39.78C402.278 39.924 402.884 40.068 403.34 40.212C403.796 40.356 404.186 40.602 404.51 40.95C404.834 41.298 404.996 41.778 404.996 42.39C404.996 43.218 404.648 43.878 403.952 44.37C403.268 44.85 402.314 45.09 401.09 45.09Z" fill="black"/>
<circle cx="815" cy="37" r="8.25" fill="#F7F7F8" stroke="black" stroke-width="1.5"/>
<line x1="820.53" y1="42.4697" x2="829.53" y2="51.4697" stroke="black" stroke-width="1.5"/>
<rect x="-2" y="219.419" width="1442" height="2.163" fill="#E2E2E2"/>
<path d="M348.11 269.188H343.928V268.1H353.55V269.188H349.368V280H348.11V269.188ZM366.355 268.1V280H365.114V274.509H357.668V280H356.41V268.1H357.668V273.404H365.114V268.1H366.355ZM379.504 278.912V280H371.089V268.1H379.249V269.188H372.347V273.421H378.501V274.492H372.347V278.912H379.504ZM395.67 268.1V280H394.463V270.48L389.788 278.487H389.193L384.518 270.531V280H383.311V268.1H384.348L389.516 276.923L394.633 268.1H395.67ZM408.812 278.912V280H400.397V268.1H408.557V269.188H401.655V273.421H407.809V274.492H401.655V278.912H408.812ZM415.9 280.102C415.016 280.102 414.166 279.96 413.35 279.677C412.545 279.394 411.922 279.02 411.48 278.555L411.973 277.586C412.404 278.017 412.976 278.368 413.69 278.64C414.404 278.901 415.141 279.031 415.9 279.031C416.965 279.031 417.764 278.838 418.297 278.453C418.83 278.056 419.096 277.546 419.096 276.923C419.096 276.447 418.949 276.067 418.654 275.784C418.371 275.501 418.019 275.285 417.6 275.138C417.181 274.979 416.597 274.809 415.849 274.628C414.954 274.401 414.24 274.186 413.707 273.982C413.174 273.767 412.715 273.444 412.33 273.013C411.956 272.582 411.769 271.999 411.769 271.262C411.769 270.661 411.928 270.117 412.245 269.63C412.562 269.131 413.05 268.735 413.707 268.44C414.364 268.145 415.18 267.998 416.155 267.998C416.835 267.998 417.498 268.094 418.144 268.287C418.801 268.468 419.368 268.723 419.844 269.052L419.419 270.055C418.92 269.726 418.388 269.483 417.821 269.324C417.254 269.154 416.699 269.069 416.155 269.069C415.112 269.069 414.325 269.273 413.792 269.681C413.271 270.078 413.01 270.593 413.01 271.228C413.01 271.704 413.152 272.089 413.435 272.384C413.73 272.667 414.092 272.888 414.523 273.047C414.965 273.194 415.554 273.359 416.291 273.54C417.164 273.755 417.866 273.971 418.399 274.186C418.943 274.39 419.402 274.707 419.776 275.138C420.15 275.557 420.337 276.13 420.337 276.855C420.337 277.456 420.173 278.005 419.844 278.504C419.527 278.991 419.034 279.382 418.365 279.677C417.696 279.96 416.875 280.102 415.9 280.102Z" fill="black"/>
<path d="M18.6464 202.646C18.4512 202.842 18.4512 203.158 18.6464 203.354L21.8284 206.536C22.0237 206.731 22.3403 206.731 22.5355 206.536C22.7308 206.34 22.7308 206.024 22.5355 205.828L19.7071 203L22.5355 200.172C22.7308 199.976 22.7308 199.66 22.5355 199.464C22.3403 199.269 22.0237 199.269 21.8284 199.464L18.6464 202.646ZM31 202.5H19V203.5H31V202.5Z" fill="black"/>
<path d="M677.059 322L677.031 307.72L669.947 319.62H668.659L661.575 307.804V322H658.887V302.4H661.183L669.359 316.176L677.423 302.4H679.719L679.747 322H677.059ZM698.957 317.1H688.541L686.385 322H683.501L692.377 302.4H695.149L704.053 322H701.113L698.957 317.1ZM697.977 314.86L693.749 305.256L689.521 314.86H697.977ZM720.921 322L716.693 315.98C716.17 316.017 715.759 316.036 715.461 316.036H710.617V322H707.817V302.4H715.461C717.999 302.4 719.997 303.007 721.453 304.22C722.909 305.433 723.637 307.104 723.637 309.232C723.637 310.744 723.263 312.032 722.517 313.096C721.77 314.16 720.706 314.935 719.325 315.42L723.973 322H720.921ZM715.377 313.656C717.15 313.656 718.503 313.273 719.437 312.508C720.37 311.743 720.837 310.651 720.837 309.232C720.837 307.813 720.37 306.731 719.437 305.984C718.503 305.219 717.15 304.836 715.377 304.836H710.617V313.656H715.377ZM742.104 322L737.876 315.98C737.354 316.017 736.943 316.036 736.644 316.036H731.8V322H729V302.4H736.644C739.183 302.4 741.18 303.007 742.636 304.22C744.092 305.433 744.82 307.104 744.82 309.232C744.82 310.744 744.447 312.032 743.7 313.096C742.954 314.16 741.89 314.935 740.508 315.42L745.156 322H742.104ZM736.56 313.656C738.334 313.656 739.687 313.273 740.62 312.508C741.554 311.743 742.02 310.651 742.02 309.232C742.02 307.813 741.554 306.731 740.62 305.984C739.687 305.219 738.334 304.836 736.56 304.836H731.8V313.656H736.56ZM750.184 302.4H752.984V322H750.184V302.4ZM772.18 317.1H761.764L759.608 322H756.724L765.6 302.4H768.372L777.276 322H774.336L772.18 317.1ZM771.2 314.86L766.972 305.256L762.744 314.86H771.2ZM794.347 312.088H797.035V319.732C796.064 320.535 794.935 321.151 793.647 321.58C792.359 322.009 791.015 322.224 789.615 322.224C787.636 322.224 785.853 321.795 784.267 320.936C782.68 320.059 781.429 318.864 780.515 317.352C779.619 315.821 779.171 314.104 779.171 312.2C779.171 310.296 779.619 308.579 780.515 307.048C781.429 305.517 782.68 304.323 784.267 303.464C785.872 302.605 787.673 302.176 789.671 302.176C791.239 302.176 792.657 302.437 793.927 302.96C795.215 303.464 796.307 304.211 797.203 305.2L795.467 306.936C793.899 305.424 792.004 304.668 789.783 304.668C788.289 304.668 786.945 304.995 785.751 305.648C784.575 306.283 783.651 307.179 782.979 308.336C782.307 309.475 781.971 310.763 781.971 312.2C781.971 313.619 782.307 314.907 782.979 316.064C783.651 317.203 784.575 318.099 785.751 318.752C786.945 319.405 788.28 319.732 789.755 319.732C791.509 319.732 793.04 319.312 794.347 318.472V312.088ZM817.459 319.564V322H803.235V302.4H817.067V304.836H806.035V310.856H815.863V313.236H806.035V319.564H817.459Z" fill="black"/>
<path d="M384 219H654V222H384V219Z" fill="#5795CE"/>
<circle cx="322.5" cy="200.5" r="11.875" stroke="#4F534D" stroke-width="1.25"/>
<path d="M322 202C324.209 202 326 200.209 326 198C326 195.791 324.209 194 322 194C320.667 194 318 194.8 318 198" stroke="#4F534D" stroke-width="1.25"/>
<line x1="322.625" y1="205" x2="322.625" y2="202" stroke="#4F534D" stroke-width="1.25"/>
<circle cx="322.7" cy="207" r="1" fill="#8BC588"/>
<circle cx="406.5" cy="200.5" r="11.875" stroke="#4F534D" stroke-width="1.25"/>
<path d="M404 196.67L411.5 201L404 205.33V196.67Z" fill="white" stroke="#4F534D"/>
<circle cx="711.5" cy="200.5" r="11.875" stroke="#4F534D" stroke-width="1.25"/>
<path d="M709 196.67L716.5 201L709 205.33V196.67Z" fill="white" stroke="#4F534D"/>
<circle cx="792.5" cy="200.5" r="11.875" stroke="#4F534D" stroke-width="1.25"/>
<line x1="786" y1="196.5" x2="799" y2="196.5" stroke="#4F534D"/>
<line x1="786" y1="205" x2="799" y2="205" stroke="#4F534D"/>
<line x1="786" y1="200.75" x2="799" y2="200.75" stroke="#4F534D"/>
<circle cx="873.5" cy="200.5" r="11.875" stroke="#4F534D" stroke-width="1.25"/>
<path d="M871 196.67L878.5 201L871 205.33V196.67Z" fill="white" stroke="#4F534D"/>
<circle cx="954.5" cy="200.5" r="11.875" stroke="#4F534D" stroke-width="1.25"/>
<path d="M952 196.67L959.5 201L952 205.33V196.67Z" fill="white" stroke="#4F534D"/>
<circle cx="1035.5" cy="200.5" r="11.875" stroke="#4F534D" stroke-width="1.25"/>
<line x1="1029" y1="196.5" x2="1042" y2="196.5" stroke="#4F534D"/>
<line x1="1029" y1="205" x2="1042" y2="205" stroke="#4F534D"/>
<line x1="1029" y1="200.75" x2="1042" y2="200.75" stroke="#4F534D"/>
<circle cx="1116.5" cy="200.5" r="11.875" stroke="#4F534D" stroke-width="1.25"/>
<line x1="1110" y1="196.5" x2="1123" y2="196.5" stroke="#4F534D"/>
<line x1="1110" y1="205" x2="1123" y2="205" stroke="#4F534D"/>
<line x1="1110" y1="200.75" x2="1123" y2="200.75" stroke="#4F534D"/>
<rect x="344" y="366" width="789" height="408" fill="#070707"/>
<rect x="345" y="821" width="789" height="115" rx="20" fill="#F8F7F7"/>
<rect x="907" y="857" width="172" height="40" rx="7" fill="#B0B0B0"/>
<path d="M724.5 544.885L768 570L724.5 595.115V544.885Z" fill="#070707" stroke="#C5C5C5"/>
<rect x="721" y="544" width="3" height="52" fill="#C4C4C4"/>
<circle cx="417.5" cy="880.5" r="36.5" fill="#070707"/>
<path d="M479.723 860.2H487.583V861.07H484.163V871H483.143V861.07H479.723V860.2ZM493.303 866.575C493.303 866.195 493.248 865.84 493.138 865.51C493.038 865.17 492.883 864.88 492.673 864.64C492.473 864.39 492.218 864.195 491.908 864.055C491.598 863.905 491.243 863.83 490.843 863.83C490.443 863.83 490.088 863.905 489.778 864.055C489.478 864.205 489.218 864.405 488.998 864.655C488.788 864.905 488.618 865.195 488.488 865.525C488.358 865.855 488.273 866.205 488.233 866.575H493.303ZM488.233 867.325C488.233 867.745 488.288 868.145 488.398 868.525C488.508 868.895 488.668 869.22 488.878 869.5C489.098 869.77 489.373 869.99 489.703 870.16C490.033 870.32 490.413 870.4 490.843 870.4C491.433 870.4 491.938 870.245 492.358 869.935C492.778 869.625 493.058 869.185 493.198 868.615H494.203C494.093 868.985 493.948 869.33 493.768 869.65C493.588 869.96 493.363 870.235 493.093 870.475C492.823 870.705 492.503 870.885 492.133 871.015C491.763 871.145 491.333 871.21 490.843 871.21C490.223 871.21 489.688 871.105 489.238 870.895C488.788 870.685 488.418 870.4 488.128 870.04C487.838 869.67 487.623 869.24 487.483 868.75C487.343 868.25 487.273 867.715 487.273 867.145C487.273 866.575 487.353 866.04 487.513 865.54C487.683 865.04 487.918 864.605 488.218 864.235C488.528 863.855 488.903 863.56 489.343 863.35C489.783 863.13 490.283 863.02 490.843 863.02C491.913 863.02 492.753 863.39 493.363 864.13C493.973 864.86 494.273 865.925 494.263 867.325H488.233ZM501.548 866.92C501.168 867.08 500.783 867.185 500.393 867.235C500.003 867.285 499.613 867.325 499.223 867.355C498.533 867.405 497.993 867.56 497.603 867.82C497.223 868.08 497.033 868.475 497.033 869.005C497.033 869.245 497.078 869.455 497.168 869.635C497.268 869.805 497.393 869.95 497.543 870.07C497.703 870.18 497.883 870.265 498.083 870.325C498.293 870.375 498.503 870.4 498.713 870.4C499.073 870.4 499.423 870.355 499.763 870.265C500.103 870.175 500.403 870.04 500.663 869.86C500.933 869.67 501.148 869.435 501.308 869.155C501.468 868.865 501.548 868.525 501.548 868.135V866.92ZM500.033 866.47C500.203 866.45 500.403 866.42 500.633 866.38C500.873 866.34 501.068 866.285 501.218 866.215C501.368 866.145 501.458 866.03 501.488 865.87C501.528 865.7 501.548 865.545 501.548 865.405C501.548 864.945 501.398 864.57 501.098 864.28C500.808 863.98 500.313 863.83 499.613 863.83C499.303 863.83 499.018 863.86 498.758 863.92C498.498 863.97 498.268 864.065 498.068 864.205C497.878 864.335 497.718 864.515 497.588 864.745C497.468 864.965 497.388 865.245 497.348 865.585H496.433C496.463 865.125 496.568 864.735 496.748 864.415C496.928 864.085 497.158 863.82 497.438 863.62C497.728 863.41 498.058 863.26 498.428 863.17C498.808 863.07 499.208 863.02 499.628 863.02C500.018 863.02 500.383 863.065 500.723 863.155C501.073 863.235 501.373 863.37 501.623 863.56C501.883 863.74 502.083 863.985 502.223 864.295C502.373 864.605 502.448 864.985 502.448 865.435V869.665C502.448 870.015 502.508 870.24 502.628 870.34C502.758 870.43 503.013 870.405 503.393 870.265V870.97C503.323 870.99 503.218 871.02 503.078 871.06C502.948 871.1 502.818 871.12 502.688 871.12C502.548 871.12 502.413 871.105 502.283 871.075C502.133 871.055 502.013 871.01 501.923 870.94C501.833 870.86 501.758 870.77 501.698 870.67C501.648 870.56 501.613 870.445 501.593 870.325C501.573 870.195 501.563 870.06 501.563 869.92C501.183 870.34 500.748 870.66 500.258 870.88C499.768 871.1 499.238 871.21 498.668 871.21C498.328 871.21 497.998 871.165 497.678 871.075C497.368 870.985 497.093 870.845 496.853 870.655C496.613 870.465 496.423 870.235 496.283 869.965C496.143 869.685 496.073 869.355 496.073 868.975C496.073 867.655 496.978 866.875 498.788 866.635L500.033 866.47ZM510.752 865.675C510.592 865.095 510.317 864.645 509.927 864.325C509.537 863.995 509.042 863.83 508.442 863.83C507.982 863.83 507.587 863.925 507.257 864.115C506.927 864.305 506.657 864.56 506.447 864.88C506.237 865.19 506.082 865.545 505.982 865.945C505.882 866.335 505.832 866.73 505.832 867.13C505.832 867.54 505.877 867.94 505.967 868.33C506.067 868.72 506.222 869.07 506.432 869.38C506.642 869.69 506.912 869.94 507.242 870.13C507.572 870.31 507.972 870.4 508.442 870.4C509.112 870.4 509.647 870.215 510.047 869.845C510.457 869.475 510.717 868.965 510.827 868.315H511.787C511.707 868.745 511.577 869.14 511.397 869.5C511.227 869.85 511.002 870.155 510.722 870.415C510.452 870.665 510.127 870.86 509.747 871C509.367 871.14 508.932 871.21 508.442 871.21C507.822 871.21 507.287 871.105 506.837 870.895C506.387 870.685 506.017 870.4 505.727 870.04C505.437 869.67 505.222 869.235 505.082 868.735C504.942 868.235 504.872 867.7 504.872 867.13C504.872 866.59 504.947 866.075 505.097 865.585C505.257 865.085 505.487 864.645 505.787 864.265C506.087 863.885 506.457 863.585 506.897 863.365C507.347 863.135 507.862 863.02 508.442 863.02C509.342 863.02 510.067 863.235 510.617 863.665C511.177 864.095 511.527 864.765 511.667 865.675H510.752ZM514.032 871V860.2H514.932V864.31C515.292 863.93 515.662 863.62 516.042 863.38C516.432 863.14 516.897 863.02 517.437 863.02C517.917 863.02 518.362 863.105 518.772 863.275C519.182 863.435 519.527 863.72 519.807 864.13C519.997 864.41 520.107 864.7 520.137 865C520.177 865.29 520.197 865.595 520.197 865.915V871H519.297V865.93C519.297 865.23 519.142 864.705 518.832 864.355C518.522 864.005 518.007 863.83 517.287 863.83C517.007 863.83 516.752 863.875 516.522 863.965C516.292 864.045 516.082 864.155 515.892 864.295C515.712 864.435 515.557 864.595 515.427 864.775C515.297 864.955 515.197 865.145 515.127 865.345C515.037 865.595 514.982 865.835 514.962 866.065C514.942 866.295 514.932 866.545 514.932 866.815V871H514.032ZM528.442 866.575C528.442 866.195 528.387 865.84 528.277 865.51C528.177 865.17 528.022 864.88 527.812 864.64C527.612 864.39 527.357 864.195 527.047 864.055C526.737 863.905 526.382 863.83 525.982 863.83C525.582 863.83 525.227 863.905 524.917 864.055C524.617 864.205 524.357 864.405 524.137 864.655C523.927 864.905 523.757 865.195 523.627 865.525C523.497 865.855 523.412 866.205 523.372 866.575H528.442ZM523.372 867.325C523.372 867.745 523.427 868.145 523.537 868.525C523.647 868.895 523.807 869.22 524.017 869.5C524.237 869.77 524.512 869.99 524.842 870.16C525.172 870.32 525.552 870.4 525.982 870.4C526.572 870.4 527.077 870.245 527.497 869.935C527.917 869.625 528.197 869.185 528.337 868.615H529.342C529.232 868.985 529.087 869.33 528.907 869.65C528.727 869.96 528.502 870.235 528.232 870.475C527.962 870.705 527.642 870.885 527.272 871.015C526.902 871.145 526.472 871.21 525.982 871.21C525.362 871.21 524.827 871.105 524.377 870.895C523.927 870.685 523.557 870.4 523.267 870.04C522.977 869.67 522.762 869.24 522.622 868.75C522.482 868.25 522.412 867.715 522.412 867.145C522.412 866.575 522.492 866.04 522.652 865.54C522.822 865.04 523.057 864.605 523.357 864.235C523.667 863.855 524.042 863.56 524.482 863.35C524.922 863.13 525.422 863.02 525.982 863.02C527.052 863.02 527.892 863.39 528.502 864.13C529.112 864.86 529.412 865.925 529.402 867.325H523.372ZM532.547 871H531.647V863.23H532.547V864.685H532.577C532.827 864.065 533.147 863.635 533.537 863.395C533.937 863.145 534.462 863.02 535.112 863.02V863.995C534.602 863.985 534.182 864.065 533.852 864.235C533.522 864.405 533.257 864.635 533.057 864.925C532.867 865.215 532.732 865.56 532.652 865.96C532.582 866.35 532.547 866.76 532.547 867.19V871Z" fill="black"/>
<path d="M484.966 887.241H487.054L490.145 896.337L493.213 887.241H495.279V898H493.895V891.65C493.895 891.43 493.899 891.066 493.909 890.559C493.919 890.051 493.924 889.506 493.924 888.925L490.855 898H489.412L486.321 888.925V889.255C486.321 889.519 486.326 889.921 486.336 890.463C486.351 891 486.358 891.396 486.358 891.65V898H484.966V887.241ZM498.783 895.913C498.783 896.293 498.922 896.594 499.2 896.813C499.479 897.033 499.808 897.143 500.189 897.143C500.653 897.143 501.102 897.036 501.537 896.821C502.269 896.464 502.636 895.881 502.636 895.07V894.008C502.474 894.111 502.267 894.196 502.013 894.265C501.759 894.333 501.51 894.382 501.266 894.411L500.468 894.514C499.989 894.577 499.63 894.677 499.391 894.814C498.986 895.043 498.783 895.41 498.783 895.913ZM501.976 893.247C502.279 893.208 502.482 893.081 502.584 892.866C502.643 892.749 502.672 892.58 502.672 892.36C502.672 891.911 502.511 891.586 502.189 891.386C501.871 891.181 501.415 891.079 500.819 891.079C500.131 891.079 499.642 891.264 499.354 891.635C499.193 891.84 499.088 892.146 499.039 892.551H497.809C497.833 891.584 498.146 890.913 498.746 890.537C499.352 890.156 500.053 889.965 500.848 889.965C501.771 889.965 502.521 890.141 503.097 890.493C503.668 890.844 503.954 891.391 503.954 892.133V896.652C503.954 896.789 503.981 896.899 504.034 896.982C504.093 897.065 504.213 897.106 504.393 897.106C504.452 897.106 504.518 897.104 504.591 897.099C504.664 897.089 504.742 897.077 504.825 897.062V898.037C504.62 898.095 504.464 898.132 504.357 898.146C504.249 898.161 504.103 898.168 503.917 898.168C503.463 898.168 503.134 898.007 502.929 897.685C502.821 897.514 502.745 897.272 502.701 896.96C502.433 897.312 502.047 897.617 501.544 897.875C501.041 898.134 500.487 898.264 499.882 898.264C499.154 898.264 498.558 898.044 498.095 897.604C497.636 897.16 497.406 896.606 497.406 895.942C497.406 895.214 497.633 894.65 498.087 894.25C498.541 893.85 499.137 893.603 499.874 893.51L501.976 893.247ZM506.608 890.156H507.861V891.511C507.963 891.247 508.215 890.927 508.615 890.551C509.016 890.17 509.477 889.98 510 889.98C510.024 889.98 510.066 889.982 510.124 889.987C510.183 889.992 510.283 890.002 510.424 890.017V891.408C510.346 891.394 510.273 891.384 510.205 891.379C510.141 891.374 510.07 891.372 509.992 891.372C509.328 891.372 508.818 891.586 508.462 892.016C508.105 892.441 507.927 892.932 507.927 893.488V898H506.608V890.156ZM512.662 890.156L514.756 896.542L516.946 890.156H518.389L515.43 898H514.024L511.131 890.156H512.662ZM519.967 890.192H521.307V898H519.967V890.192ZM519.967 887.241H521.307V888.735H519.967V887.241ZM523.757 890.156H525.009V891.269C525.38 890.81 525.773 890.48 526.188 890.28C526.604 890.08 527.065 889.98 527.573 889.98C528.686 889.98 529.438 890.368 529.829 891.145C530.043 891.569 530.151 892.177 530.151 892.968V898H528.811V893.056C528.811 892.578 528.74 892.192 528.598 891.899C528.364 891.411 527.939 891.167 527.324 891.167C527.011 891.167 526.755 891.198 526.555 891.262C526.193 891.369 525.876 891.584 525.603 891.906C525.383 892.165 525.239 892.434 525.17 892.712C525.107 892.985 525.075 893.378 525.075 893.891V898H523.757V890.156Z" fill="black"/>
<rect x="444" y="198" width="172" height="3" rx="1.5" fill="#E2E2E2"/>
</g>
<rect x="0.5" y="0.5" width="1439" height="1016" stroke="black"/>
<defs>
<linearGradient id="paint0_linear_501_627" x1="0" y1="130" x2="1440" y2="130" gradientUnits="userSpaceOnUse">
<stop stop-color="#5594CE"/>
<stop offset="0.510417" stop-color="#82A8C4"/>
<stop offset="1" stop-color="#7ACCE6"/>
</linearGradient>
<clipPath id="clip0_501_627">
<rect width="1440" height="1017" fill="white"/>
</clipPath>
</defs>
</svg>
